# Blender v3.3.0 OBJ File: 'separated_pan.blend'
# www.blender.org
mtllib pan_15.mtl
o pan_15_pan_00.017
v 0.281473 -0.133107 -0.032423
v 0.281288 -0.132413 -0.034509
v 0.281064 -0.131572 -0.036980
v 0.263868 -0.136818 -0.032423
v 0.245983 -0.138109 -0.032423
v 0.245983 -0.137389 -0.034509
v 0.263774 -0.136105 -0.034509
v 0.245983 -0.136516 -0.036980
v 0.263661 -0.135241 -0.036980
v 0.245983 -0.134352 -0.042772
v 0.263381 -0.133096 -0.042772
v 0.263530 -0.134235 -0.039760
v 0.245983 -0.135501 -0.039760
v 0.280508 -0.129486 -0.042772
v 0.280803 -0.130594 -0.039760
v 0.262842 -0.128971 -0.052445
v 0.245983 -0.130188 -0.052445
v 0.279438 -0.125473 -0.052445
v 0.263036 -0.130455 -0.049191
v 0.245983 -0.131686 -0.049191
v 0.279823 -0.126917 -0.049191
v 0.280180 -0.128257 -0.045942
v 0.245983 -0.133077 -0.045942
v 0.263216 -0.131833 -0.045942
v 0.228098 -0.136818 -0.032423
v 0.228191 -0.136105 -0.034509
v 0.210492 -0.133107 -0.032423
v 0.210677 -0.132413 -0.034509
v 0.228304 -0.135241 -0.036980
v 0.210901 -0.131572 -0.036980
v 0.211458 -0.129486 -0.042772
v 0.211162 -0.130594 -0.039760
v 0.228584 -0.133096 -0.042772
v 0.228435 -0.134235 -0.039760
v 0.212528 -0.125473 -0.052445
v 0.212143 -0.126917 -0.049191
v 0.229123 -0.128971 -0.052445
v 0.228929 -0.130455 -0.049191
v 0.228749 -0.131833 -0.045942
v 0.211785 -0.128257 -0.045942
v 0.245983 -0.139243 -0.027516
v 0.264015 -0.137942 -0.027516
v 0.263962 -0.137539 -0.027518
v 0.245983 -0.138837 -0.027518
v 0.281765 -0.134200 -0.027516
v 0.281660 -0.133809 -0.027518
v 0.263900 -0.137066 -0.027525
v 0.245983 -0.138359 -0.027525
v 0.281538 -0.133349 -0.027525
v 0.281312 -0.132504 -0.027566
v 0.281415 -0.132890 -0.027541
v 0.263787 -0.136198 -0.027566
v 0.245983 -0.137483 -0.027566
v 0.245983 -0.137884 -0.027541
v 0.263838 -0.136595 -0.027541
v 0.210201 -0.134200 -0.027516
v 0.210305 -0.133809 -0.027518
v 0.210428 -0.133349 -0.027525
v 0.227951 -0.137942 -0.027516
v 0.228003 -0.137539 -0.027518
v 0.228065 -0.137066 -0.027525
v 0.228179 -0.136198 -0.027566
v 0.228127 -0.136595 -0.027541
v 0.210653 -0.132504 -0.027566
v 0.210550 -0.132890 -0.027541
v 0.245983 -0.139504 -0.027518
v 0.264048 -0.138201 -0.027518
v 0.245983 -0.139634 -0.027581
v 0.264065 -0.138329 -0.027581
v 0.281832 -0.134452 -0.027518
v 0.281865 -0.134577 -0.027581
v 0.245983 -0.139647 -0.027761
v 0.245983 -0.139555 -0.028116
v 0.264055 -0.138251 -0.028116
v 0.264067 -0.138342 -0.027761
v 0.281845 -0.134501 -0.028116
v 0.281868 -0.134589 -0.027761
v 0.245983 -0.139373 -0.028702
v 0.264031 -0.138071 -0.028702
v 0.245983 -0.139083 -0.029577
v 0.263994 -0.137783 -0.029577
v 0.281798 -0.134326 -0.028702
v 0.281724 -0.134046 -0.029577
v 0.245983 -0.138668 -0.030799
v 0.263940 -0.137372 -0.030799
v 0.281617 -0.133646 -0.030799
v 0.228025 -0.137372 -0.030799
v 0.227972 -0.137783 -0.029577
v 0.210349 -0.133646 -0.030799
v 0.210242 -0.134046 -0.029577
v 0.227910 -0.138251 -0.028116
v 0.227934 -0.138071 -0.028702
v 0.210121 -0.134501 -0.028116
v 0.210167 -0.134326 -0.028702
v 0.227899 -0.138342 -0.027761
v 0.227900 -0.138329 -0.027581
v 0.210097 -0.134589 -0.027761
v 0.210100 -0.134577 -0.027581
v 0.227917 -0.138201 -0.027518
v 0.210134 -0.134452 -0.027518
v 0.245983 -0.136770 -0.028412
v 0.245983 -0.136935 -0.027961
v 0.263716 -0.135655 -0.027961
v 0.263694 -0.135492 -0.028412
v 0.245983 -0.137068 -0.027712
v 0.263733 -0.135787 -0.027712
v 0.281171 -0.131975 -0.027961
v 0.281129 -0.131817 -0.028412
v 0.281206 -0.132104 -0.027712
v 0.245983 -0.137231 -0.027602
v 0.263754 -0.135949 -0.027602
v 0.281248 -0.132261 -0.027602
v 0.228211 -0.135949 -0.027601
v 0.228232 -0.135787 -0.027712
v 0.210718 -0.132261 -0.027601
v 0.210760 -0.132104 -0.027712
v 0.228271 -0.135492 -0.028412
v 0.228250 -0.135655 -0.027961
v 0.210836 -0.131817 -0.028412
v 0.210794 -0.131975 -0.027961
v 0.245983 -0.127653 -0.051777
v 0.262514 -0.126460 -0.051777
v 0.245983 -0.129069 -0.048781
v 0.262697 -0.127863 -0.048781
v 0.278786 -0.123030 -0.051777
v 0.279150 -0.124395 -0.048781
v 0.245983 -0.130376 -0.045788
v 0.245983 -0.131568 -0.042867
v 0.263021 -0.130338 -0.042867
v 0.262866 -0.129158 -0.045788
v 0.279792 -0.126803 -0.042867
v 0.279486 -0.125655 -0.045788
v 0.245983 -0.132640 -0.040082
v 0.263159 -0.131401 -0.040082
v 0.245983 -0.133591 -0.037492
v 0.263283 -0.132343 -0.037492
v 0.280068 -0.127837 -0.040082
v 0.280312 -0.128753 -0.037492
v 0.245983 -0.134420 -0.035153
v 0.245983 -0.135124 -0.033122
v 0.263481 -0.133861 -0.033122
v 0.263390 -0.133163 -0.035153
v 0.280706 -0.130230 -0.033122
v 0.280525 -0.129552 -0.035153
v 0.228575 -0.133163 -0.035153
v 0.228484 -0.133861 -0.033122
v 0.228683 -0.132343 -0.037492
v 0.211440 -0.129552 -0.035153
v 0.211259 -0.130230 -0.033122
v 0.211653 -0.128753 -0.037492
v 0.228945 -0.130338 -0.042867
v 0.228806 -0.131401 -0.040082
v 0.212173 -0.126803 -0.042867
v 0.211897 -0.127837 -0.040082
v 0.229099 -0.129158 -0.045788
v 0.229268 -0.127863 -0.048781
v 0.212479 -0.125655 -0.045788
v 0.212815 -0.124395 -0.048781
v 0.229452 -0.126460 -0.051777
v 0.213179 -0.123030 -0.051777
v 0.245983 -0.135702 -0.031458
v 0.263556 -0.134433 -0.031458
v 0.245983 -0.136163 -0.030135
v 0.263616 -0.134890 -0.030135
v 0.280855 -0.130787 -0.031458
v 0.280973 -0.131232 -0.030135
v 0.245983 -0.136516 -0.029128
v 0.263661 -0.135240 -0.029128
v 0.281064 -0.131572 -0.029128
v 0.228304 -0.135240 -0.029128
v 0.228350 -0.134890 -0.030135
v 0.210901 -0.131572 -0.029128
v 0.210992 -0.131232 -0.030135
v 0.228409 -0.134433 -0.031458
v 0.211111 -0.130787 -0.031458
vt 0.028533 0.288815
vt 0.027003 0.258180
vt 0.030227 0.258237
vt 0.031737 0.288451
vt 0.034045 0.258305
vt 0.035531 0.288022
vt 0.034125 0.319077
vt 0.037255 0.318299
vt 0.040961 0.317379
vt 0.043010 0.258462
vt 0.044442 0.287010
vt 0.039803 0.287538
vt 0.038343 0.258380
vt 0.049666 0.315215
vt 0.045134 0.316341
vt 0.058165 0.258727
vt 0.059507 0.285303
vt 0.054398 0.285882
vt 0.053025 0.258637
vt 0.064387 0.311556
vt 0.059394 0.312797
vt 0.047940 0.258548
vt 0.049342 0.286455
vt 0.054454 0.314025
vt 0.029631 0.227619
vt 0.032820 0.228094
vt 0.036307 0.197573
vt 0.039407 0.198461
vt 0.036596 0.228659
vt 0.043078 0.199514
vt 0.045467 0.229981
vt 0.040849 0.229292
vt 0.051702 0.201983
vt 0.047212 0.200696
vt 0.060464 0.232216
vt 0.055377 0.231458
vt 0.066285 0.206158
vt 0.061339 0.204742
vt 0.050345 0.230708
vt 0.056445 0.203341
vt 0.512473 0.237066
vt 0.512586 0.210538
vt 0.513180 0.210575
vt 0.513067 0.237026
vt 0.516300 0.184179
vt 0.516883 0.184292
vt 0.513879 0.210618
vt 0.513767 0.236978
vt 0.517569 0.184426
vt 0.515163 0.210698
vt 0.515051 0.236891
vt 0.514463 0.236931
vt 0.514576 0.210662
vt 0.518830 0.184673
vt 0.518253 0.184560
vt 0.516170 0.263337
vt 0.516754 0.263220
vt 0.517440 0.263082
vt 0.523411 0.288952
vt 0.523974 0.288760
vt 0.524636 0.288535
vt 0.518701 0.262829
vt 0.518125 0.262945
vt 0.525851 0.288121
vt 0.525295 0.288310
vt 0.512090 0.237092
vt 0.512204 0.210514
vt 0.511879 0.237106
vt 0.511992 0.210500
vt 0.515924 0.184105
vt 0.515717 0.184064
vt 0.019797 0.258051
vt 0.020337 0.258060
vt 0.021907 0.289563
vt 0.021370 0.289623
vt 0.027654 0.320682
vt 0.027131 0.320813
vt 0.019531 0.258046
vt 0.021106 0.289655
vt 0.026873 0.320880
vt 0.021239 0.258076
vt 0.022804 0.289461
vt 0.022594 0.258101
vt 0.024150 0.289309
vt 0.028531 0.320465
vt 0.029845 0.320138
vt 0.024487 0.258135
vt 0.026031 0.289097
vt 0.031683 0.319683
vt 0.027141 0.227247
vt 0.025269 0.226967
vt 0.033888 0.196879
vt 0.032068 0.196358
vt 0.023036 0.226633
vt 0.023929 0.226766
vt 0.029898 0.195735
vt 0.030767 0.195984
vt 0.022502 0.226551
vt 0.022239 0.226512
vt 0.029380 0.195586
vt 0.029124 0.195512
vt 0.515794 0.263412
vt 0.523049 0.289076
vt 0.515587 0.263453
vt 0.522849 0.289144
vt 0.503821 0.754309
vt 0.504525 0.754337
vt 0.501219 0.784792
vt 0.500523 0.784672
vt 0.504941 0.754354
vt 0.501628 0.784862
vt 0.493877 0.814633
vt 0.493203 0.814423
vt 0.494274 0.814755
vt 0.515423 0.236866
vt 0.515535 0.210721
vt 0.519195 0.184743
vt 0.505230 0.754366
vt 0.501914 0.784910
vt 0.494551 0.814840
vt 0.519067 0.262756
vt 0.504086 0.723677
vt 0.504375 0.723652
vt 0.526204 0.288000
vt 0.499152 0.693286
vt 0.499435 0.693226
vt 0.502969 0.723776
vt 0.503672 0.723713
vt 0.498058 0.693531
vt 0.498747 0.693378
vt 0.467438 0.752838
vt 0.472199 0.753031
vt 0.469333 0.779280
vt 0.464636 0.778468
vt 0.462979 0.805006
vt 0.458425 0.803588
vt 0.476898 0.753221
vt 0.481451 0.753406
vt 0.478460 0.780858
vt 0.473969 0.780083
vt 0.471825 0.807760
vt 0.467473 0.806404
vt 0.485768 0.753580
vt 0.482718 0.781594
vt 0.489771 0.753742
vt 0.486667 0.782278
vt 0.475952 0.809047
vt 0.479778 0.810239
vt 0.493380 0.753888
vt 0.496514 0.754015
vt 0.493317 0.783426
vt 0.490227 0.782892
vt 0.486222 0.812247
vt 0.483227 0.811315
vt 0.492563 0.724722
vt 0.495686 0.724438
vt 0.488965 0.725049
vt 0.487865 0.695829
vt 0.490925 0.695139
vt 0.484340 0.696622
vt 0.480671 0.725799
vt 0.484974 0.725410
vt 0.476213 0.698450
vt 0.480430 0.697502
vt 0.476132 0.726211
vt 0.471446 0.726635
vt 0.471765 0.699450
vt 0.467173 0.700484
vt 0.466699 0.727064
vt 0.462520 0.701529
vt 0.499088 0.754119
vt 0.495856 0.783865
vt 0.501140 0.754201
vt 0.497879 0.784215
vt 0.488682 0.813014
vt 0.490642 0.813625
vt 0.502705 0.754264
vt 0.499422 0.784483
vt 0.492137 0.814092
vt 0.501857 0.723879
vt 0.500297 0.724019
vt 0.496969 0.693778
vt 0.495441 0.694121
vt 0.498252 0.724205
vt 0.493438 0.694573
vn 0.1318 -0.9363 -0.3255
vn -0.0000 -0.9454 -0.3258
vn -0.0000 -0.9441 -0.3296
vn 0.1317 -0.9350 -0.3293
vn -0.0000 -0.9412 -0.3379
vn 0.1313 -0.9321 -0.3376
vn 0.1951 -0.9255 -0.3247
vn 0.1948 -0.9242 -0.3284
vn 0.1942 -0.9213 -0.3368
vn -0.0000 -0.9311 -0.3647
vn 0.1298 -0.9221 -0.3644
vn 0.1306 -0.9278 -0.3494
vn -0.0000 -0.9369 -0.3497
vn 0.1921 -0.9116 -0.3635
vn 0.1933 -0.9171 -0.3485
vn -0.0000 -0.9084 -0.4182
vn 0.1268 -0.8996 -0.4179
vn 0.1275 -0.9052 -0.4053
vn -0.0000 -0.9140 -0.4056
vn 0.1875 -0.8894 -0.4168
vn 0.1886 -0.8949 -0.4044
vn -0.0000 -0.9237 -0.3832
vn 0.1288 -0.9148 -0.3829
vn 0.1906 -0.9043 -0.3819
vn -0.1318 -0.9363 -0.3255
vn -0.1317 -0.9350 -0.3293
vn -0.1951 -0.9255 -0.3247
vn -0.1948 -0.9242 -0.3284
vn -0.1313 -0.9321 -0.3376
vn -0.1942 -0.9213 -0.3368
vn -0.1299 -0.9221 -0.3644
vn -0.1306 -0.9278 -0.3494
vn -0.1921 -0.9116 -0.3635
vn -0.1933 -0.9171 -0.3485
vn -0.1268 -0.8996 -0.4179
vn -0.1275 -0.9052 -0.4053
vn -0.1875 -0.8894 -0.4168
vn -0.1886 -0.8949 -0.4044
vn -0.1288 -0.9148 -0.3829
vn -0.1906 -0.9043 -0.3819
vn -0.0000 -0.0018 1.0000
vn 0.0003 -0.0018 1.0000
vn -0.0014 0.0103 0.9999
vn 0.0000 0.0104 0.9999
vn 0.0004 -0.0017 1.0000
vn -0.0022 0.0103 0.9999
vn -0.0034 0.0238 0.9997
vn 0.0000 0.0240 0.9997
vn -0.0050 0.0237 0.9997
vn -0.0139 0.0989 0.9950
vn 0.0000 0.0997 0.9950
vn 0.0000 0.0464 0.9989
vn -0.0065 0.0460 0.9989
vn -0.0207 0.0984 0.9949
vn -0.0096 0.0457 0.9989
vn -0.0003 -0.0018 1.0000
vn 0.0014 0.0103 0.9999
vn 0.0034 0.0238 0.9997
vn -0.0004 -0.0017 1.0000
vn 0.0022 0.0103 0.9999
vn 0.0050 0.0237 0.9997
vn 0.0139 0.0989 0.9950
vn 0.0065 0.0460 0.9989
vn 0.0207 0.0984 0.9949
vn 0.0096 0.0457 0.9989
vn 0.0000 -0.2369 0.9715
vn 0.0331 -0.2342 0.9716
vn -0.0000 -0.8355 0.5494
vn 0.1164 -0.8271 0.5499
vn 0.0485 -0.2301 0.9719
vn 0.1721 -0.8164 0.5512
vn -0.0000 -0.9958 -0.0911
vn -0.0000 -0.9621 -0.2728
vn 0.1341 -0.9527 -0.2726
vn 0.1388 -0.9861 -0.0911
vn 0.1985 -0.9416 -0.2719
vn 0.2054 -0.9744 -0.0910
vn -0.0000 -0.9523 -0.3053
vn 0.1328 -0.9430 -0.3050
vn -0.0000 -0.9480 -0.3183
vn 0.1322 -0.9388 -0.3180
vn 0.1965 -0.9321 -0.3042
vn 0.1956 -0.9280 -0.3172
vn -0.0000 -0.9461 -0.3237
vn 0.1319 -0.9370 -0.3235
vn 0.1952 -0.9262 -0.3226
vn -0.1319 -0.9370 -0.3235
vn -0.1322 -0.9388 -0.3180
vn -0.1952 -0.9262 -0.3226
vn -0.1956 -0.9280 -0.3172
vn -0.1341 -0.9527 -0.2726
vn -0.1328 -0.9430 -0.3050
vn -0.1985 -0.9416 -0.2719
vn -0.1965 -0.9321 -0.3042
vn -0.1388 -0.9861 -0.0911
vn -0.1164 -0.8271 0.5498
vn -0.2054 -0.9744 -0.0910
vn -0.1721 -0.8165 0.5511
vn -0.0331 -0.2343 0.9716
vn -0.0485 -0.2302 0.9719
vn 0.0000 0.9410 0.3383
vn 0.0000 0.9121 0.4099
vn -0.1272 0.9034 0.4095
vn -0.1312 0.9319 0.3380
vn -0.0000 0.7378 0.6751
vn -0.1030 0.7311 0.6744
vn -0.1883 0.8932 0.4082
vn -0.1942 0.9212 0.3371
vn -0.1527 0.7244 0.6722
vn -0.0000 0.3516 0.9361
vn -0.0491 0.3490 0.9358
vn -0.0733 0.3476 0.9348
vn 0.0491 0.3490 0.9358
vn 0.1030 0.7311 0.6744
vn 0.0733 0.3476 0.9348
vn 0.1527 0.7244 0.6722
vn 0.1312 0.9319 0.3380
vn 0.1272 0.9034 0.4095
vn 0.1942 0.9212 0.3371
vn 0.1883 0.8933 0.4082
vn 0.0000 0.9041 0.4274
vn 0.0000 0.9105 0.4136
vn -0.1270 0.9017 0.4133
vn -0.1262 0.8954 0.4270
vn -0.1879 0.8915 0.4123
vn -0.1866 0.8853 0.4260
vn 0.0000 0.9213 0.3888
vn 0.0000 0.9297 0.3684
vn -0.1296 0.9207 0.3681
vn -0.1285 0.9125 0.3885
vn -0.1918 0.9102 0.3672
vn -0.1901 0.9020 0.3876
vn 0.0000 0.9361 0.3519
vn -0.1305 0.9270 0.3516
vn 0.0000 0.9407 0.3391
vn -0.1312 0.9316 0.3389
vn -0.1931 0.9164 0.3507
vn -0.1941 0.9209 0.3380
vn 0.0000 0.9437 0.3307
vn 0.0000 0.9447 0.3279
vn -0.1317 0.9356 0.3276
vn -0.1316 0.9346 0.3304
vn -0.1949 0.9248 0.3268
vn -0.1947 0.9238 0.3295
vn 0.1316 0.9346 0.3304
vn 0.1317 0.9356 0.3276
vn 0.1312 0.9316 0.3388
vn 0.1947 0.9238 0.3295
vn 0.1949 0.9248 0.3268
vn 0.1941 0.9209 0.3380
vn 0.1296 0.9207 0.3681
vn 0.1305 0.9270 0.3516
vn 0.1918 0.9102 0.3672
vn 0.1931 0.9164 0.3507
vn 0.1285 0.9125 0.3885
vn 0.1270 0.9017 0.4133
vn 0.1901 0.9020 0.3876
vn 0.1879 0.8915 0.4123
vn 0.1262 0.8954 0.4271
vn 0.1866 0.8853 0.4260
vn 0.0000 0.9444 0.3287
vn -0.1317 0.9353 0.3284
vn 0.0000 0.9439 0.3301
vn -0.1316 0.9348 0.3298
vn -0.1949 0.9245 0.3275
vn -0.1948 0.9240 0.3290
vn 0.0000 0.9430 0.3327
vn -0.1315 0.9339 0.3325
vn -0.1946 0.9231 0.3316
vn 0.1315 0.9339 0.3325
vn 0.1316 0.9348 0.3298
vn 0.1946 0.9231 0.3316
vn 0.1948 0.9240 0.3290
vn 0.1317 0.9353 0.3284
vn 0.1949 0.9245 0.3276
usemtl pan_Mat
s 1
f 4/1/1 5/2/2 6/3/3 7/4/4
f 7/4/4 6/3/3 8/5/5 9/6/6
f 1/7/7 4/1/1 7/4/4 2/8/8
f 2/8/8 7/4/4 9/6/6 3/9/9
f 10/10/10 11/11/11 12/12/12 13/13/13
f 11/11/11 14/14/14 15/15/15 12/12/12
f 13/13/13 12/12/12 9/6/6 8/5/5
f 12/12/12 15/15/15 3/9/9 9/6/6
f 17/16/16 16/17/17 19/18/18 20/19/19
f 16/17/17 18/20/20 21/21/21 19/18/18
f 11/11/11 10/10/10 23/22/22 24/23/23
f 24/23/23 23/22/22 20/19/19 19/18/18
f 14/14/14 11/11/11 24/23/23 22/24/24
f 22/24/24 24/23/23 19/18/18 21/21/21
f 5/2/2 25/25/25 26/26/26 6/3/3
f 25/25/25 27/27/27 28/28/28 26/26/26
f 6/3/3 26/26/26 29/29/29 8/5/5
f 26/26/26 28/28/28 30/30/30 29/29/29
f 33/31/31 10/10/10 13/13/13 34/32/32
f 34/32/32 13/13/13 8/5/5 29/29/29
f 31/33/33 33/31/31 34/32/32 32/34/34
f 32/34/34 34/32/32 29/29/29 30/30/30
f 37/35/35 17/16/16 20/19/19 38/36/36
f 35/37/37 37/35/35 38/36/36 36/38/38
f 10/10/10 33/31/31 39/39/39 23/22/22
f 33/31/31 31/33/33 40/40/40 39/39/39
f 23/22/22 39/39/39 38/36/36 20/19/19
f 39/39/39 40/40/40 36/38/38 38/36/36
f 41/41/41 42/42/42 43/43/43 44/44/44
f 42/42/42 45/45/45 46/46/46 43/43/43
f 44/44/44 43/43/43 47/47/47 48/48/48
f 43/43/43 46/46/46 49/49/49 47/47/47
f 52/50/50 53/51/51 54/52/52 55/53/53
f 55/53/53 54/52/52 48/48/48 47/47/47
f 50/54/54 52/50/50 55/53/53 51/55/55
f 51/55/55 55/53/53 47/47/47 49/49/49
f 59/56/56 41/41/41 44/44/44 60/57/57
f 60/57/57 44/44/44 48/48/48 61/58/58
f 56/59/59 59/56/56 60/57/57 57/60/60
f 57/60/60 60/57/57 61/58/58 58/61/61
f 53/51/51 62/62/62 63/63/63 54/52/52
f 62/62/62 64/64/64 65/65/65 63/63/63
f 54/52/52 63/63/63 61/58/58 48/48/48
f 63/63/63 65/65/65 58/61/61 61/58/58
f 41/41/41 66/66/66 67/67/67 42/42/42
f 66/66/66 68/68/68 69/69/69 67/67/67
f 42/42/42 67/67/67 70/70/70 45/45/45
f 67/67/67 69/69/69 71/71/71 70/70/70
f 72/72/72 73/73/73 74/74/74 75/75/75
f 75/75/75 74/74/74 76/76/76 77/77/77
f 68/78/68 72/72/72 75/75/75 69/79/69
f 69/79/69 75/75/75 77/77/77 71/80/71
f 73/73/73 78/81/78 79/82/79 74/74/74
f 78/81/78 80/83/80 81/84/81 79/82/79
f 74/74/74 79/82/79 82/85/82 76/76/76
f 79/82/79 81/84/81 83/86/83 82/85/82
f 84/87/84 5/2/2 4/1/1 85/88/85
f 85/88/85 4/1/1 1/7/7 86/89/86
f 80/83/80 84/87/84 85/88/85 81/84/81
f 81/84/81 85/88/85 86/89/86 83/86/83
f 5/2/2 84/87/84 87/90/87 25/25/25
f 84/87/84 80/83/80 88/91/88 87/90/87
f 25/25/25 87/90/87 89/92/89 27/27/27
f 87/90/87 88/91/88 90/93/90 89/92/89
f 78/81/78 73/73/73 91/94/91 92/95/92
f 92/95/92 91/94/91 93/96/93 94/97/94
f 80/83/80 78/81/78 92/95/92 88/91/88
f 88/91/88 92/95/92 94/97/94 90/93/90
f 73/73/73 72/72/72 95/98/95 91/94/91
f 72/72/72 68/78/68 96/99/96 95/98/95
f 91/94/91 95/98/95 97/100/97 93/96/93
f 95/98/95 96/99/96 98/101/98 97/100/97
f 66/66/66 41/41/41 59/56/56 99/102/99
f 99/102/99 59/56/56 56/59/59 100/103/100
f 68/68/68 66/66/66 99/102/99 96/104/96
f 96/104/96 99/102/99 100/103/100 98/105/98
f 101/106/101 102/107/102 103/108/103 104/109/104
f 102/107/102 105/110/105 106/111/106 103/108/103
f 104/109/104 103/108/103 107/112/107 108/113/108
f 103/108/103 106/111/106 109/114/109 107/112/107
f 110/115/110 53/51/51 52/50/50 111/116/111
f 111/116/111 52/50/50 50/54/54 112/117/112
f 105/110/105 110/118/110 111/119/111 106/111/106
f 106/111/106 111/119/111 112/120/112 109/114/109
f 53/51/51 110/115/110 113/121/113 62/62/62
f 110/118/110 105/110/105 114/122/114 113/123/113
f 62/62/62 113/121/113 115/124/115 64/64/64
f 113/123/113 114/122/114 116/125/116 115/126/115
f 102/107/102 101/106/101 117/127/117 118/128/118
f 118/128/118 117/127/117 119/129/119 120/130/120
f 105/110/105 102/107/102 118/128/118 114/122/114
f 114/122/114 118/128/118 120/130/120 116/125/116
f 121/131/121 123/132/122 124/133/123 122/134/124
f 122/134/124 124/133/123 126/135/125 125/136/126
f 127/137/127 128/138/128 129/139/129 130/140/130
f 130/140/130 129/139/129 131/141/131 132/142/132
f 123/132/122 127/137/127 130/140/130 124/133/123
f 124/133/123 130/140/130 132/142/132 126/135/125
f 128/138/128 133/143/133 134/144/134 129/139/129
f 133/143/133 135/145/135 136/146/136 134/144/134
f 129/139/129 134/144/134 137/147/137 131/141/131
f 134/144/134 136/146/136 138/148/138 137/147/137
f 139/149/139 140/150/140 141/151/141 142/152/142
f 142/152/142 141/151/141 143/153/143 144/154/144
f 135/145/135 139/149/139 142/152/142 136/146/136
f 136/146/136 142/152/142 144/154/144 138/148/138
f 140/150/140 139/149/139 145/155/145 146/156/146
f 139/149/139 135/145/135 147/157/147 145/155/145
f 146/156/146 145/155/145 148/158/148 149/159/149
f 145/155/145 147/157/147 150/160/150 148/158/148
f 133/143/133 128/138/128 151/161/151 152/162/152
f 152/162/152 151/161/151 153/163/153 154/164/154
f 135/145/135 133/143/133 152/162/152 147/157/147
f 147/157/147 152/162/152 154/164/154 150/160/150
f 128/138/128 127/137/127 155/165/155 151/161/151
f 127/137/127 123/132/122 156/166/156 155/165/155
f 151/161/151 155/165/155 157/167/157 153/163/153
f 155/165/155 156/166/156 158/168/158 157/167/157
f 123/132/122 121/131/121 159/169/159 156/166/156
f 156/166/156 159/169/159 160/170/160 158/168/158
f 140/150/140 161/171/161 162/172/162 141/151/141
f 161/171/161 163/173/163 164/174/164 162/172/162
f 141/151/141 162/172/162 165/175/165 143/153/143
f 162/172/162 164/174/164 166/176/166 165/175/165
f 167/177/167 101/106/101 104/109/104 168/178/168
f 168/178/168 104/109/104 108/113/108 169/179/169
f 163/173/163 167/177/167 168/178/168 164/174/164
f 164/174/164 168/178/168 169/179/169 166/176/166
f 101/106/101 167/177/167 170/180/170 117/127/117
f 167/177/167 163/173/163 171/181/171 170/180/170
f 117/127/117 170/180/170 172/182/172 119/129/119
f 170/180/170 171/181/171 173/183/173 172/182/172
f 161/171/161 140/150/140 146/156/146 174/184/174
f 174/184/174 146/156/146 149/159/149 175/185/175
f 163/173/163 161/171/161 174/184/174 171/181/171
f 171/181/171 174/184/174 175/185/175 173/183/173
