# Blender v2.93.10 OBJ File: 'separated_pan.blend'
# www.blender.org
mtllib pan_16.mtl
o pan_16_pan_00.018
v 0.097289 0.049613 -0.199779
v 0.096782 0.047527 -0.199270
v 0.096168 0.045056 -0.198654
v 0.109067 0.049613 -0.186085
v 0.119070 0.049613 -0.170995
v 0.118450 0.047527 -0.170637
v 0.108499 0.047527 -0.185648
v 0.117698 0.045056 -0.170202
v 0.107810 0.045056 -0.185119
v 0.115831 0.039264 -0.169125
v 0.106100 0.039264 -0.183805
v 0.107008 0.042276 -0.184503
v 0.116822 0.042276 -0.169697
v 0.094643 0.039264 -0.197125
v 0.095452 0.042276 -0.197937
v 0.127137 0.049613 -0.154787
v 0.126475 0.047527 -0.154513
v 0.133107 0.049613 -0.137740
v 0.132413 0.047527 -0.137555
v 0.125672 0.045056 -0.154181
v 0.131572 0.045056 -0.137331
v 0.129486 0.039264 -0.136775
v 0.130594 0.042276 -0.137070
v 0.123679 0.039264 -0.153357
v 0.124737 0.042276 -0.153795
v 0.125473 0.029591 -0.135705
v 0.126917 0.032845 -0.136090
v 0.112241 0.029591 -0.167052
v 0.119846 0.029591 -0.151774
v 0.113533 0.032845 -0.167798
v 0.121225 0.032845 -0.152343
v 0.122505 0.036095 -0.152873
v 0.114732 0.036095 -0.168490
v 0.128257 0.036095 -0.136447
v 0.102812 0.029591 -0.181277
v 0.091709 0.029591 -0.194185
v 0.103995 0.032845 -0.182187
v 0.092765 0.032845 -0.195243
v 0.093745 0.036095 -0.196225
v 0.105093 0.036095 -0.183031
v 0.134200 0.054521 -0.138032
v 0.133809 0.054519 -0.137927
v 0.133349 0.054511 -0.137805
v 0.128182 0.054521 -0.155218
v 0.120048 0.054521 -0.171560
v 0.119698 0.054519 -0.171357
v 0.127808 0.054519 -0.155064
v 0.119286 0.054511 -0.171120
v 0.127368 0.054511 -0.154882
v 0.118531 0.054471 -0.170684
v 0.126562 0.054471 -0.154549
v 0.126930 0.054495 -0.154701
v 0.118876 0.054495 -0.170883
v 0.132504 0.054471 -0.137579
v 0.132890 0.054495 -0.137682
v 0.109963 0.054521 -0.186774
v 0.109642 0.054519 -0.186528
v 0.098088 0.054521 -0.200580
v 0.097802 0.054519 -0.200293
v 0.109265 0.054511 -0.186238
v 0.097466 0.054511 -0.199956
v 0.096849 0.054471 -0.199337
v 0.097131 0.054495 -0.199620
v 0.108573 0.054471 -0.185706
v 0.108889 0.054495 -0.185949
v 0.097683 0.051238 -0.200173
v 0.097976 0.052459 -0.200467
v 0.098308 0.053920 -0.200800
v 0.098180 0.053334 -0.200672
v 0.120317 0.053920 -0.171715
v 0.120161 0.053334 -0.171624
v 0.110066 0.053334 -0.186853
v 0.110209 0.053920 -0.186963
v 0.119911 0.052459 -0.171480
v 0.109837 0.052459 -0.186677
v 0.119552 0.051238 -0.171273
v 0.109509 0.051238 -0.186425
v 0.098373 0.054275 -0.200865
v 0.098364 0.054456 -0.200856
v 0.098272 0.054519 -0.200764
v 0.120274 0.054519 -0.171690
v 0.110169 0.054519 -0.186933
v 0.120386 0.054456 -0.171754
v 0.110272 0.054456 -0.187012
v 0.120396 0.054275 -0.171761
v 0.110282 0.054275 -0.187019
v 0.134452 0.054519 -0.138099
v 0.134577 0.054456 -0.138132
v 0.134501 0.053920 -0.138112
v 0.134589 0.054275 -0.138135
v 0.128553 0.054275 -0.155372
v 0.128469 0.053920 -0.155337
v 0.128542 0.054456 -0.155367
v 0.128422 0.054519 -0.155318
v 0.134326 0.053334 -0.138065
v 0.134046 0.052459 -0.137991
v 0.133646 0.051238 -0.137884
v 0.127652 0.051238 -0.154999
v 0.128035 0.052459 -0.155158
v 0.128302 0.053334 -0.155268
v 0.131975 0.054075 -0.137438
v 0.131817 0.053624 -0.137396
v 0.132104 0.054324 -0.137473
v 0.132261 0.054435 -0.137515
v 0.118314 0.054435 -0.170558
v 0.126330 0.054435 -0.154453
v 0.118173 0.054324 -0.170477
v 0.126180 0.054324 -0.154391
v 0.118058 0.054075 -0.170411
v 0.117917 0.053624 -0.170329
v 0.125906 0.053624 -0.154278
v 0.126057 0.054075 -0.154340
v 0.096671 0.054435 -0.199159
v 0.096556 0.054324 -0.199044
v 0.096347 0.053624 -0.198834
v 0.096462 0.054075 -0.198949
v 0.108140 0.054075 -0.185373
v 0.108010 0.053624 -0.185273
v 0.108246 0.054324 -0.185454
v 0.108374 0.054435 -0.185553
v 0.123030 0.030259 -0.135053
v 0.124395 0.033256 -0.135417
v 0.126803 0.039169 -0.136059
v 0.125655 0.036248 -0.135753
v 0.113431 0.039169 -0.167739
v 0.112404 0.036248 -0.167146
v 0.120019 0.036248 -0.151845
v 0.121116 0.039169 -0.152299
v 0.111277 0.033256 -0.166496
v 0.118816 0.033256 -0.151348
v 0.110056 0.030259 -0.165790
v 0.117512 0.030259 -0.150809
v 0.127837 0.041954 -0.136335
v 0.128753 0.044545 -0.136579
v 0.130230 0.048914 -0.136973
v 0.129552 0.046884 -0.136792
v 0.116497 0.048914 -0.169509
v 0.115890 0.046884 -0.169159
v 0.123741 0.046884 -0.153383
v 0.124389 0.048914 -0.153651
v 0.115176 0.044545 -0.168746
v 0.122979 0.044545 -0.153068
v 0.114356 0.041954 -0.168273
v 0.122103 0.041954 -0.152706
v 0.094690 0.046884 -0.197173
v 0.095186 0.048914 -0.197671
v 0.094107 0.044545 -0.196588
v 0.092682 0.039169 -0.195160
v 0.093437 0.041954 -0.195917
v 0.104749 0.041954 -0.182766
v 0.103902 0.039169 -0.182115
v 0.105500 0.044545 -0.183343
v 0.106710 0.048914 -0.184273
v 0.106154 0.046884 -0.183846
v 0.091842 0.036248 -0.194318
v 0.090922 0.033256 -0.193395
v 0.089924 0.030259 -0.192395
v 0.100810 0.030259 -0.179738
v 0.101929 0.033256 -0.180598
v 0.102961 0.036248 -0.181392
v 0.130787 0.050578 -0.137122
v 0.131232 0.051901 -0.137240
v 0.131572 0.052908 -0.137331
v 0.117697 0.052908 -0.170202
v 0.125671 0.052908 -0.154181
v 0.117393 0.051901 -0.170026
v 0.125346 0.051901 -0.154047
v 0.116995 0.050578 -0.169797
v 0.124922 0.050578 -0.153871
v 0.096167 0.052908 -0.198654
v 0.095919 0.051901 -0.198405
v 0.095594 0.050578 -0.198079
v 0.107166 0.050578 -0.184624
v 0.107531 0.051901 -0.184904
v 0.107810 0.052908 -0.185119
vt 0.073568 0.402535
vt 0.056871 0.376459
vt 0.059692 0.374897
vt 0.076160 0.400618
vt 0.063033 0.373047
vt 0.079230 0.398346
vt 0.093424 0.426202
vt 0.095743 0.423961
vt 0.098490 0.421308
vt 0.070882 0.368700
vt 0.086443 0.393010
vt 0.082687 0.395788
vt 0.066795 0.370964
vt 0.104942 0.415075
vt 0.101583 0.418321
vt 0.043638 0.348466
vt 0.046639 0.347286
vt 0.034125 0.319077
vt 0.037255 0.318299
vt 0.050194 0.345890
vt 0.040961 0.317379
vt 0.058543 0.342606
vt 0.054196 0.344316
vt 0.049666 0.315215
vt 0.045134 0.316341
vt 0.072664 0.337054
vt 0.084157 0.361347
vt 0.079653 0.363840
vt 0.067874 0.338938
vt 0.064387 0.311556
vt 0.059394 0.312797
vt 0.063135 0.340800
vt 0.075199 0.366308
vt 0.054454 0.314025
vt 0.098640 0.383983
vt 0.094502 0.387045
vt 0.115851 0.404535
vt 0.112150 0.408110
vt 0.090409 0.390075
vt 0.108490 0.411647
vt 0.523404 0.158418
vt 0.533687 0.133685
vt 0.534220 0.133947
vt 0.523966 0.158608
vt 0.534846 0.134254
vt 0.524628 0.158829
vt 0.516300 0.184179
vt 0.516883 0.184292
vt 0.517569 0.184426
vt 0.535997 0.134818
vt 0.525844 0.159238
vt 0.525288 0.159051
vt 0.535471 0.134561
vt 0.518830 0.184673
vt 0.518253 0.184560
vt 0.546941 0.110409
vt 0.547435 0.110738
vt 0.562954 0.089016
vt 0.563402 0.089409
vt 0.548016 0.111125
vt 0.563928 0.089870
vt 0.549083 0.111837
vt 0.548595 0.111511
vt 0.564894 0.090715
vt 0.564452 0.090327
vt 0.051038 0.379688
vt 0.051828 0.379249
vt 0.068932 0.405961
vt 0.068207 0.406499
vt 0.053013 0.378594
vt 0.070022 0.405157
vt 0.089276 0.430204
vt 0.088626 0.430831
vt 0.090251 0.429263
vt 0.054670 0.377679
vt 0.071544 0.404032
vt 0.091613 0.427950
vt 0.533345 0.133517
vt 0.546623 0.110197
vt 0.533155 0.133426
vt 0.546447 0.110081
vt 0.562666 0.088766
vt 0.562507 0.088626
vt 0.050566 0.379948
vt 0.067772 0.406819
vt 0.088238 0.431206
vt 0.050333 0.380077
vt 0.067558 0.406976
vt 0.088046 0.431390
vt 0.036931 0.351101
vt 0.037434 0.350905
vt 0.036684 0.351201
vt 0.027131 0.320813
vt 0.027654 0.320682
vt 0.026873 0.320880
vt 0.523042 0.158297
vt 0.515924 0.184105
vt 0.522841 0.158229
vt 0.515717 0.184064
vt 0.041296 0.349386
vt 0.039534 0.350079
vt 0.031683 0.319683
vt 0.029845 0.320138
vt 0.038273 0.350574
vt 0.028531 0.320465
vt 0.536331 0.134981
vt 0.526196 0.159357
vt 0.468465 0.870869
vt 0.468220 0.870714
vt 0.483059 0.843542
vt 0.483322 0.843661
vt 0.519195 0.184743
vt 0.494274 0.814755
vt 0.494551 0.814840
vt 0.467870 0.870491
vt 0.467273 0.870114
vt 0.482041 0.843071
vt 0.482682 0.843367
vt 0.493203 0.814423
vt 0.493877 0.814633
vt 0.449722 0.895508
vt 0.449181 0.895056
vt 0.450041 0.895774
vt 0.428567 0.917948
vt 0.428088 0.917430
vt 0.428848 0.918255
vt 0.549393 0.112042
vt 0.565174 0.090960
vt 0.450262 0.895960
vt 0.429043 0.918469
vt 0.448346 0.858144
vt 0.444491 0.855708
vt 0.457576 0.831762
vt 0.461715 0.833676
vt 0.440512 0.853189
vt 0.453302 0.829786
vt 0.467473 0.806404
vt 0.471825 0.807760
vt 0.462979 0.805006
vt 0.436480 0.850639
vt 0.448971 0.827785
vt 0.458425 0.803588
vt 0.461093 0.866206
vt 0.458442 0.864530
vt 0.472557 0.838688
vt 0.475404 0.840004
vt 0.455388 0.862599
vt 0.469277 0.837172
vt 0.483227 0.811315
vt 0.486222 0.812247
vt 0.479778 0.810239
vt 0.452000 0.860456
vt 0.465639 0.835489
vt 0.475952 0.809047
vt 0.435299 0.883488
vt 0.431978 0.880720
vt 0.438378 0.886054
vt 0.415837 0.904148
vt 0.412906 0.900971
vt 0.418554 0.907095
vt 0.443563 0.890376
vt 0.441153 0.888368
vt 0.423131 0.912055
vt 0.421003 0.909751
vt 0.424859 0.874784
vt 0.421196 0.871729
vt 0.406626 0.894157
vt 0.403394 0.890651
vt 0.428476 0.877799
vt 0.409817 0.897618
vt 0.466329 0.869518
vt 0.481028 0.842604
vt 0.465005 0.868680
vt 0.479607 0.841946
vt 0.492137 0.814092
vt 0.490642 0.813625
vt 0.463270 0.867583
vt 0.477743 0.841085
vt 0.488682 0.813014
vt 0.445543 0.892025
vt 0.447120 0.893339
vt 0.424877 0.913949
vt 0.426269 0.915459
vt 0.448322 0.894342
vt 0.427332 0.916609
vn 0.7542 -0.3247 -0.5708
vn 0.8191 -0.3245 -0.4729
vn 0.8180 -0.3282 -0.4723
vn 0.7531 -0.3284 -0.5700
vn 0.8155 -0.3366 -0.4708
vn 0.7508 -0.3367 -0.5682
vn 0.7172 -0.3242 -0.6168
vn 0.7162 -0.3279 -0.6160
vn 0.7140 -0.3363 -0.6141
vn 0.8068 -0.3633 -0.4658
vn 0.7428 -0.3635 -0.5622
vn 0.7474 -0.3485 -0.5656
vn 0.8118 -0.3483 -0.4687
vn 0.7064 -0.3630 -0.6076
vn 0.7107 -0.3480 -0.6113
vn 0.8714 -0.3247 -0.3677
vn 0.8702 -0.3284 -0.3672
vn 0.8928 -0.3242 -0.3126
vn 0.8916 -0.3279 -0.3122
vn 0.8675 -0.3367 -0.3661
vn 0.8888 -0.3363 -0.3113
vn 0.8583 -0.3635 -0.3622
vn 0.8636 -0.3485 -0.3644
vn 0.8794 -0.3630 -0.3080
vn 0.8848 -0.3480 -0.3098
vn 0.8374 -0.4168 -0.3535
vn 0.7873 -0.4166 -0.4545
vn 0.7921 -0.4042 -0.4573
vn 0.8426 -0.4043 -0.3556
vn 0.8581 -0.4163 -0.3005
vn 0.8634 -0.4038 -0.3023
vn 0.8515 -0.3819 -0.3593
vn 0.8004 -0.3817 -0.4621
vn 0.8725 -0.3814 -0.3055
vn 0.7248 -0.4168 -0.5484
vn 0.7293 -0.4043 -0.5519
vn 0.6893 -0.4163 -0.5929
vn 0.6936 -0.4038 -0.5965
vn 0.7369 -0.3819 -0.5577
vn 0.7008 -0.3814 -0.6028
vn 0.0016 1.0000 -0.0007
vn 0.0015 1.0000 -0.0009
vn -0.0090 0.9999 0.0052
vn -0.0096 0.9999 0.0041
vn -0.0209 0.9997 0.0121
vn -0.0222 0.9997 0.0094
vn 0.0017 1.0000 -0.0006
vn -0.0098 0.9999 0.0034
vn -0.0228 0.9997 0.0080
vn -0.0869 0.9949 0.0502
vn -0.0924 0.9949 0.0390
vn -0.0430 0.9989 0.0181
vn -0.0404 0.9989 0.0233
vn -0.0945 0.9950 0.0331
vn -0.0440 0.9989 0.0154
vn 0.0014 1.0000 -0.0011
vn -0.0083 0.9999 0.0063
vn 0.0014 1.0000 -0.0012
vn -0.0079 0.9999 0.0068
vn -0.0193 0.9997 0.0146
vn -0.0183 0.9997 0.0157
vn -0.0800 0.9949 0.0605
vn -0.0372 0.9989 0.0281
vn -0.0759 0.9950 0.0653
vn -0.0353 0.9989 0.0304
vn 0.8334 -0.2717 -0.4812
vn 0.8250 -0.3041 -0.4763
vn 0.7596 -0.3042 -0.5749
vn 0.7673 -0.2719 -0.5807
vn 0.8213 -0.3170 -0.4742
vn 0.7562 -0.3171 -0.5723
vn 0.7223 -0.3038 -0.6213
vn 0.7297 -0.2714 -0.6276
vn 0.7191 -0.3167 -0.6185
vn 0.8198 -0.3224 -0.4733
vn 0.7547 -0.3226 -0.5712
vn 0.7177 -0.3221 -0.6173
vn 0.2047 0.9716 -0.1182
vn 0.1885 0.9716 -0.1426
vn 0.7232 0.5500 -0.4176
vn 0.6659 0.5501 -0.5040
vn 0.1809 0.9711 -0.1556
vn 0.6345 0.5473 -0.5457
vn 0.8624 -0.0909 -0.4979
vn 0.7940 -0.0909 -0.6010
vn 0.7550 -0.0906 -0.6494
vn 0.9175 -0.0909 -0.3871
vn 0.8866 -0.2718 -0.3742
vn 0.7694 0.5500 -0.3246
vn 0.9399 -0.0906 -0.3291
vn 0.9084 -0.2714 -0.3181
vn 0.7899 0.5472 -0.2766
vn 0.2178 0.9716 -0.0920
vn 0.2252 0.9711 -0.0789
vn 0.8720 -0.3226 -0.3680
vn 0.8737 -0.3171 -0.3687
vn 0.8935 -0.3222 -0.3129
vn 0.8952 -0.3167 -0.3135
vn 0.8776 -0.3042 -0.3704
vn 0.8992 -0.3038 -0.3149
vn -0.3067 0.9352 0.1771
vn -0.3261 0.9353 0.1375
vn -0.6407 0.6728 0.3699
vn -0.6814 0.6730 0.2876
vn -0.3329 0.9357 0.1166
vn -0.6977 0.6735 0.2443
vn -0.7906 0.4082 0.4564
vn -0.8154 0.3370 0.4707
vn -0.8674 0.3371 0.3660
vn -0.8410 0.4084 0.3549
vn -0.8887 0.3367 0.3112
vn -0.8616 0.4081 0.3017
vn -0.7278 0.4084 0.5508
vn -0.7507 0.3371 0.5681
vn -0.5898 0.6730 0.4463
vn -0.6921 0.4081 0.5953
vn -0.7139 0.3367 0.6140
vn -0.5604 0.6734 0.4820
vn -0.2822 0.9353 0.2136
vn -0.2674 0.9357 0.2300
vn -0.8056 0.3670 0.4651
vn -0.7984 0.3873 0.4610
vn -0.8493 0.3875 0.3584
vn -0.8570 0.3671 0.3616
vn -0.7891 0.4121 0.4555
vn -0.8394 0.4122 0.3542
vn -0.8702 0.3870 0.3048
vn -0.8780 0.3666 0.3075
vn -0.8601 0.4117 0.3012
vn -0.7836 0.4258 0.4524
vn -0.8335 0.4260 0.3518
vn -0.8541 0.4255 0.2991
vn -0.8185 0.3266 0.4726
vn -0.8177 0.3294 0.4721
vn -0.8698 0.3295 0.3671
vn -0.8707 0.3267 0.3674
vn -0.8151 0.3378 0.4706
vn -0.8671 0.3379 0.3659
vn -0.8912 0.3291 0.3121
vn -0.8921 0.3263 0.3124
vn -0.8884 0.3375 0.3111
vn -0.8111 0.3505 0.4683
vn -0.8628 0.3507 0.3641
vn -0.8840 0.3502 0.3096
vn -0.7467 0.3506 0.5651
vn -0.7417 0.3671 0.5613
vn -0.7505 0.3379 0.5679
vn -0.7101 0.3502 0.6108
vn -0.7053 0.3666 0.6067
vn -0.7136 0.3375 0.6138
vn -0.7536 0.3267 0.5703
vn -0.7528 0.3295 0.5698
vn -0.7166 0.3263 0.6164
vn -0.7159 0.3291 0.6158
vn -0.7265 0.4122 0.5498
vn -0.7215 0.4260 0.5459
vn -0.6909 0.4117 0.5943
vn -0.6861 0.4255 0.5901
vn -0.7351 0.3875 0.5563
vn -0.6991 0.3870 0.6013
vn -0.8171 0.3314 0.4717
vn -0.8692 0.3316 0.3668
vn -0.8179 0.3288 0.4722
vn -0.8700 0.3289 0.3672
vn -0.8905 0.3311 0.3119
vn -0.8914 0.3285 0.3121
vn -0.8183 0.3274 0.4724
vn -0.8705 0.3275 0.3674
vn -0.8919 0.3271 0.3123
vn -0.7534 0.3275 0.5702
vn -0.7530 0.3289 0.5699
vn -0.7164 0.3271 0.6162
vn -0.7161 0.3285 0.6159
vn -0.7523 0.3316 0.5693
vn -0.7154 0.3311 0.6153
usemtl pan_Mat
s 1
f 4/1/1 5/2/2 6/3/3 7/4/4
f 7/4/4 6/3/3 8/5/5 9/6/6
f 1/7/7 4/1/1 7/4/4 2/8/8
f 2/8/8 7/4/4 9/6/6 3/9/9
f 10/10/10 11/11/11 12/12/12 13/13/13
f 11/11/11 14/14/14 15/15/15 12/12/12
f 13/13/13 12/12/12 9/6/6 8/5/5
f 12/12/12 15/15/15 3/9/9 9/6/6
f 5/2/2 16/16/16 17/17/17 6/3/3
f 16/16/16 18/18/18 19/19/19 17/17/17
f 6/3/3 17/17/17 20/20/20 8/5/5
f 17/17/17 19/19/19 21/21/21 20/20/20
f 24/22/22 10/10/10 13/13/13 25/23/23
f 25/23/23 13/13/13 8/5/5 20/20/20
f 22/24/24 24/22/22 25/23/23 23/25/25
f 23/25/25 25/23/23 20/20/20 21/21/21
f 29/26/26 28/27/27 30/28/28 31/29/29
f 26/30/30 29/26/26 31/29/29 27/31/31
f 10/10/10 24/22/22 32/32/32 33/33/33
f 24/22/22 22/24/24 34/34/34 32/32/32
f 33/33/33 32/32/32 31/29/29 30/28/28
f 32/32/32 34/34/34 27/31/31 31/29/29
f 28/27/27 35/35/35 37/36/36 30/28/28
f 35/35/35 36/37/37 38/38/38 37/36/36
f 11/11/11 10/10/10 33/33/33 40/39/39
f 40/39/39 33/33/33 30/28/28 37/36/36
f 14/14/14 11/11/11 40/39/39 39/40/40
f 39/40/40 40/39/39 37/36/36 38/38/38
f 44/41/41 45/42/42 46/43/43 47/44/44
f 47/44/44 46/43/43 48/45/45 49/46/46
f 41/47/47 44/41/41 47/44/44 42/48/48
f 42/48/48 47/44/44 49/46/46 43/49/49
f 50/50/50 51/51/51 52/52/52 53/53/53
f 51/51/51 54/54/54 55/55/55 52/52/52
f 53/53/53 52/52/52 49/46/46 48/45/45
f 52/52/52 55/55/55 43/49/49 49/46/46
f 45/42/42 56/56/56 57/57/57 46/43/43
f 56/56/56 58/58/58 59/59/59 57/57/57
f 46/43/43 57/57/57 60/60/60 48/45/45
f 57/57/57 59/59/59 61/61/61 60/60/60
f 64/62/62 50/50/50 53/53/53 65/63/63
f 65/63/63 53/53/53 48/45/45 60/60/60
f 62/64/64 64/62/62 65/63/63 63/65/65
f 63/65/65 65/63/63 60/60/60 61/61/61
f 70/66/66 71/67/67 72/68/68 73/69/69
f 71/67/67 74/70/70 75/71/71 72/68/68
f 73/69/69 72/68/68 69/72/72 68/73/73
f 72/68/68 75/71/71 67/74/74 69/72/72
f 76/75/75 5/2/2 4/1/1 77/76/76
f 77/76/76 4/1/1 1/7/7 66/77/77
f 74/70/70 76/75/75 77/76/76 75/71/71
f 75/71/71 77/76/76 66/77/77 67/74/74
f 45/42/42 81/78/78 82/79/79 56/56/56
f 81/78/78 83/80/80 84/81/81 82/79/79
f 56/56/56 82/79/79 80/82/82 58/58/58
f 82/79/79 84/81/81 79/83/83 80/82/82
f 85/84/84 70/66/66 73/69/69 86/85/85
f 86/85/85 73/69/69 68/73/73 78/86/86
f 83/87/80 85/84/84 86/85/85 84/88/81
f 84/88/81 86/85/85 78/86/86 79/89/83
f 70/66/66 85/84/84 91/90/87 92/91/88
f 85/84/84 83/87/80 93/92/89 91/90/87
f 92/91/88 91/90/87 90/93/90 89/94/91
f 91/90/87 93/92/89 88/95/92 90/93/90
f 81/78/78 45/42/42 44/41/41 94/96/93
f 94/96/93 44/41/41 41/47/47 87/97/94
f 83/80/80 81/78/78 94/96/93 93/98/89
f 93/98/89 94/96/93 87/97/94 88/99/92
f 5/2/2 76/75/75 98/100/95 16/16/16
f 76/75/75 74/70/70 99/101/96 98/100/95
f 16/16/16 98/100/95 97/102/97 18/18/18
f 98/100/95 99/101/96 96/103/98 97/102/97
f 71/67/67 70/66/66 92/91/88 100/104/99
f 100/104/99 92/91/88 89/94/91 95/105/100
f 74/70/70 71/67/67 100/104/99 99/101/96
f 99/101/96 100/104/99 95/105/100 96/103/98
f 50/50/50 105/106/101 106/107/102 51/51/51
f 105/108/101 107/109/103 108/110/104 106/111/102
f 51/51/51 106/107/102 104/112/105 54/54/54
f 106/111/102 108/110/104 103/113/106 104/114/105
f 109/115/107 110/116/108 111/117/109 112/118/110
f 112/118/110 111/117/109 102/119/111 101/120/112
f 107/109/103 109/115/107 112/118/110 108/110/104
f 108/110/104 112/118/110 101/120/112 103/113/106
f 110/116/108 109/115/107 117/121/113 118/122/114
f 109/115/107 107/109/103 119/123/115 117/121/113
f 118/122/114 117/121/113 116/124/116 115/125/117
f 117/121/113 119/123/115 114/126/118 116/124/116
f 105/106/101 50/50/50 64/62/62 120/127/119
f 120/127/119 64/62/62 62/64/64 113/128/120
f 107/109/103 105/108/101 120/129/119 119/123/115
f 119/123/115 120/129/119 113/130/120 114/126/118
f 125/131/121 126/132/122 127/133/123 128/134/124
f 126/132/122 129/135/125 130/136/126 127/133/123
f 128/134/124 127/133/123 124/137/127 123/138/128
f 127/133/123 130/136/126 122/139/129 124/137/127
f 129/135/125 131/140/130 132/141/131 130/136/126
f 130/136/126 132/141/131 121/142/132 122/139/129
f 137/143/133 138/144/134 139/145/135 140/146/136
f 138/144/134 141/147/137 142/148/138 139/145/135
f 140/146/136 139/145/135 136/149/139 135/150/140
f 139/145/135 142/148/138 134/151/141 136/149/139
f 143/152/142 125/131/121 128/134/124 144/153/143
f 144/153/143 128/134/124 123/138/128 133/154/144
f 141/147/137 143/152/142 144/153/143 142/148/138
f 142/148/138 144/153/143 133/154/144 134/151/141
f 125/131/121 143/152/142 150/155/145 151/156/146
f 143/152/142 141/147/137 152/157/147 150/155/145
f 151/156/146 150/155/145 149/158/148 148/159/149
f 150/155/145 152/157/147 147/160/150 149/158/148
f 138/144/134 137/143/133 153/161/151 154/162/152
f 154/162/152 153/161/151 146/163/153 145/164/154
f 141/147/137 138/144/134 154/162/152 152/157/147
f 152/157/147 154/162/152 145/164/154 147/160/150
f 131/140/130 129/135/125 159/165/155 158/166/156
f 158/166/156 159/165/155 156/167/157 157/168/158
f 126/132/122 125/131/121 151/156/146 160/169/159
f 160/169/159 151/156/146 148/159/149 155/170/160
f 129/135/125 126/132/122 160/169/159 159/165/155
f 159/165/155 160/169/159 155/170/160 156/167/157
f 110/116/108 164/171/161 165/172/162 111/117/109
f 164/171/161 166/173/163 167/174/164 165/172/162
f 111/117/109 165/172/162 163/175/165 102/119/111
f 165/172/162 167/174/164 162/176/166 163/175/165
f 168/177/167 137/143/133 140/146/136 169/178/168
f 169/178/168 140/146/136 135/150/140 161/179/169
f 166/173/163 168/177/167 169/178/168 167/174/164
f 167/174/164 169/178/168 161/179/169 162/176/166
f 137/143/133 168/177/167 173/180/170 153/161/151
f 168/177/167 166/173/163 174/181/171 173/180/170
f 153/161/151 173/180/170 172/182/172 146/163/153
f 173/180/170 174/181/171 171/183/173 172/182/172
f 164/171/161 110/116/108 118/122/114 175/184/174
f 175/184/174 118/122/114 115/125/117 170/185/175
f 166/173/163 164/171/161 175/184/174 174/181/171
f 174/181/171 175/184/174 170/185/175 171/183/173
