# Blender v3.3.0 OBJ File: 'separated_pan.blend'
# www.blender.org
mtllib pan_08.mtl
o pan_08_pan_00.011
v 0.336791 0.090585 -0.055628
v 0.337918 0.091709 -0.052445
v 0.324041 0.101551 -0.055628
v 0.309991 0.110865 -0.055628
v 0.310785 0.112241 -0.052445
v 0.325010 0.102812 -0.052445
v 0.294899 0.118376 -0.055628
v 0.295507 0.119846 -0.052445
v 0.279028 0.123934 -0.055628
v 0.279438 0.125473 -0.052445
v 0.274131 0.105570 -0.079191
v 0.300506 0.094437 -0.079191
v 0.287651 0.100835 -0.079191
v 0.274463 0.106815 -0.078372
v 0.274795 0.108062 -0.077374
v 0.275505 0.110723 -0.074757
v 0.275139 0.109351 -0.076176
v 0.303168 0.099047 -0.074757
v 0.302459 0.097820 -0.076176
v 0.289144 0.104447 -0.076176
v 0.289685 0.105758 -0.074757
v 0.301793 0.096666 -0.077374
v 0.288635 0.103216 -0.077374
v 0.301149 0.095551 -0.078372
v 0.288142 0.102024 -0.078372
v 0.326106 0.079926 -0.076176
v 0.327111 0.080929 -0.074757
v 0.325161 0.078983 -0.077374
v 0.323335 0.077162 -0.079191
v 0.324247 0.078072 -0.078372
v 0.313259 0.087523 -0.078372
v 0.312474 0.086503 -0.079191
v 0.314044 0.088545 -0.077374
v 0.315720 0.090726 -0.074757
v 0.314856 0.089602 -0.076176
v 0.325964 0.079785 -0.070909
v 0.324534 0.078358 -0.072429
v 0.327377 0.081194 -0.069162
v 0.330119 0.083929 -0.065044
v 0.328764 0.082578 -0.067203
v 0.305288 0.102719 -0.065044
v 0.304333 0.101066 -0.067203
v 0.317142 0.092575 -0.067203
v 0.318306 0.094090 -0.065044
v 0.303355 0.099372 -0.069162
v 0.315949 0.091024 -0.069162
v 0.302359 0.097647 -0.070909
v 0.301351 0.095901 -0.072429
v 0.313505 0.087844 -0.072429
v 0.314735 0.089444 -0.070909
v 0.331432 0.085239 -0.062702
v 0.332698 0.086502 -0.060190
v 0.335053 0.088851 -0.054713
v 0.333907 0.087708 -0.057522
v 0.308766 0.108743 -0.054713
v 0.307958 0.107344 -0.057522
v 0.321562 0.098326 -0.057522
v 0.322547 0.099608 -0.054713
v 0.307106 0.105868 -0.060190
v 0.320523 0.096974 -0.060190
v 0.306214 0.104323 -0.062702
v 0.319435 0.095559 -0.062702
v 0.277978 0.119999 -0.057522
v 0.278395 0.121563 -0.054713
v 0.277538 0.118348 -0.060190
v 0.276600 0.114828 -0.065044
v 0.277078 0.116621 -0.062702
v 0.292013 0.111391 -0.062702
v 0.291305 0.109678 -0.065044
v 0.292695 0.113040 -0.060190
v 0.293963 0.116111 -0.054713
v 0.293346 0.114617 -0.057522
v 0.276107 0.112980 -0.067203
v 0.275602 0.111087 -0.069162
v 0.274567 0.107206 -0.072429
v 0.275088 0.109159 -0.070909
v 0.289067 0.104263 -0.070909
v 0.288297 0.102398 -0.072429
v 0.289828 0.106105 -0.069162
v 0.290576 0.107913 -0.067203
v 0.321663 0.075494 -0.074768
v 0.323093 0.076921 -0.073707
v 0.300335 0.094142 -0.073707
v 0.312267 0.086233 -0.073707
v 0.299328 0.092396 -0.074768
v 0.311037 0.084634 -0.074768
v 0.274043 0.105240 -0.073707
v 0.273523 0.103288 -0.074768
v 0.286750 0.098656 -0.074768
v 0.287521 0.100520 -0.073707
v 0.336128 0.089924 -0.051777
v 0.309524 0.110056 -0.051777
v 0.323471 0.100810 -0.051777
v 0.278786 0.123030 -0.051777
v 0.294542 0.117512 -0.051777
v 0.335600 0.089397 -0.058663
v 0.334366 0.088166 -0.061537
v 0.331842 0.085649 -0.066759
v 0.333107 0.086910 -0.064240
v 0.306503 0.104824 -0.066759
v 0.307394 0.106368 -0.064240
v 0.320875 0.097432 -0.064240
v 0.319788 0.096017 -0.066759
v 0.308282 0.107905 -0.061537
v 0.321957 0.098840 -0.061537
v 0.309152 0.109412 -0.058662
v 0.323018 0.100220 -0.058662
v 0.330591 0.084401 -0.069082
v 0.329373 0.083185 -0.071198
v 0.328206 0.082022 -0.073093
v 0.303940 0.100385 -0.073093
v 0.316662 0.091951 -0.073093
v 0.304762 0.101809 -0.071198
v 0.317665 0.093256 -0.071198
v 0.305621 0.103296 -0.069082
v 0.318712 0.094618 -0.069082
v 0.275904 0.112219 -0.073093
v 0.276328 0.113811 -0.071198
v 0.277227 0.117181 -0.066759
v 0.276772 0.115473 -0.069082
v 0.291560 0.110295 -0.069082
v 0.292234 0.111926 -0.066759
v 0.290904 0.108706 -0.071198
v 0.290275 0.107186 -0.073093
v 0.277687 0.118907 -0.064240
v 0.278145 0.120625 -0.061537
v 0.278594 0.122310 -0.058662
v 0.294258 0.116824 -0.058662
v 0.293593 0.115215 -0.061537
v 0.292915 0.113574 -0.064240
vt 0.418614 0.386658
vt 0.433524 0.365107
vt 0.437899 0.367738
vt 0.422605 0.389838
vt 0.401120 0.406082
vt 0.404661 0.409755
vt 0.445581 0.341841
vt 0.450262 0.343877
vt 0.454550 0.317290
vt 0.459455 0.318695
vt 0.404695 0.347751
vt 0.402249 0.346278
vt 0.412113 0.327271
vt 0.414733 0.328412
vt 0.400063 0.344962
vt 0.409775 0.326253
vt 0.419480 0.307222
vt 0.422225 0.308011
vt 0.417028 0.306519
vt 0.398074 0.343766
vt 0.396213 0.342645
vt 0.405656 0.324461
vt 0.407647 0.325327
vt 0.412711 0.305281
vt 0.414799 0.305880
vt 0.386268 0.360861
vt 0.384571 0.359506
vt 0.388083 0.362307
vt 0.372437 0.376288
vt 0.370931 0.374723
vt 0.374046 0.377960
vt 0.392312 0.365678
vt 0.390077 0.363898
vt 0.377797 0.381853
vt 0.375815 0.379797
vt 0.113979 0.826382
vt 0.117631 0.824465
vt 0.129342 0.843716
vt 0.125974 0.846095
vt 0.121138 0.822625
vt 0.132577 0.841431
vt 0.143360 0.861284
vt 0.140332 0.864082
vt 0.146268 0.858596
vt 0.124492 0.820862
vt 0.127691 0.819183
vt 0.138622 0.837161
vt 0.135672 0.839244
vt 0.151701 0.853572
vt 0.149050 0.856024
vt 0.098141 0.834694
vt 0.102261 0.832532
vt 0.115163 0.853724
vt 0.111362 0.856408
vt 0.106282 0.830421
vt 0.118873 0.851107
vt 0.130616 0.873057
vt 0.127198 0.876212
vt 0.133950 0.869978
vt 0.110192 0.828368
vt 0.122480 0.848561
vt 0.137193 0.866982
vt 0.100546 0.806791
vt 0.104560 0.805317
vt 0.096401 0.808312
vt 0.093731 0.784222
vt 0.097903 0.783285
vt 0.089425 0.785188
vt 0.087771 0.811482
vt 0.092138 0.809878
vt 0.080458 0.787202
vt 0.084996 0.786182
vt 0.115706 0.801225
vt 0.119097 0.799981
vt 0.112149 0.802530
vt 0.109486 0.780688
vt 0.113010 0.779897
vt 0.105790 0.781516
vt 0.108430 0.803895
vt 0.101925 0.782383
vt 0.130729 0.817589
vt 0.141424 0.835180
vt 0.133611 0.816076
vt 0.144083 0.833300
vt 0.154221 0.851241
vt 0.156611 0.849028
vt 0.122318 0.798798
vt 0.116361 0.779148
vt 0.125377 0.797677
vt 0.119539 0.778437
vt 0.093933 0.836901
vt 0.107479 0.859146
vt 0.123708 0.879433
vt 0.083312 0.813120
vt 0.075825 0.788243
vt 0.417420 0.355411
vt 0.421194 0.357683
vt 0.407364 0.377682
vt 0.403922 0.374937
vt 0.425150 0.360066
vt 0.410974 0.380563
vt 0.391146 0.395717
vt 0.388094 0.392546
vt 0.394348 0.399043
vt 0.429268 0.362545
vt 0.414732 0.383560
vt 0.397678 0.402505
vt 0.407465 0.349418
vt 0.394840 0.367693
vt 0.410529 0.351262
vt 0.397634 0.369921
vt 0.380039 0.384181
vt 0.382518 0.386755
vt 0.413857 0.353265
vt 0.400670 0.372342
vt 0.385210 0.389551
vt 0.424535 0.332678
vt 0.428348 0.334340
vt 0.420975 0.331128
vt 0.432496 0.310960
vt 0.436492 0.312106
vt 0.428765 0.309888
vt 0.417696 0.329702
vt 0.425331 0.308903
vt 0.441027 0.339859
vt 0.436621 0.337940
vt 0.449778 0.315919
vt 0.445161 0.314595
vt 0.432386 0.336098
vt 0.440723 0.313320
vn 0.5342 0.7058 -0.4653
vn 0.4426 0.7666 -0.4651
vn 0.4473 0.7748 -0.4468
vn 0.5399 0.7132 -0.4470
vn 0.5774 0.6713 -0.4647
vn 0.5835 0.6784 -0.4464
vn 0.3442 0.8155 -0.4653
vn 0.3477 0.8242 -0.4470
vn 0.2927 0.8357 -0.4647
vn 0.2958 0.8445 -0.4464
vn 0.3604 0.6242 -0.6932
vn 0.3445 0.5967 -0.7248
vn 0.2678 0.6346 -0.7250
vn 0.2802 0.6639 -0.6934
vn 0.3209 0.5558 -0.7669
vn 0.2495 0.5911 -0.7671
vn 0.2279 0.6507 -0.7243
vn 0.2383 0.6806 -0.6928
vn 0.2123 0.6062 -0.7664
vn 0.2884 0.4995 -0.8169
vn 0.2688 0.4655 -0.8432
vn 0.2091 0.4950 -0.8434
vn 0.2242 0.5312 -0.8170
vn 0.1778 0.5077 -0.8430
vn 0.1908 0.5450 -0.8165
vn 0.3479 0.4598 -0.8170
vn 0.3242 0.4286 -0.8434
vn 0.3872 0.5116 -0.7671
vn 0.3765 0.4378 -0.8165
vn 0.3508 0.4078 -0.8430
vn 0.4189 0.4870 -0.7664
vn 0.4348 0.5746 -0.6934
vn 0.4157 0.5492 -0.7250
vn 0.4703 0.5467 -0.6928
vn 0.4496 0.5227 -0.7243
vn -0.3837 -0.6646 0.6411
vn -0.3646 -0.6316 0.6842
vn -0.4400 -0.5814 0.6844
vn -0.4630 -0.6118 0.6413
vn -0.3423 -0.5929 0.7288
vn -0.4131 -0.5458 0.7290
vn -0.4759 -0.5532 0.6837
vn -0.5007 -0.5821 0.6406
vn -0.4468 -0.5195 0.7284
vn -0.3160 -0.5473 0.7750
vn -0.2844 -0.4926 0.8224
vn -0.3432 -0.4535 0.8226
vn -0.3812 -0.5037 0.7752
vn -0.3714 -0.4318 0.8220
vn -0.4125 -0.4795 0.7746
vn -0.4391 -0.7605 0.4784
vn -0.4276 -0.7406 0.5183
vn -0.5160 -0.6818 0.5185
vn -0.5299 -0.7001 0.4785
vn -0.4148 -0.7184 0.5585
vn -0.5005 -0.6613 0.5587
vn -0.5579 -0.6486 0.5178
vn -0.5728 -0.6660 0.4779
vn -0.5411 -0.6291 0.5580
vn -0.4003 -0.6933 0.5993
vn -0.4830 -0.6382 0.5995
vn -0.5223 -0.6072 0.5988
vn -0.3112 -0.7374 0.5995
vn -0.2983 -0.7069 0.6413
vn -0.3225 -0.7641 0.5587
vn -0.2647 -0.7559 0.5988
vn -0.2538 -0.7247 0.6406
vn -0.2743 -0.7832 0.5580
vn -0.3414 -0.8090 0.4785
vn -0.3325 -0.7878 0.5185
vn -0.2903 -0.8290 0.4779
vn -0.2828 -0.8074 0.5178
vn -0.2456 -0.5820 0.7752
vn -0.2211 -0.5239 0.8226
vn -0.2661 -0.6306 0.7290
vn -0.2091 -0.5970 0.7746
vn -0.1882 -0.5375 0.8220
vn -0.2265 -0.6467 0.7284
vn -0.2835 -0.6717 0.6844
vn -0.2412 -0.6887 0.6837
vn -0.2503 -0.4336 0.8656
vn -0.3020 -0.3991 0.8657
vn -0.2328 -0.4033 0.8850
vn -0.2808 -0.3712 0.8851
vn -0.3269 -0.3801 0.8653
vn -0.3039 -0.3533 0.8848
vn -0.1946 -0.4611 0.8657
vn -0.1657 -0.4731 0.8653
vn -0.1811 -0.4288 0.8851
vn -0.1540 -0.4398 0.8848
vn -0.4443 -0.7696 0.4587
vn -0.5363 -0.7084 0.4588
vn -0.5796 -0.6738 0.4583
vn -0.3454 -0.8187 0.4588
vn -0.2938 -0.8388 0.4583
vn 0.4034 0.6986 -0.5909
vn 0.4132 0.7157 -0.5631
vn 0.4986 0.6589 -0.5632
vn 0.4867 0.6431 -0.5911
vn 0.4230 0.7327 -0.5331
vn 0.5105 0.6745 -0.5333
vn 0.5391 0.6268 -0.5626
vn 0.5263 0.6118 -0.5905
vn 0.5519 0.6416 -0.5327
vn 0.4328 0.7497 -0.5006
vn 0.5223 0.6902 -0.5008
vn 0.5647 0.6565 -0.5002
vn 0.3722 0.6447 -0.6676
vn 0.4492 0.5935 -0.6678
vn 0.3831 0.6635 -0.6426
vn 0.4623 0.6108 -0.6428
vn 0.4857 0.5647 -0.6672
vn 0.4999 0.5812 -0.6422
vn 0.3934 0.6813 -0.6173
vn 0.4747 0.6272 -0.6175
vn 0.5133 0.5967 -0.6168
vn 0.3058 0.7247 -0.6175
vn 0.3136 0.7431 -0.5911
vn 0.2978 0.7058 -0.6428
vn 0.2601 0.7429 -0.6168
vn 0.2667 0.7617 -0.5905
vn 0.2534 0.7235 -0.6422
vn 0.2894 0.6858 -0.6678
vn 0.2462 0.7030 -0.6672
vn 0.3365 0.7974 -0.5008
vn 0.3289 0.7794 -0.5333
vn 0.2862 0.8173 -0.5002
vn 0.2797 0.7988 -0.5327
vn 0.3213 0.7613 -0.5632
vn 0.2732 0.7803 -0.5626
usemtl pan_Mat
s 1
f 3/1/1 4/2/2 5/3/3 6/4/4
f 1/5/5 3/1/1 6/4/4 2/6/6
f 4/2/2 7/7/7 8/8/8 5/3/3
f 7/7/7 9/9/9 10/10/10 8/8/8
f 18/11/11 19/12/12 20/13/13 21/14/14
f 19/12/12 22/15/15 23/16/16 20/13/13
f 21/14/14 20/13/13 17/17/17 16/18/18
f 20/13/13 23/16/16 15/19/19 17/17/17
f 24/20/20 12/21/21 13/22/22 25/23/23
f 25/23/23 13/22/22 11/24/24 14/25/25
f 22/15/15 24/20/20 25/23/23 23/16/16
f 23/16/16 25/23/23 14/25/25 15/19/19
f 12/21/21 24/20/20 31/26/26 32/27/27
f 24/20/20 22/15/15 33/28/28 31/26/26
f 32/27/27 31/26/26 30/29/29 29/30/30
f 31/26/26 33/28/28 28/31/31 30/29/29
f 19/12/12 18/11/11 34/32/32 35/33/33
f 35/33/33 34/32/32 27/34/34 26/35/35
f 22/15/15 19/12/12 35/33/33 33/28/28
f 33/28/28 35/33/33 26/35/35 28/31/31
f 41/36/36 42/37/37 43/38/38 44/39/39
f 42/37/37 45/40/40 46/41/41 43/38/38
f 44/39/39 43/38/38 40/42/42 39/43/43
f 43/38/38 46/41/41 38/44/44 40/42/42
f 47/45/45 48/46/46 49/47/47 50/48/48
f 50/48/48 49/47/47 37/49/49 36/50/50
f 45/40/40 47/45/45 50/48/48 46/41/41
f 46/41/41 50/48/48 36/50/50 38/44/44
f 55/51/51 56/52/52 57/53/53 58/54/54
f 56/52/52 59/55/55 60/56/56 57/53/53
f 58/54/54 57/53/53 54/57/57 53/58/58
f 57/53/53 60/56/56 52/59/59 54/57/57
f 61/60/60 41/36/36 44/39/39 62/61/61
f 62/61/61 44/39/39 39/43/43 51/62/62
f 59/55/55 61/60/60 62/61/61 60/56/56
f 60/56/56 62/61/61 51/62/62 52/59/59
f 41/36/36 61/60/60 68/63/63 69/64/64
f 61/60/60 59/55/55 70/65/65 68/63/63
f 69/64/64 68/63/63 67/66/66 66/67/67
f 68/63/63 70/65/65 65/68/68 67/66/66
f 56/52/52 55/51/51 71/69/69 72/70/70
f 72/70/70 71/69/69 64/71/71 63/72/72
f 59/55/55 56/52/52 72/70/70 70/65/65
f 70/65/65 72/70/70 63/72/72 65/68/68
f 48/46/46 47/45/45 77/73/73 78/74/74
f 47/45/45 45/40/40 79/75/75 77/73/73
f 78/74/74 77/73/73 76/76/76 75/77/77
f 77/73/73 79/75/75 74/78/78 76/76/76
f 42/37/37 41/36/36 69/64/64 80/79/79
f 80/79/79 69/64/64 66/67/67 73/80/80
f 45/40/40 42/37/37 80/79/79 79/75/75
f 79/75/75 80/79/79 73/80/80 74/78/78
f 48/46/46 83/81/81 84/82/82 49/47/47
f 83/81/81 85/83/83 86/84/84 84/82/82
f 49/47/47 84/82/82 82/85/85 37/49/49
f 84/82/82 86/84/84 81/86/86 82/85/85
f 83/81/81 48/46/46 78/74/74 90/87/87
f 90/87/87 78/74/74 75/77/77 87/88/88
f 85/83/83 83/81/81 90/87/87 89/89/89
f 89/89/89 90/87/87 87/88/88 88/90/90
f 92/91/91 55/51/51 58/54/54 93/92/92
f 93/92/92 58/54/54 53/58/58 91/93/93
f 55/51/51 92/91/91 95/94/94 71/69/69
f 71/69/69 95/94/94 94/95/95 64/71/71
f 100/96/96 101/97/97 102/98/98 103/99/99
f 101/97/97 104/100/100 105/101/101 102/98/98
f 103/99/99 102/98/98 99/102/102 98/103/103
f 102/98/98 105/101/101 97/104/104 99/102/102
f 106/105/105 4/2/2 3/1/1 107/106/106
f 107/106/106 3/1/1 1/5/5 96/107/107
f 104/100/100 106/105/105 107/106/106 105/101/101
f 105/101/101 107/106/106 96/107/107 97/104/104
f 18/11/11 111/108/108 112/109/109 34/32/32
f 111/108/108 113/110/110 114/111/111 112/109/109
f 34/32/32 112/109/109 110/112/112 27/34/34
f 112/109/109 114/111/111 109/113/113 110/112/112
f 115/114/114 100/96/96 103/99/99 116/115/115
f 116/115/115 103/99/99 98/103/103 108/116/116
f 113/110/110 115/114/114 116/115/115 114/111/111
f 114/111/111 116/115/115 108/116/116 109/113/113
f 100/96/96 115/114/114 121/117/117 122/118/118
f 115/114/114 113/110/110 123/119/119 121/117/117
f 122/118/118 121/117/117 120/120/120 119/121/121
f 121/117/117 123/119/119 118/122/122 120/120/120
f 111/108/108 18/11/11 21/14/14 124/123/123
f 124/123/123 21/14/14 16/18/18 117/124/124
f 113/110/110 111/108/108 124/123/123 123/119/119
f 123/119/119 124/123/123 117/124/124 118/122/122
f 4/2/2 106/105/105 128/125/125 7/7/7
f 106/105/105 104/100/100 129/126/126 128/125/125
f 7/7/7 128/125/125 127/127/127 9/9/9
f 128/125/125 129/126/126 126/128/128 127/127/127
f 101/97/97 100/96/96 122/118/118 130/129/129
f 130/129/129 122/118/118 119/121/121 125/130/130
f 104/100/100 101/97/97 130/129/129 129/126/126
f 129/126/126 130/129/129 125/130/130 126/128/128
