# Blender v3.3.0 OBJ File: 'separated_pan.blend'
# www.blender.org
mtllib pan_13.mtl
o pan_13_pan_00.015
v 0.126377 -0.069054 -0.032423
v 0.118552 -0.052920 -0.032423
v 0.119217 -0.052644 -0.034509
v 0.127001 -0.068694 -0.034509
v 0.112963 -0.035818 -0.032423
v 0.113657 -0.035631 -0.034509
v 0.120022 -0.052310 -0.036980
v 0.127756 -0.068258 -0.036980
v 0.114497 -0.035405 -0.036980
v 0.116582 -0.034843 -0.042772
v 0.115475 -0.035142 -0.039760
v 0.122019 -0.051480 -0.042772
v 0.129631 -0.067176 -0.042772
v 0.128635 -0.067750 -0.039760
v 0.120958 -0.051921 -0.039760
v 0.120592 -0.033764 -0.052445
v 0.119150 -0.034152 -0.049191
v 0.133237 -0.065094 -0.052445
v 0.125861 -0.049885 -0.052445
v 0.131939 -0.065843 -0.049191
v 0.124479 -0.050459 -0.049191
v 0.123195 -0.050992 -0.045942
v 0.130735 -0.066538 -0.045942
v 0.117810 -0.034513 -0.045942
v 0.148454 -0.097289 -0.032423
v 0.148962 -0.096782 -0.034509
v 0.149578 -0.096167 -0.036980
v 0.136437 -0.083898 -0.032423
v 0.137009 -0.083460 -0.034509
v 0.137700 -0.082930 -0.036980
v 0.139417 -0.081615 -0.042772
v 0.138506 -0.082314 -0.039760
v 0.151107 -0.094642 -0.042772
v 0.150295 -0.095452 -0.039760
v 0.142720 -0.079086 -0.052445
v 0.154047 -0.091709 -0.052445
v 0.141532 -0.079996 -0.049191
v 0.152989 -0.092765 -0.049191
v 0.152007 -0.093745 -0.045942
v 0.140429 -0.080841 -0.045942
v 0.111871 -0.036112 -0.027516
v 0.112262 -0.036007 -0.027518
v 0.112722 -0.035883 -0.027525
v 0.117506 -0.053355 -0.027516
v 0.125395 -0.069621 -0.027516
v 0.125746 -0.069418 -0.027518
v 0.117881 -0.053199 -0.027518
v 0.126160 -0.069180 -0.027525
v 0.118321 -0.053016 -0.027525
v 0.126919 -0.068742 -0.027566
v 0.119130 -0.052680 -0.027566
v 0.118760 -0.052834 -0.027541
v 0.126572 -0.068942 -0.027541
v 0.113566 -0.035656 -0.027566
v 0.113180 -0.035759 -0.027541
v 0.135538 -0.084587 -0.027516
v 0.135860 -0.084340 -0.027518
v 0.147653 -0.098088 -0.027516
v 0.147940 -0.097802 -0.027518
v 0.136239 -0.084050 -0.027525
v 0.148277 -0.097466 -0.027525
v 0.148896 -0.096848 -0.027566
v 0.148613 -0.097131 -0.027541
v 0.136934 -0.083518 -0.027566
v 0.136616 -0.083761 -0.027541
v 0.125893 -0.069334 -0.030799
v 0.118037 -0.053134 -0.030799
v 0.125533 -0.069542 -0.029577
v 0.117653 -0.053294 -0.029577
v 0.112425 -0.035963 -0.030799
v 0.112025 -0.036071 -0.029577
v 0.125282 -0.069687 -0.028702
v 0.125124 -0.069778 -0.028116
v 0.117218 -0.053474 -0.028116
v 0.117386 -0.053405 -0.028702
v 0.111570 -0.036193 -0.028116
v 0.111745 -0.036146 -0.028702
v 0.125045 -0.069823 -0.027761
v 0.117133 -0.053509 -0.027761
v 0.125056 -0.069817 -0.027581
v 0.117145 -0.053505 -0.027581
v 0.111482 -0.036217 -0.027761
v 0.111494 -0.036214 -0.027581
v 0.125168 -0.069752 -0.027518
v 0.117265 -0.053455 -0.027518
v 0.111619 -0.036180 -0.027518
v 0.135330 -0.084746 -0.027518
v 0.135227 -0.084825 -0.027581
v 0.147468 -0.098272 -0.027518
v 0.147377 -0.098364 -0.027581
v 0.135290 -0.084776 -0.028116
v 0.135217 -0.084832 -0.027761
v 0.147432 -0.098308 -0.028116
v 0.147368 -0.098373 -0.027761
v 0.135434 -0.084666 -0.028702
v 0.135664 -0.084490 -0.029577
v 0.147561 -0.098180 -0.028702
v 0.147766 -0.097976 -0.029577
v 0.135994 -0.084237 -0.030799
v 0.148059 -0.097683 -0.030799
v 0.127137 -0.068616 -0.027601
v 0.119362 -0.052584 -0.027601
v 0.127278 -0.068534 -0.027712
v 0.119512 -0.052521 -0.027712
v 0.113809 -0.035590 -0.027601
v 0.113966 -0.035548 -0.027712
v 0.127394 -0.068467 -0.027961
v 0.127536 -0.068385 -0.028412
v 0.119787 -0.052407 -0.028412
v 0.119636 -0.052470 -0.027961
v 0.114252 -0.035471 -0.028412
v 0.114094 -0.035513 -0.027961
v 0.137369 -0.083185 -0.027961
v 0.137499 -0.083085 -0.028412
v 0.137263 -0.083266 -0.027712
v 0.149283 -0.096462 -0.027961
v 0.149399 -0.096346 -0.028412
v 0.149189 -0.096556 -0.027712
v 0.137133 -0.083365 -0.027601
v 0.149074 -0.096671 -0.027601
v 0.128962 -0.067562 -0.033122
v 0.129572 -0.067210 -0.035153
v 0.121956 -0.051507 -0.035153
v 0.121307 -0.051776 -0.033122
v 0.130289 -0.066796 -0.037492
v 0.122721 -0.051189 -0.037492
v 0.116517 -0.034861 -0.035153
v 0.115839 -0.035044 -0.033122
v 0.117314 -0.034646 -0.037492
v 0.131113 -0.066320 -0.040082
v 0.132042 -0.065784 -0.042867
v 0.124587 -0.050414 -0.042867
v 0.123598 -0.050825 -0.040082
v 0.119263 -0.034122 -0.042867
v 0.118230 -0.034400 -0.040082
v 0.133074 -0.065188 -0.045788
v 0.125687 -0.049957 -0.045788
v 0.134205 -0.064535 -0.048780
v 0.126893 -0.049457 -0.048780
v 0.120411 -0.033812 -0.045788
v 0.121670 -0.033474 -0.048780
v 0.135432 -0.063826 -0.051777
v 0.128200 -0.048914 -0.051777
v 0.123034 -0.033106 -0.051777
v 0.144731 -0.077546 -0.051777
v 0.143607 -0.078407 -0.048780
v 0.155838 -0.089924 -0.051777
v 0.154837 -0.090922 -0.048780
v 0.141625 -0.079924 -0.042867
v 0.142571 -0.079200 -0.045788
v 0.153073 -0.092682 -0.042867
v 0.153914 -0.091842 -0.045788
v 0.140775 -0.080576 -0.040082
v 0.140021 -0.081154 -0.037492
v 0.152316 -0.093437 -0.040082
v 0.151644 -0.094107 -0.037492
v 0.138805 -0.082084 -0.033122
v 0.139364 -0.081657 -0.035153
v 0.150562 -0.095186 -0.033122
v 0.151059 -0.094690 -0.035153
v 0.127756 -0.068258 -0.029128
v 0.120022 -0.052310 -0.029128
v 0.128062 -0.068081 -0.030135
v 0.120348 -0.052175 -0.030135
v 0.114497 -0.035405 -0.029128
v 0.114837 -0.035313 -0.030135
v 0.128462 -0.067851 -0.031458
v 0.120773 -0.051998 -0.031458
v 0.115282 -0.035194 -0.031458
v 0.138347 -0.082436 -0.031458
v 0.137981 -0.082716 -0.030135
v 0.150154 -0.095594 -0.031458
v 0.149828 -0.095919 -0.030135
v 0.137701 -0.082930 -0.029128
v 0.149578 -0.096167 -0.029128
vt 0.148614 0.056028
vt 0.176397 0.043025
vt 0.177579 0.046026
vt 0.150176 0.058849
vt 0.205756 0.033788
vt 0.206537 0.036917
vt 0.178978 0.049579
vt 0.152026 0.062189
vt 0.207461 0.040622
vt 0.182266 0.057923
vt 0.156371 0.070033
vt 0.154109 0.065949
vt 0.180555 0.053578
vt 0.209633 0.049326
vt 0.208502 0.044795
vt 0.187827 0.072029
vt 0.163717 0.083291
vt 0.161226 0.078794
vt 0.185941 0.067244
vt 0.213306 0.064044
vt 0.212060 0.059051
vt 0.184075 0.062511
vt 0.158761 0.074345
vt 0.210827 0.054112
vt 0.122844 0.072670
vt 0.124761 0.075262
vt 0.127029 0.078334
vt 0.099429 0.092646
vt 0.101667 0.094966
vt 0.104318 0.097715
vt 0.132359 0.085547
vt 0.129585 0.081791
vt 0.110544 0.104173
vt 0.107302 0.100811
vt 0.141371 0.097741
vt 0.138314 0.093605
vt 0.121074 0.115092
vt 0.117502 0.111388
vt 0.135291 0.089512
vt 0.113969 0.107724
vt 0.650984 0.416628
vt 0.626385 0.406695
vt 0.626647 0.406159
vt 0.651174 0.416064
vt 0.626956 0.405529
vt 0.651398 0.415400
vt 0.676788 0.423165
vt 0.676903 0.422582
vt 0.677039 0.421896
vt 0.627522 0.404374
vt 0.651810 0.414183
vt 0.651622 0.414739
vt 0.627263 0.404904
vt 0.677288 0.420637
vt 0.677174 0.421212
vt 0.603467 0.393331
vt 0.603796 0.392837
vt 0.582496 0.376936
vt 0.582887 0.376489
vt 0.604183 0.392251
vt 0.583346 0.375961
vt 0.604894 0.391180
vt 0.604569 0.391672
vt 0.584189 0.374993
vt 0.583803 0.375435
vt 0.147395 0.053826
vt 0.175475 0.040684
vt 0.146479 0.052169
vt 0.174782 0.038922
vt 0.205148 0.031346
vt 0.204691 0.029509
vt 0.145823 0.050984
vt 0.145386 0.050194
vt 0.173955 0.036821
vt 0.174286 0.037661
vt 0.204145 0.027319
vt 0.204363 0.028195
vt 0.145124 0.049723
vt 0.173758 0.036318
vt 0.144996 0.049489
vt 0.173662 0.036070
vt 0.204015 0.026795
vt 0.203952 0.026536
vt 0.626216 0.407039
vt 0.650861 0.416992
vt 0.676714 0.423540
vt 0.626123 0.407230
vt 0.650794 0.417192
vt 0.676673 0.423747
vt 0.603255 0.393651
vt 0.603138 0.393828
vt 0.582245 0.377225
vt 0.582106 0.377384
vt 0.118884 0.067305
vt 0.118563 0.066871
vt 0.094802 0.087845
vt 0.094428 0.087456
vt 0.118405 0.066657
vt 0.094242 0.087265
vt 0.119421 0.068031
vt 0.120226 0.069121
vt 0.095430 0.088494
vt 0.096369 0.089469
vt 0.121350 0.070644
vt 0.097683 0.090833
vt 0.627687 0.404040
vt 0.651930 0.413829
vt 0.395411 0.545193
vt 0.395256 0.545438
vt 0.368261 0.530840
vt 0.368384 0.530577
vt 0.677360 0.420271
vt 0.339476 0.519918
vt 0.339564 0.519642
vt 0.395034 0.545790
vt 0.394657 0.546385
vt 0.367790 0.531857
vt 0.368086 0.531217
vt 0.339142 0.520988
vt 0.339352 0.520315
vt 0.419755 0.563882
vt 0.419304 0.564424
vt 0.420021 0.563561
vt 0.441927 0.585159
vt 0.441409 0.585638
vt 0.442232 0.584876
vt 0.605101 0.390871
vt 0.584434 0.374712
vt 0.420205 0.563337
vt 0.442443 0.584679
vt 0.390748 0.552566
vt 0.389072 0.555217
vt 0.363405 0.541342
vt 0.364721 0.538495
vt 0.387141 0.558270
vt 0.361889 0.544621
vt 0.336033 0.530964
vt 0.336966 0.527969
vt 0.334958 0.534413
vt 0.384999 0.561656
vt 0.382690 0.565307
vt 0.358393 0.552180
vt 0.360207 0.548258
vt 0.332478 0.542366
vt 0.333765 0.538239
vt 0.380254 0.569158
vt 0.356479 0.556316
vt 0.377739 0.573132
vt 0.354504 0.560586
vt 0.331120 0.546718
vt 0.329718 0.551211
vt 0.375192 0.577159
vt 0.352502 0.564913
vt 0.328298 0.555764
vt 0.399039 0.588738
vt 0.395988 0.592400
vt 0.418140 0.607104
vt 0.414636 0.610339
vt 0.404969 0.581623
vt 0.402051 0.585124
vt 0.424950 0.600821
vt 0.421600 0.603912
vt 0.407736 0.578304
vt 0.410301 0.575226
vt 0.428127 0.597890
vt 0.431073 0.595173
vt 0.414622 0.570042
vt 0.412614 0.572450
vt 0.436034 0.590596
vt 0.433729 0.592723
vt 0.394061 0.547330
vt 0.367321 0.532871
vt 0.393223 0.548653
vt 0.366664 0.534293
vt 0.338810 0.522054
vt 0.338344 0.523550
vt 0.392126 0.550389
vt 0.365802 0.536156
vt 0.337733 0.525509
vt 0.416272 0.568062
vt 0.417586 0.566485
vt 0.437928 0.588849
vt 0.439437 0.587458
vt 0.418589 0.565281
vt 0.440588 0.586395
vn -0.8188 -0.4727 -0.3258
vn -0.8768 -0.3540 -0.3255
vn -0.8756 -0.3535 -0.3293
vn -0.8176 -0.4721 -0.3295
vn -0.8990 -0.2938 -0.3247
vn -0.8978 -0.2934 -0.3284
vn -0.8728 -0.3524 -0.3376
vn -0.8151 -0.4706 -0.3379
vn -0.8950 -0.2925 -0.3368
vn -0.8635 -0.3486 -0.3644
vn -0.8064 -0.4656 -0.3647
vn -0.8113 -0.4684 -0.3497
vn -0.8688 -0.3508 -0.3494
vn -0.8855 -0.2894 -0.3635
vn -0.8909 -0.2912 -0.3485
vn -0.8425 -0.3400 -0.4179
vn -0.7867 -0.4542 -0.4182
vn -0.7916 -0.4570 -0.4056
vn -0.8477 -0.3422 -0.4053
vn -0.8640 -0.2824 -0.4168
vn -0.8693 -0.2841 -0.4044
vn -0.8566 -0.3458 -0.3829
vn -0.7999 -0.4618 -0.3832
vn -0.8785 -0.2871 -0.3819
vn -0.7449 -0.5823 -0.3255
vn -0.7439 -0.5815 -0.3293
vn -0.7416 -0.5797 -0.3376
vn -0.7040 -0.6317 -0.3247
vn -0.7030 -0.6308 -0.3284
vn -0.7008 -0.6289 -0.3368
vn -0.7337 -0.5735 -0.3644
vn -0.7382 -0.5771 -0.3494
vn -0.6934 -0.6222 -0.3635
vn -0.6976 -0.6260 -0.3485
vn -0.7157 -0.5597 -0.4179
vn -0.7202 -0.5630 -0.4053
vn -0.6765 -0.6071 -0.4168
vn -0.6807 -0.6108 -0.4044
vn -0.7278 -0.5689 -0.3829
vn -0.6879 -0.6172 -0.3819
vn -0.0017 -0.0007 1.0000
vn -0.0016 -0.0009 1.0000
vn 0.0090 0.0052 0.9999
vn 0.0096 0.0039 0.9999
vn 0.0208 0.0120 0.9997
vn 0.0223 0.0090 0.9997
vn -0.0017 -0.0005 1.0000
vn 0.0100 0.0033 0.9999
vn 0.0230 0.0075 0.9997
vn 0.0863 0.0498 0.9950
vn 0.0926 0.0374 0.9950
vn 0.0431 0.0174 0.9989
vn 0.0402 0.0232 0.9989
vn 0.0956 0.0312 0.9949
vn 0.0444 0.0145 0.9989
vn -0.0014 -0.0011 1.0000
vn 0.0082 0.0064 0.9999
vn -0.0013 -0.0012 1.0000
vn 0.0078 0.0070 0.9999
vn 0.0190 0.0148 0.9997
vn 0.0180 0.0162 0.9997
vn 0.0787 0.0615 0.9950
vn 0.0366 0.0286 0.9989
vn 0.0748 0.0672 0.9949
vn 0.0348 0.0312 0.9989
vn -0.8194 -0.4731 -0.3237
vn -0.8774 -0.3542 -0.3235
vn -0.8210 -0.4740 -0.3183
vn -0.8791 -0.3549 -0.3180
vn -0.8997 -0.2940 -0.3226
vn -0.9015 -0.2946 -0.3172
vn -0.8247 -0.4761 -0.3053
vn -0.8332 -0.4810 -0.2728
vn -0.8922 -0.3602 -0.2726
vn -0.8831 -0.3565 -0.3050
vn -0.9147 -0.2989 -0.2719
vn -0.9055 -0.2959 -0.3042
vn -0.8624 -0.4979 -0.0912
vn -0.9234 -0.3729 -0.0911
vn -0.7236 -0.4178 0.5494
vn -0.7745 -0.3128 0.5498
vn -0.9466 -0.3093 -0.0910
vn -0.7931 -0.2592 0.5512
vn -0.2052 -0.1185 0.9715
vn -0.2194 -0.0885 0.9716
vn -0.2236 -0.0731 0.9719
vn -0.1863 -0.1458 0.9716
vn -0.6581 -0.5144 0.5498
vn -0.1751 -0.1571 0.9719
vn -0.6210 -0.5573 0.5512
vn -0.7580 -0.5925 -0.2726
vn -0.7846 -0.6133 -0.0911
vn -0.7162 -0.6427 -0.2719
vn -0.7412 -0.6651 -0.0910
vn -0.7503 -0.5865 -0.3050
vn -0.7469 -0.5839 -0.3180
vn -0.7090 -0.6362 -0.3042
vn -0.7059 -0.6334 -0.3172
vn -0.7455 -0.5828 -0.3235
vn -0.7045 -0.6322 -0.3226
vn 0.3045 0.1758 0.9361
vn 0.3268 0.1320 0.9358
vn 0.6389 0.3689 0.6750
vn 0.6847 0.2764 0.6744
vn 0.3376 0.1103 0.9348
vn 0.7037 0.2300 0.6722
vn 0.7899 0.4561 0.4099
vn 0.8150 0.4705 0.3383
vn 0.8727 0.3523 0.3380
vn 0.8460 0.3415 0.4095
vn 0.8949 0.2925 0.3371
vn 0.8677 0.2836 0.4082
vn 0.7188 0.5619 0.4095
vn 0.7415 0.5796 0.3380
vn 0.5817 0.4548 0.6744
vn 0.6794 0.6097 0.4082
vn 0.7007 0.6288 0.3371
vn 0.5510 0.4944 0.6722
vn 0.2777 0.2170 0.9358
vn 0.2643 0.2372 0.9348
vn 0.8181 0.4724 0.3279
vn 0.8173 0.4719 0.3307
vn 0.8752 0.3533 0.3304
vn 0.8761 0.3537 0.3276
vn 0.8147 0.4704 0.3391
vn 0.8724 0.3522 0.3388
vn 0.8974 0.2933 0.3295
vn 0.8984 0.2936 0.3268
vn 0.8946 0.2924 0.3380
vn 0.8106 0.4680 0.3519
vn 0.8051 0.4648 0.3684
vn 0.8622 0.3481 0.3681
vn 0.8681 0.3505 0.3516
vn 0.8841 0.2889 0.3672
vn 0.8902 0.2909 0.3507
vn 0.7979 0.4607 0.3888
vn 0.8544 0.3450 0.3885
vn 0.7885 0.4552 0.4136
vn 0.8444 0.3409 0.4133
vn 0.8762 0.2864 0.3876
vn 0.8660 0.2830 0.4123
vn 0.7829 0.4520 0.4274
vn 0.8385 0.3384 0.4270
vn 0.8600 0.2810 0.4260
vn 0.7174 0.5608 0.4133
vn 0.7123 0.5570 0.4270
vn 0.6781 0.6085 0.4123
vn 0.6734 0.6042 0.4260
vn 0.7325 0.5726 0.3681
vn 0.7260 0.5675 0.3885
vn 0.6923 0.6212 0.3672
vn 0.6861 0.6157 0.3876
vn 0.7375 0.5766 0.3516
vn 0.7412 0.5794 0.3388
vn 0.6970 0.6255 0.3507
vn 0.7005 0.6286 0.3380
vn 0.7444 0.5819 0.3276
vn 0.7436 0.5813 0.3304
vn 0.7034 0.6312 0.3268
vn 0.7027 0.6306 0.3295
vn 0.8167 0.4715 0.3327
vn 0.8745 0.3531 0.3325
vn 0.8175 0.4720 0.3301
vn 0.8754 0.3534 0.3298
vn 0.8968 0.2931 0.3316
vn 0.8976 0.2933 0.3290
vn 0.8179 0.4722 0.3287
vn 0.8758 0.3536 0.3284
vn 0.8981 0.2935 0.3276
vn 0.7441 0.5817 0.3284
vn 0.7438 0.5814 0.3298
vn 0.7032 0.6310 0.3276
vn 0.7029 0.6307 0.3290
vn 0.7430 0.5808 0.3325
vn 0.7022 0.6301 0.3316
usemtl pan_Mat
s 1
f 1/1/1 2/2/2 3/3/3 4/4/4
f 2/2/2 5/5/5 6/6/6 3/3/3
f 4/4/4 3/3/3 7/7/7 8/8/8
f 3/3/3 6/6/6 9/9/9 7/7/7
f 12/10/10 13/11/11 14/12/12 15/13/13
f 15/13/13 14/12/12 8/8/8 7/7/7
f 10/14/14 12/10/10 15/13/13 11/15/15
f 11/15/15 15/13/13 7/7/7 9/9/9
f 19/16/16 18/17/17 20/18/18 21/19/19
f 16/20/20 19/16/16 21/19/19 17/21/21
f 13/11/11 12/10/10 22/22/22 23/23/23
f 12/10/10 10/14/14 24/24/24 22/22/22
f 23/23/23 22/22/22 21/19/19 20/18/18
f 22/22/22 24/24/24 17/21/21 21/19/19
f 28/25/25 1/1/1 4/4/4 29/26/26
f 29/26/26 4/4/4 8/8/8 30/27/27
f 25/28/28 28/25/25 29/26/26 26/29/29
f 26/29/29 29/26/26 30/27/27 27/30/30
f 13/11/11 31/31/31 32/32/32 14/12/12
f 31/31/31 33/33/33 34/34/34 32/32/32
f 14/12/12 32/32/32 30/27/27 8/8/8
f 32/32/32 34/34/34 27/30/30 30/27/27
f 18/17/17 35/35/35 37/36/36 20/18/18
f 35/35/35 36/37/37 38/38/38 37/36/36
f 31/31/31 13/11/11 23/23/23 40/39/39
f 40/39/39 23/23/23 20/18/18 37/36/36
f 33/33/33 31/31/31 40/39/39 39/40/40
f 39/40/40 40/39/39 37/36/36 38/38/38
f 44/41/41 45/42/42 46/43/43 47/44/44
f 47/44/44 46/43/43 48/45/45 49/46/46
f 41/47/47 44/41/41 47/44/44 42/48/48
f 42/48/48 47/44/44 49/46/46 43/49/49
f 50/50/50 51/51/51 52/52/52 53/53/53
f 51/51/51 54/54/54 55/55/55 52/52/52
f 53/53/53 52/52/52 49/46/46 48/45/45
f 52/52/52 55/55/55 43/49/49 49/46/46
f 45/42/42 56/56/56 57/57/57 46/43/43
f 56/56/56 58/58/58 59/59/59 57/57/57
f 46/43/43 57/57/57 60/60/60 48/45/45
f 57/57/57 59/59/59 61/61/61 60/60/60
f 64/62/62 50/50/50 53/53/53 65/63/63
f 65/63/63 53/53/53 48/45/45 60/60/60
f 62/64/64 64/62/62 65/63/63 63/65/65
f 63/65/65 65/63/63 60/60/60 61/61/61
f 1/1/1 66/66/66 67/67/67 2/2/2
f 66/66/66 68/68/68 69/69/69 67/67/67
f 2/2/2 67/67/67 70/70/70 5/5/5
f 67/67/67 69/69/69 71/71/71 70/70/70
f 72/72/72 73/73/73 74/74/74 75/75/75
f 75/75/75 74/74/74 76/76/76 77/77/77
f 68/68/68 72/72/72 75/75/75 69/69/69
f 69/69/69 75/75/75 77/77/77 71/71/71
f 73/73/73 78/78/78 79/79/79 74/74/74
f 78/78/78 80/80/80 81/81/81 79/79/79
f 74/74/74 79/79/79 82/82/82 76/76/76
f 79/79/79 81/81/81 83/83/83 82/82/82
f 84/84/84 45/42/42 44/41/41 85/85/85
f 85/85/85 44/41/41 41/47/47 86/86/86
f 80/87/80 84/84/84 85/85/85 81/88/81
f 81/88/81 85/85/85 86/86/86 83/89/83
f 45/42/42 84/84/84 87/90/87 56/56/56
f 84/84/84 80/87/80 88/91/88 87/90/87
f 56/56/56 87/90/87 89/92/89 58/58/58
f 87/90/87 88/91/88 90/93/90 89/92/89
f 78/78/78 73/73/73 91/94/91 92/95/92
f 92/95/92 91/94/91 93/96/93 94/97/94
f 80/80/80 78/78/78 92/95/92 88/98/88
f 88/98/88 92/95/92 94/97/94 90/99/90
f 73/73/73 72/72/72 95/100/95 91/94/91
f 72/72/72 68/68/68 96/101/96 95/100/95
f 91/94/91 95/100/95 97/102/97 93/96/93
f 95/100/95 96/101/96 98/103/98 97/102/97
f 66/66/66 1/1/1 28/25/25 99/104/99
f 99/104/99 28/25/25 25/28/28 100/105/100
f 68/68/68 66/66/66 99/104/99 96/101/96
f 96/101/96 99/104/99 100/105/100 98/103/98
f 50/50/50 101/106/101 102/107/102 51/51/51
f 101/108/101 103/109/103 104/110/104 102/111/102
f 51/51/51 102/107/102 105/112/105 54/54/54
f 102/111/102 104/110/104 106/113/106 105/114/105
f 107/115/107 108/116/108 109/117/109 110/118/110
f 110/118/110 109/117/109 111/119/111 112/120/112
f 103/109/103 107/115/107 110/118/110 104/110/104
f 104/110/104 110/118/110 112/120/112 106/113/106
f 108/116/108 107/115/107 113/121/113 114/122/114
f 107/115/107 103/109/103 115/123/115 113/121/113
f 114/122/114 113/121/113 116/124/116 117/125/117
f 113/121/113 115/123/115 118/126/118 116/124/116
f 101/106/101 50/50/50 64/62/62 119/127/119
f 119/127/119 64/62/62 62/64/64 120/128/120
f 103/109/103 101/108/101 119/129/119 115/123/115
f 115/123/115 119/129/119 120/130/120 118/126/118
f 121/131/121 122/132/122 123/133/123 124/134/124
f 122/132/122 125/135/125 126/136/126 123/133/123
f 124/134/124 123/133/123 127/137/127 128/138/128
f 123/133/123 126/136/126 129/139/129 127/137/127
f 130/140/130 131/141/131 132/142/132 133/143/133
f 133/143/133 132/142/132 134/144/134 135/145/135
f 125/135/125 130/140/130 133/143/133 126/136/126
f 126/136/126 133/143/133 135/145/135 129/139/129
f 131/141/131 136/146/136 137/147/137 132/142/132
f 136/146/136 138/148/138 139/149/139 137/147/137
f 132/142/132 137/147/137 140/150/140 134/144/134
f 137/147/137 139/149/139 141/151/141 140/150/140
f 138/148/138 142/152/142 143/153/143 139/149/139
f 139/149/139 143/153/143 144/154/144 141/151/141
f 142/152/142 138/148/138 146/155/145 145/156/146
f 145/156/146 146/155/145 148/157/147 147/158/148
f 136/146/136 131/141/131 149/159/149 150/160/150
f 150/160/150 149/159/149 151/161/151 152/162/152
f 138/148/138 136/146/136 150/160/150 146/155/145
f 146/155/145 150/160/150 152/162/152 148/157/147
f 131/141/131 130/140/130 153/163/153 149/159/149
f 130/140/130 125/135/125 154/164/154 153/163/153
f 149/159/149 153/163/153 155/165/155 151/161/151
f 153/163/153 154/164/154 156/166/156 155/165/155
f 122/132/122 121/131/121 157/167/157 158/168/158
f 158/168/158 157/167/157 159/169/159 160/170/160
f 125/135/125 122/132/122 158/168/158 154/164/154
f 154/164/154 158/168/158 160/170/160 156/166/156
f 108/116/108 161/171/161 162/172/162 109/117/109
f 161/171/161 163/173/163 164/174/164 162/172/162
f 109/117/109 162/172/162 165/175/165 111/119/111
f 162/172/162 164/174/164 166/176/166 165/175/165
f 167/177/167 121/131/121 124/134/124 168/178/168
f 168/178/168 124/134/124 128/138/128 169/179/169
f 163/173/163 167/177/167 168/178/168 164/174/164
f 164/174/164 168/178/168 169/179/169 166/176/166
f 121/131/121 167/177/167 170/180/170 157/167/157
f 167/177/167 163/173/163 171/181/171 170/180/170
f 157/167/157 170/180/170 172/182/172 159/169/159
f 170/180/170 171/181/171 173/183/173 172/182/172
f 161/171/161 108/116/108 114/122/114 174/184/174
f 174/184/174 114/122/114 117/125/117 175/185/175
f 163/173/163 161/171/161 174/184/174 171/181/171
f 171/181/171 174/184/174 175/185/175 173/183/173
