# Blender v2.93.10 OBJ File: 'separated_pan.blend'
# www.blender.org
mtllib pan_04.mtl
o pan_04_pan_00.007
v 0.123934 0.026408 -0.135294
v 0.125473 0.029591 -0.135705
v 0.118376 0.026408 -0.151166
v 0.110865 0.026408 -0.166258
v 0.112241 0.029591 -0.167052
v 0.119846 0.029591 -0.151774
v 0.101551 0.026408 -0.180308
v 0.102812 0.029591 -0.181277
v 0.090585 0.026408 -0.193058
v 0.091709 0.029591 -0.194185
v 0.077162 0.002845 -0.179602
v 0.094437 0.002845 -0.156773
v 0.086503 0.002845 -0.168741
v 0.078072 0.003665 -0.180514
v 0.078984 0.004662 -0.181428
v 0.080929 0.007280 -0.183378
v 0.079926 0.005860 -0.182373
v 0.099047 0.007280 -0.159435
v 0.097820 0.005860 -0.158726
v 0.089602 0.005860 -0.171123
v 0.090726 0.007280 -0.171987
v 0.096666 0.004662 -0.158060
v 0.088545 0.004662 -0.170311
v 0.095551 0.003665 -0.157416
v 0.087524 0.003665 -0.169526
v 0.109351 0.005860 -0.131406
v 0.110724 0.007280 -0.131772
v 0.108062 0.004662 -0.131062
v 0.105570 0.002845 -0.130398
v 0.106815 0.003665 -0.130730
v 0.102024 0.003665 -0.144409
v 0.100835 0.002845 -0.143918
v 0.103216 0.004662 -0.144901
v 0.105758 0.007280 -0.145952
v 0.104447 0.005860 -0.145410
v 0.109159 0.011127 -0.131355
v 0.107206 0.009607 -0.130834
v 0.111087 0.012874 -0.131869
v 0.114828 0.016992 -0.132866
v 0.112980 0.014834 -0.132374
v 0.102719 0.016992 -0.161555
v 0.101066 0.014834 -0.160600
v 0.107913 0.014834 -0.146843
v 0.109679 0.016992 -0.147572
v 0.099372 0.012874 -0.159622
v 0.106105 0.012874 -0.146095
v 0.097647 0.011127 -0.158626
v 0.095901 0.009607 -0.157618
v 0.102398 0.009607 -0.144564
v 0.104263 0.011127 -0.145334
v 0.116621 0.019334 -0.133344
v 0.118348 0.021846 -0.133805
v 0.121563 0.027323 -0.134662
v 0.119999 0.024514 -0.134245
v 0.108743 0.027323 -0.165033
v 0.107344 0.024514 -0.164225
v 0.114617 0.024514 -0.149613
v 0.116111 0.027323 -0.150230
v 0.105868 0.021846 -0.163372
v 0.113040 0.021846 -0.148961
v 0.104323 0.019334 -0.162481
v 0.111391 0.019334 -0.148280
v 0.087708 0.024514 -0.190174
v 0.088851 0.027323 -0.191320
v 0.086502 0.021846 -0.188964
v 0.083929 0.016992 -0.186386
v 0.085240 0.019334 -0.187699
v 0.095559 0.019334 -0.175702
v 0.094090 0.016992 -0.174573
v 0.096974 0.021846 -0.176790
v 0.099608 0.027323 -0.178814
v 0.098326 0.024514 -0.177829
v 0.082578 0.014834 -0.185031
v 0.081194 0.012874 -0.183644
v 0.078358 0.009607 -0.180801
v 0.079785 0.011127 -0.182231
v 0.089444 0.011127 -0.171002
v 0.087844 0.009607 -0.169772
v 0.091024 0.012874 -0.172216
v 0.092575 0.014834 -0.173409
v 0.103288 0.007268 -0.129790
v 0.105240 0.008329 -0.130310
v 0.094142 0.008329 -0.156602
v 0.100520 0.008329 -0.143788
v 0.092396 0.007268 -0.155595
v 0.098656 0.007268 -0.143017
v 0.076921 0.008329 -0.179360
v 0.075494 0.007268 -0.177930
v 0.084634 0.007268 -0.167304
v 0.086233 0.008329 -0.168534
v 0.123030 0.030259 -0.135053
v 0.110056 0.030259 -0.165790
v 0.117512 0.030259 -0.150809
v 0.089924 0.030259 -0.192395
v 0.100810 0.030259 -0.179738
v 0.122310 0.023374 -0.134861
v 0.120625 0.020499 -0.134412
v 0.117181 0.015277 -0.133494
v 0.118907 0.017796 -0.133954
v 0.104824 0.015277 -0.162770
v 0.106368 0.017796 -0.163661
v 0.113574 0.017796 -0.149182
v 0.111926 0.015277 -0.148501
v 0.107905 0.020499 -0.164549
v 0.115215 0.020499 -0.149860
v 0.109412 0.023374 -0.165419
v 0.116824 0.023374 -0.150525
v 0.115474 0.012954 -0.133038
v 0.113811 0.010838 -0.132595
v 0.112219 0.008943 -0.132171
v 0.100385 0.008943 -0.160207
v 0.107186 0.008943 -0.146542
v 0.101809 0.010838 -0.161029
v 0.108706 0.010838 -0.147170
v 0.103296 0.012954 -0.161888
v 0.110295 0.012954 -0.147827
v 0.082022 0.008943 -0.184473
v 0.083185 0.010838 -0.185640
v 0.085649 0.015277 -0.188109
v 0.084401 0.012954 -0.186858
v 0.094618 0.012954 -0.174979
v 0.096017 0.015277 -0.176055
v 0.093256 0.010838 -0.173932
v 0.091951 0.008943 -0.172929
v 0.086910 0.017796 -0.189374
v 0.088166 0.020499 -0.190633
v 0.089397 0.023374 -0.191867
v 0.100220 0.023374 -0.179285
v 0.098840 0.020499 -0.178224
v 0.097432 0.017796 -0.177142
vt 0.077414 0.335186
vt 0.088622 0.358873
vt 0.084157 0.361347
vt 0.072664 0.337054
vt 0.069338 0.310324
vt 0.064387 0.311556
vt 0.102742 0.380946
vt 0.098640 0.383983
vt 0.119520 0.400989
vt 0.115851 0.404535
vt 0.118066 0.342584
vt 0.120566 0.341201
vt 0.132093 0.359246
vt 0.129796 0.360945
vt 0.122798 0.339965
vt 0.134144 0.357731
vt 0.145773 0.375650
vt 0.143718 0.377633
vt 0.147607 0.373879
vt 0.124828 0.338842
vt 0.126728 0.337790
vt 0.137755 0.355058
vt 0.136009 0.356350
vt 0.150838 0.370757
vt 0.149276 0.372267
vt 0.115926 0.320071
vt 0.117948 0.319278
vt 0.113766 0.320919
vt 0.109480 0.300379
vt 0.111589 0.299857
vt 0.107229 0.300937
vt 0.108733 0.322896
vt 0.111392 0.321851
vt 0.101982 0.302239
vt 0.104754 0.301551
vt 0.417347 0.838540
vt 0.413861 0.836335
vt 0.424677 0.816567
vt 0.428421 0.818296
vt 0.410513 0.834219
vt 0.421080 0.814907
vt 0.432882 0.795644
vt 0.436820 0.796866
vt 0.429100 0.794469
vt 0.407310 0.832193
vt 0.404257 0.830263
vt 0.414360 0.811808
vt 0.417640 0.813320
vt 0.422033 0.792275
vt 0.425482 0.793346
vt 0.432464 0.848100
vt 0.428531 0.845613
vt 0.440435 0.823841
vt 0.444658 0.825793
vt 0.424693 0.843185
vt 0.436312 0.821938
vt 0.449450 0.800794
vt 0.453891 0.802176
vt 0.445116 0.799446
vt 0.420961 0.840824
vt 0.432304 0.820088
vt 0.440901 0.798136
vt 0.407097 0.859969
vt 0.403814 0.857229
vt 0.410487 0.862797
vt 0.390958 0.877153
vt 0.388063 0.874009
vt 0.393948 0.880401
vt 0.417548 0.868685
vt 0.413974 0.865705
vt 0.400176 0.887159
vt 0.397024 0.883738
vt 0.394696 0.849621
vt 0.391923 0.847309
vt 0.397606 0.852050
vt 0.380020 0.865277
vt 0.377574 0.862619
vt 0.382586 0.868064
vt 0.400647 0.854588
vt 0.385269 0.870977
vt 0.401357 0.828430
vt 0.411243 0.810372
vt 0.398604 0.826690
vt 0.408285 0.809009
vt 0.418754 0.791260
vt 0.415643 0.790297
vt 0.389289 0.845109
vt 0.375250 0.860094
vt 0.386789 0.843022
vt 0.373045 0.857697
vt 0.436480 0.850639
vt 0.448971 0.827785
vt 0.458425 0.803588
vt 0.421196 0.871729
vt 0.403394 0.890651
vt 0.105071 0.349775
vt 0.101217 0.351906
vt 0.090811 0.329931
vt 0.094910 0.328321
vt 0.097175 0.354142
vt 0.086511 0.331617
vt 0.083301 0.306868
vt 0.087574 0.305811
vt 0.078820 0.307979
vt 0.092969 0.356469
vt 0.082038 0.333372
vt 0.074157 0.309132
vt 0.115237 0.344149
vt 0.105724 0.324078
vt 0.112109 0.345880
vt 0.102397 0.325383
vt 0.098845 0.303016
vt 0.095377 0.303877
vt 0.108711 0.347760
vt 0.098782 0.326802
vt 0.091609 0.304811
vt 0.121199 0.367300
vt 0.117855 0.369774
vt 0.124322 0.364992
vt 0.136028 0.385055
vt 0.133036 0.387941
vt 0.138821 0.382359
vt 0.127197 0.362867
vt 0.141392 0.379878
vt 0.106736 0.377994
vt 0.110600 0.375137
vt 0.123092 0.397542
vt 0.126548 0.394205
vt 0.114314 0.372391
vt 0.129870 0.390999
vn 0.8155 -0.4653 -0.3441
vn 0.7666 -0.4651 -0.4426
vn 0.7748 -0.4468 -0.4473
vn 0.8242 -0.4469 -0.3477
vn 0.8357 -0.4647 -0.2926
vn 0.8445 -0.4464 -0.2957
vn 0.7058 -0.4653 -0.5342
vn 0.7132 -0.4469 -0.5399
vn 0.6713 -0.4647 -0.5774
vn 0.6784 -0.4464 -0.5835
vn 0.6241 -0.6932 -0.3603
vn 0.5966 -0.7248 -0.3445
vn 0.5492 -0.7250 -0.4156
vn 0.5745 -0.6934 -0.4348
vn 0.5558 -0.7669 -0.3209
vn 0.5116 -0.7671 -0.3872
vn 0.5227 -0.7243 -0.4496
vn 0.5467 -0.6928 -0.4702
vn 0.4870 -0.7664 -0.4188
vn 0.4995 -0.8169 -0.2884
vn 0.4655 -0.8432 -0.2688
vn 0.4285 -0.8433 -0.3242
vn 0.4597 -0.8170 -0.3479
vn 0.4078 -0.8430 -0.3508
vn 0.4377 -0.8164 -0.3765
vn 0.5312 -0.8170 -0.2242
vn 0.4950 -0.8433 -0.2091
vn 0.5911 -0.7670 -0.2495
vn 0.5449 -0.8164 -0.1908
vn 0.5077 -0.8430 -0.1778
vn 0.6062 -0.7664 -0.2123
vn 0.6638 -0.6934 -0.2802
vn 0.6346 -0.7250 -0.2678
vn 0.6806 -0.6928 -0.2383
vn 0.6507 -0.7243 -0.2279
vn -0.6646 0.6411 0.3837
vn -0.6316 0.6842 0.3646
vn -0.6717 0.6844 0.2835
vn -0.7069 0.6413 0.2983
vn -0.5929 0.7288 0.3423
vn -0.6306 0.7290 0.2661
vn -0.6887 0.6837 0.2412
vn -0.7247 0.6406 0.2538
vn -0.6467 0.7284 0.2264
vn -0.5473 0.7750 0.3160
vn -0.4926 0.8224 0.2844
vn -0.5239 0.8225 0.2211
vn -0.5820 0.7752 0.2456
vn -0.5375 0.8220 0.1882
vn -0.5969 0.7746 0.2090
vn -0.7605 0.4783 0.4391
vn -0.7406 0.5183 0.4276
vn -0.7878 0.5184 0.3324
vn -0.8090 0.4785 0.3414
vn -0.7184 0.5585 0.4147
vn -0.7641 0.5586 0.3225
vn -0.8074 0.5178 0.2827
vn -0.8290 0.4779 0.2903
vn -0.7832 0.5580 0.2743
vn -0.6933 0.5993 0.4003
vn -0.7374 0.5995 0.3112
vn -0.7559 0.5988 0.2647
vn -0.6382 0.5995 0.4830
vn -0.6118 0.6413 0.4630
vn -0.6613 0.5586 0.5005
vn -0.6072 0.5988 0.5223
vn -0.5821 0.6406 0.5007
vn -0.6291 0.5580 0.5411
vn -0.7001 0.4785 0.5299
vn -0.6818 0.5184 0.5160
vn -0.6659 0.4779 0.5728
vn -0.6485 0.5178 0.5578
vn -0.5037 0.7752 0.3812
vn -0.4534 0.8225 0.3432
vn -0.5458 0.7290 0.4131
vn -0.4795 0.7745 0.4124
vn -0.4317 0.8220 0.3713
vn -0.5195 0.7284 0.4468
vn -0.5814 0.6844 0.4400
vn -0.5532 0.6837 0.4758
vn -0.4336 0.8656 0.2503
vn -0.4611 0.8657 0.1946
vn -0.4033 0.8849 0.2328
vn -0.4288 0.8850 0.1811
vn -0.4731 0.8653 0.1657
vn -0.4398 0.8848 0.1540
vn -0.3991 0.8657 0.3020
vn -0.3800 0.8653 0.3269
vn -0.3712 0.8850 0.2808
vn -0.3533 0.8848 0.3039
vn -0.7696 0.4586 0.4443
vn -0.8186 0.4588 0.3453
vn -0.8388 0.4583 0.2937
vn -0.7084 0.4588 0.5363
vn -0.6738 0.4583 0.5796
vn 0.6986 -0.5909 -0.4033
vn 0.7157 -0.5630 -0.4132
vn 0.7613 -0.5632 -0.3213
vn 0.7431 -0.5911 -0.3136
vn 0.7327 -0.5331 -0.4230
vn 0.7794 -0.5333 -0.3289
vn 0.7802 -0.5626 -0.2732
vn 0.7617 -0.5905 -0.2667
vn 0.7988 -0.5326 -0.2797
vn 0.7497 -0.5006 -0.4328
vn 0.7974 -0.5008 -0.3365
vn 0.8172 -0.5002 -0.2862
vn 0.6447 -0.6676 -0.3722
vn 0.6858 -0.6678 -0.2894
vn 0.6635 -0.6426 -0.3831
vn 0.7057 -0.6428 -0.2978
vn 0.7030 -0.6672 -0.2462
vn 0.7235 -0.6421 -0.2533
vn 0.6813 -0.6173 -0.3934
vn 0.7247 -0.6175 -0.3058
vn 0.7429 -0.6168 -0.2601
vn 0.6272 -0.6175 -0.4747
vn 0.6431 -0.5911 -0.4867
vn 0.6108 -0.6428 -0.4623
vn 0.5967 -0.6168 -0.5133
vn 0.6118 -0.5905 -0.5263
vn 0.5811 -0.6422 -0.4999
vn 0.5935 -0.6678 -0.4492
vn 0.5647 -0.6672 -0.4857
vn 0.6901 -0.5008 -0.5223
vn 0.6745 -0.5333 -0.5105
vn 0.6565 -0.5002 -0.5647
vn 0.6416 -0.5326 -0.5519
vn 0.6589 -0.5632 -0.4986
vn 0.6268 -0.5626 -0.5391
usemtl pan_Mat
s 1
f 3/1/1 4/2/2 5/3/3 6/4/4
f 1/5/5 3/1/1 6/4/4 2/6/6
f 4/2/2 7/7/7 8/8/8 5/3/3
f 7/7/7 9/9/9 10/10/10 8/8/8
f 18/11/11 19/12/12 20/13/13 21/14/14
f 19/12/12 22/15/15 23/16/16 20/13/13
f 21/14/14 20/13/13 17/17/17 16/18/18
f 20/13/13 23/16/16 15/19/19 17/17/17
f 24/20/20 12/21/21 13/22/22 25/23/23
f 25/23/23 13/22/22 11/24/24 14/25/25
f 22/15/15 24/20/20 25/23/23 23/16/16
f 23/16/16 25/23/23 14/25/25 15/19/19
f 12/21/21 24/20/20 31/26/26 32/27/27
f 24/20/20 22/15/15 33/28/28 31/26/26
f 32/27/27 31/26/26 30/29/29 29/30/30
f 31/26/26 33/28/28 28/31/31 30/29/29
f 19/12/12 18/11/11 34/32/32 35/33/33
f 35/33/33 34/32/32 27/34/34 26/35/35
f 22/15/15 19/12/12 35/33/33 33/28/28
f 33/28/28 35/33/33 26/35/35 28/31/31
f 41/36/36 42/37/37 43/38/38 44/39/39
f 42/37/37 45/40/40 46/41/41 43/38/38
f 44/39/39 43/38/38 40/42/42 39/43/43
f 43/38/38 46/41/41 38/44/44 40/42/42
f 47/45/45 48/46/46 49/47/47 50/48/48
f 50/48/48 49/47/47 37/49/49 36/50/50
f 45/40/40 47/45/45 50/48/48 46/41/41
f 46/41/41 50/48/48 36/50/50 38/44/44
f 55/51/51 56/52/52 57/53/53 58/54/54
f 56/52/52 59/55/55 60/56/56 57/53/53
f 58/54/54 57/53/53 54/57/57 53/58/58
f 57/53/53 60/56/56 52/59/59 54/57/57
f 61/60/60 41/36/36 44/39/39 62/61/61
f 62/61/61 44/39/39 39/43/43 51/62/62
f 59/55/55 61/60/60 62/61/61 60/56/56
f 60/56/56 62/61/61 51/62/62 52/59/59
f 41/36/36 61/60/60 68/63/63 69/64/64
f 61/60/60 59/55/55 70/65/65 68/63/63
f 69/64/64 68/63/63 67/66/66 66/67/67
f 68/63/63 70/65/65 65/68/68 67/66/66
f 56/52/52 55/51/51 71/69/69 72/70/70
f 72/70/70 71/69/69 64/71/71 63/72/72
f 59/55/55 56/52/52 72/70/70 70/65/65
f 70/65/65 72/70/70 63/72/72 65/68/68
f 48/46/46 47/45/45 77/73/73 78/74/74
f 47/45/45 45/40/40 79/75/75 77/73/73
f 78/74/74 77/73/73 76/76/76 75/77/77
f 77/73/73 79/75/75 74/78/78 76/76/76
f 42/37/37 41/36/36 69/64/64 80/79/79
f 80/79/79 69/64/64 66/67/67 73/80/80
f 45/40/40 42/37/37 80/79/79 79/75/75
f 79/75/75 80/79/79 73/80/80 74/78/78
f 48/46/46 83/81/81 84/82/82 49/47/47
f 83/81/81 85/83/83 86/84/84 84/82/82
f 49/47/47 84/82/82 82/85/85 37/49/49
f 84/82/82 86/84/84 81/86/86 82/85/85
f 83/81/81 48/46/46 78/74/74 90/87/87
f 90/87/87 78/74/74 75/77/77 87/88/88
f 85/83/83 83/81/81 90/87/87 89/89/89
f 89/89/89 90/87/87 87/88/88 88/90/90
f 92/91/91 55/51/51 58/54/54 93/92/92
f 93/92/92 58/54/54 53/58/58 91/93/93
f 55/51/51 92/91/91 95/94/94 71/69/69
f 71/69/69 95/94/94 94/95/95 64/71/71
f 100/96/96 101/97/97 102/98/98 103/99/99
f 101/97/97 104/100/100 105/101/101 102/98/98
f 103/99/99 102/98/98 99/102/102 98/103/103
f 102/98/98 105/101/101 97/104/104 99/102/102
f 106/105/105 4/2/2 3/1/1 107/106/106
f 107/106/106 3/1/1 1/5/5 96/107/107
f 104/100/100 106/105/105 107/106/106 105/101/101
f 105/101/101 107/106/106 96/107/107 97/104/104
f 18/11/11 111/108/108 112/109/109 34/32/32
f 111/108/108 113/110/110 114/111/111 112/109/109
f 34/32/32 112/109/109 110/112/112 27/34/34
f 112/109/109 114/111/111 109/113/113 110/112/112
f 115/114/114 100/96/96 103/99/99 116/115/115
f 116/115/115 103/99/99 98/103/103 108/116/116
f 113/110/110 115/114/114 116/115/115 114/111/111
f 114/111/111 116/115/115 108/116/116 109/113/113
f 100/96/96 115/114/114 121/117/117 122/118/118
f 115/114/114 113/110/110 123/119/119 121/117/117
f 122/118/118 121/117/117 120/120/120 119/121/121
f 121/117/117 123/119/119 118/122/122 120/120/120
f 111/108/108 18/11/11 21/14/14 124/123/123
f 124/123/123 21/14/14 16/18/18 117/124/124
f 113/110/110 111/108/108 124/123/123 123/119/119
f 123/119/119 124/123/123 117/124/124 118/122/122
f 4/2/2 106/105/105 128/125/125 7/7/7
f 106/105/105 104/100/100 129/126/126 128/125/125
f 7/7/7 128/125/125 127/127/127 9/9/9
f 128/125/125 129/126/126 126/128/128 127/127/127
f 101/97/97 100/96/96 122/118/118 130/129/129
f 130/129/129 122/118/118 119/121/121 125/130/130
f 104/100/100 101/97/97 130/129/129 129/126/126
f 129/126/126 130/129/129 125/130/130 126/128/128
