# Blender v3.3.0 OBJ File: 'separated_pan.blend'
# www.blender.org
mtllib pan_00.mtl
o pan_00_pan_00.003
v 0.122130 0.033350 -0.055628
v 0.120592 0.033764 -0.052445
v 0.119008 0.016825 -0.055628
v 0.117967 0.000000 -0.055628
v 0.116378 0.000000 -0.052445
v 0.117431 0.017034 -0.052445
v 0.119008 -0.016825 -0.055628
v 0.117431 -0.017034 -0.052445
v 0.122130 -0.033350 -0.055628
v 0.120592 -0.033764 -0.052445
v 0.140482 -0.028408 -0.079191
v 0.136936 0.000000 -0.079191
v 0.137823 -0.014332 -0.079191
v 0.139238 -0.028743 -0.078372
v 0.137992 -0.029078 -0.077374
v 0.135332 -0.029795 -0.074757
v 0.136703 -0.029425 -0.076176
v 0.131613 0.000000 -0.074757
v 0.133030 0.000000 -0.076176
v 0.133948 -0.014845 -0.076176
v 0.132543 -0.015032 -0.074757
v 0.134362 0.000000 -0.077374
v 0.135269 -0.014670 -0.077374
v 0.135650 0.000000 -0.078372
v 0.136547 -0.014501 -0.078372
v 0.136703 0.029426 -0.076176
v 0.135332 0.029795 -0.074757
v 0.137992 0.029079 -0.077374
v 0.140482 0.028408 -0.079191
v 0.139238 0.028743 -0.078371
v 0.136547 0.014501 -0.078372
v 0.137823 0.014332 -0.079191
v 0.135270 0.014670 -0.077374
v 0.132543 0.015032 -0.074757
v 0.133948 0.014845 -0.076176
v 0.136896 0.029374 -0.070909
v 0.138847 0.028848 -0.072429
v 0.134969 0.029892 -0.069162
v 0.131230 0.030899 -0.065044
v 0.133077 0.030402 -0.067203
v 0.127373 0.000000 -0.065044
v 0.129282 0.000000 -0.067203
v 0.130231 0.015338 -0.067203
v 0.128337 0.015589 -0.065044
v 0.131238 0.000000 -0.069162
v 0.132171 0.015081 -0.069162
v 0.133229 0.000000 -0.070909
v 0.135246 0.000000 -0.072429
v 0.136146 0.014554 -0.072429
v 0.134146 0.014819 -0.070909
v 0.129438 0.031382 -0.062702
v 0.127713 0.031846 -0.060190
v 0.124500 0.032711 -0.054713
v 0.126063 0.032291 -0.057522
v 0.120417 0.000000 -0.054713
v 0.122032 0.000000 -0.057522
v 0.123040 0.016291 -0.057522
v 0.121438 0.016503 -0.054713
v 0.123737 0.000000 -0.060190
v 0.124731 0.016067 -0.060190
v 0.125521 0.000000 -0.062702
v 0.126500 0.015832 -0.062702
v 0.126063 -0.032291 -0.057522
v 0.124500 -0.032711 -0.054713
v 0.127713 -0.031846 -0.060190
v 0.131230 -0.030899 -0.065044
v 0.129438 -0.031382 -0.062702
v 0.126500 -0.015832 -0.062702
v 0.128337 -0.015589 -0.065044
v 0.124731 -0.016067 -0.060190
v 0.121438 -0.016503 -0.054713
v 0.123040 -0.016291 -0.057522
v 0.133077 -0.030402 -0.067203
v 0.134969 -0.029892 -0.069162
v 0.138847 -0.028848 -0.072429
v 0.136896 -0.029374 -0.070909
v 0.134146 -0.014819 -0.070909
v 0.136146 -0.014554 -0.072429
v 0.132171 -0.015081 -0.069162
v 0.130231 -0.015338 -0.067203
v 0.142763 0.027794 -0.074768
v 0.140812 0.028319 -0.073707
v 0.137277 0.000000 -0.073707
v 0.138161 0.014287 -0.073707
v 0.139293 0.000000 -0.074768
v 0.140160 0.014022 -0.074768
v 0.140812 -0.028319 -0.073707
v 0.142762 -0.027794 -0.074768
v 0.140160 -0.014022 -0.074768
v 0.138161 -0.014287 -0.073707
v 0.123034 0.033106 -0.051777
v 0.118901 0.000000 -0.051777
v 0.119935 0.016702 -0.051777
v 0.123034 -0.033106 -0.051777
v 0.119935 -0.016702 -0.051777
v 0.123754 0.032912 -0.058662
v 0.125437 0.032459 -0.061537
v 0.128879 0.031532 -0.066759
v 0.127154 0.031997 -0.064240
v 0.124943 0.000000 -0.066759
v 0.123160 0.000000 -0.064240
v 0.124159 0.016143 -0.064240
v 0.125927 0.015908 -0.066759
v 0.121385 0.000000 -0.061537
v 0.122398 0.016376 -0.061537
v 0.119645 0.000000 -0.058662
v 0.120672 0.016605 -0.058662
v 0.130585 0.031073 -0.069082
v 0.132247 0.030625 -0.071198
v 0.133838 0.030197 -0.073093
v 0.130068 0.000000 -0.073093
v 0.131011 0.015235 -0.073093
v 0.128424 0.000000 -0.071198
v 0.129380 0.015451 -0.071198
v 0.126706 0.000000 -0.069082
v 0.127676 0.015676 -0.069082
v 0.133838 -0.030197 -0.073093
v 0.132247 -0.030625 -0.071198
v 0.128879 -0.031532 -0.066759
v 0.130585 -0.031073 -0.069082
v 0.127676 -0.015676 -0.069082
v 0.125927 -0.015908 -0.066759
v 0.129380 -0.015451 -0.071198
v 0.131011 -0.015235 -0.073093
v 0.127154 -0.031997 -0.064240
v 0.125437 -0.032459 -0.061537
v 0.123754 -0.032912 -0.058662
v 0.120672 -0.016604 -0.058662
v 0.122398 -0.016376 -0.061537
v 0.124159 -0.016142 -0.064240
vt 0.292585 0.065430
vt 0.266467 0.063293
vt 0.266558 0.058190
vt 0.293343 0.060383
vt 0.318154 0.070867
vt 0.319564 0.065964
vt 0.240290 0.064485
vt 0.239711 0.059414
vt 0.214542 0.068994
vt 0.213306 0.064044
vt 0.265851 0.096937
vt 0.265799 0.099794
vt 0.244406 0.100753
vt 0.244084 0.097915
vt 0.265753 0.102343
vt 0.244694 0.103287
vt 0.223360 0.104398
vt 0.222670 0.101627
vt 0.223977 0.106873
vt 0.265711 0.104664
vt 0.265672 0.106836
vt 0.245203 0.107751
vt 0.244957 0.105592
vt 0.225065 0.111231
vt 0.224538 0.109123
vt 0.286418 0.106339
vt 0.286094 0.108487
vt 0.286764 0.104045
vt 0.306696 0.110603
vt 0.306094 0.112691
vt 0.307339 0.108374
vt 0.287569 0.098699
vt 0.287144 0.101523
vt 0.308835 0.103179
vt 0.308044 0.105924
vt 0.276191 0.569736
vt 0.276025 0.573857
vt 0.253498 0.574374
vt 0.253122 0.570267
vt 0.275866 0.577815
vt 0.253859 0.578319
vt 0.231275 0.577730
vt 0.230365 0.573709
vt 0.232148 0.581593
vt 0.275714 0.581602
vt 0.275569 0.585209
vt 0.254535 0.585689
vt 0.254205 0.582092
vt 0.233783 0.588809
vt 0.232985 0.585287
vt 0.276912 0.551864
vt 0.276724 0.556513
vt 0.251919 0.557091
vt 0.251497 0.552457
vt 0.276541 0.561051
vt 0.252331 0.561612
vt 0.227451 0.560807
vt 0.226427 0.556270
vt 0.228451 0.565234
vt 0.276363 0.565463
vt 0.252733 0.566009
vt 0.229423 0.569539
vt 0.299875 0.567898
vt 0.299144 0.572111
vt 0.300629 0.563547
vt 0.322827 0.573282
vt 0.321552 0.577362
vt 0.324143 0.569070
vt 0.302199 0.554489
vt 0.301404 0.559074
vt 0.326883 0.560297
vt 0.325496 0.564736
vt 0.297114 0.583810
vt 0.296497 0.587370
vt 0.297762 0.580077
vt 0.318010 0.588693
vt 0.316932 0.592140
vt 0.319141 0.585077
vt 0.298439 0.576174
vt 0.320322 0.581297
vt 0.275431 0.588638
vt 0.254849 0.589105
vt 0.275300 0.591893
vt 0.255148 0.592349
vt 0.234542 0.592156
vt 0.235263 0.595334
vt 0.295909 0.590750
vt 0.315906 0.595415
vt 0.295352 0.593959
vt 0.314933 0.598525
vt 0.277104 0.547117
vt 0.251066 0.547726
vt 0.225383 0.551637
vt 0.303010 0.549808
vt 0.328298 0.555764
vt 0.266122 0.082088
vt 0.266203 0.077684
vt 0.290438 0.079659
vt 0.289781 0.084014
vt 0.266288 0.073066
vt 0.291127 0.075093
vt 0.314166 0.084687
vt 0.312946 0.088917
vt 0.315446 0.080251
vt 0.266376 0.068260
vt 0.291844 0.070341
vt 0.316777 0.075636
vt 0.265910 0.093704
vt 0.288050 0.095501
vt 0.265975 0.090130
vt 0.288583 0.091966
vt 0.309729 0.100074
vt 0.310719 0.096640
vt 0.266046 0.086247
vt 0.289161 0.088127
vt 0.311794 0.092911
vt 0.242878 0.087293
vt 0.242409 0.083159
vt 0.243317 0.091150
vt 0.220088 0.091257
vt 0.219083 0.087223
vt 0.221026 0.095023
vt 0.243720 0.094702
vt 0.221889 0.098491
vt 0.240850 0.069420
vt 0.241391 0.074195
vt 0.215742 0.073811
vt 0.216903 0.078472
vt 0.241913 0.078783
vt 0.218019 0.082952
vn -0.8783 0.1097 -0.4653
vn -0.8852 0.0000 -0.4651
vn -0.8946 0.0000 -0.4468
vn -0.8876 0.1110 -0.4470
vn -0.8701 0.1644 -0.4647
vn -0.8793 0.1661 -0.4464
vn -0.8783 -0.1097 -0.4653
vn -0.8876 -0.1110 -0.4470
vn -0.8701 -0.1644 -0.4647
vn -0.8793 -0.1661 -0.4464
vn -0.7207 0.0000 -0.6932
vn -0.6890 0.0000 -0.7248
vn -0.6835 -0.0854 -0.7250
vn -0.7150 -0.0893 -0.6934
vn -0.6418 0.0000 -0.7669
vn -0.6366 -0.0795 -0.7670
vn -0.6775 -0.1280 -0.7243
vn -0.7086 -0.1339 -0.6928
vn -0.6312 -0.1193 -0.7664
vn -0.5767 0.0000 -0.8169
vn -0.5375 0.0000 -0.8432
vn -0.5332 -0.0665 -0.8434
vn -0.5721 -0.0714 -0.8170
vn -0.5286 -0.0999 -0.8430
vn -0.5674 -0.1072 -0.8165
vn -0.5721 0.0714 -0.8170
vn -0.5332 0.0665 -0.8434
vn -0.6366 0.0795 -0.7671
vn -0.5674 0.1072 -0.8165
vn -0.5286 0.0999 -0.8430
vn -0.6312 0.1193 -0.7664
vn -0.7150 0.0893 -0.6934
vn -0.6835 0.0854 -0.7250
vn -0.7086 0.1339 -0.6928
vn -0.6775 0.1280 -0.7243
vn 0.7675 -0.0000 0.6411
vn 0.7293 -0.0000 0.6842
vn 0.7235 -0.0904 0.6844
vn 0.7614 -0.0951 0.6413
vn 0.6847 -0.0000 0.7288
vn 0.6792 -0.0848 0.7290
vn 0.7171 -0.1355 0.6837
vn 0.7545 -0.1426 0.6406
vn 0.6733 -0.1272 0.7284
vn 0.6319 -0.0000 0.7750
vn 0.5689 -0.0000 0.8224
vn 0.5643 -0.0705 0.8226
vn 0.6269 -0.0783 0.7752
vn 0.5596 -0.1057 0.8220
vn 0.6215 -0.1174 0.7746
vn 0.8782 -0.0000 0.4784
vn 0.8552 -0.0000 0.5183
vn 0.8485 -0.1060 0.5185
vn 0.8713 -0.1088 0.4785
vn 0.8295 -0.0000 0.5585
vn 0.8230 -0.1028 0.5587
vn 0.8406 -0.1588 0.5178
vn 0.8631 -0.1631 0.4779
vn 0.8154 -0.1541 0.5580
vn 0.8005 -0.0000 0.5993
vn 0.7942 -0.0992 0.5995
vn 0.7870 -0.1487 0.5988
vn 0.7942 0.0992 0.5995
vn 0.7614 0.0951 0.6413
vn 0.8230 0.1028 0.5587
vn 0.7870 0.1487 0.5988
vn 0.7545 0.1426 0.6406
vn 0.8154 0.1541 0.5580
vn 0.8713 0.1088 0.4785
vn 0.8485 0.1060 0.5185
vn 0.8631 0.1631 0.4779
vn 0.8406 0.1588 0.5178
vn 0.6269 0.0783 0.7752
vn 0.5643 0.0705 0.8226
vn 0.6792 0.0848 0.7290
vn 0.6215 0.1174 0.7746
vn 0.5596 0.1057 0.8220
vn 0.6733 0.1272 0.7284
vn 0.7235 0.0904 0.6844
vn 0.7171 0.1355 0.6837
vn 0.5007 -0.0000 0.8656
vn 0.4966 -0.0620 0.8657
vn 0.4657 -0.0000 0.8850
vn 0.4619 -0.0576 0.8851
vn 0.4926 -0.0931 0.8653
vn 0.4579 -0.0865 0.8848
vn 0.4966 0.0620 0.8657
vn 0.4926 0.0931 0.8653
vn 0.4619 0.0576 0.8851
vn 0.4579 0.0865 0.8848
vn 0.8886 -0.0000 0.4587
vn 0.8817 -0.1102 0.4588
vn 0.8733 -0.1650 0.4583
vn 0.8817 0.1102 0.4588
vn 0.8733 0.1650 0.4583
vn -0.8067 0.0000 -0.5909
vn -0.8264 0.0000 -0.5631
vn -0.8199 0.1024 -0.5632
vn -0.8004 0.1000 -0.5911
vn -0.8460 0.0000 -0.5331
vn -0.8394 0.1048 -0.5333
vn -0.8124 0.1535 -0.5626
vn -0.7930 0.1498 -0.5905
vn -0.8316 0.1571 -0.5327
vn -0.8657 0.0000 -0.5006
vn -0.8589 0.1073 -0.5008
vn -0.8509 0.1608 -0.5002
vn -0.7445 0.0000 -0.6676
vn -0.7386 0.0922 -0.6678
vn -0.7662 0.0000 -0.6426
vn -0.7601 0.0949 -0.6428
vn -0.7319 0.1383 -0.6672
vn -0.7532 0.1423 -0.6422
vn -0.7867 0.0000 -0.6173
vn -0.7805 0.0975 -0.6175
vn -0.7734 0.1461 -0.6168
vn -0.7805 -0.0975 -0.6175
vn -0.8004 -0.1000 -0.5911
vn -0.7601 -0.0949 -0.6428
vn -0.7734 -0.1461 -0.6168
vn -0.7930 -0.1498 -0.5905
vn -0.7532 -0.1423 -0.6422
vn -0.7386 -0.0922 -0.6678
vn -0.7319 -0.1383 -0.6672
vn -0.8589 -0.1073 -0.5008
vn -0.8394 -0.1048 -0.5333
vn -0.8509 -0.1608 -0.5002
vn -0.8316 -0.1571 -0.5327
vn -0.8199 -0.1024 -0.5632
vn -0.8124 -0.1535 -0.5626
usemtl pan_Mat
s 1
f 3/1/1 4/2/2 5/3/3 6/4/4
f 1/5/5 3/1/1 6/4/4 2/6/6
f 4/2/2 7/7/7 8/8/8 5/3/3
f 7/7/7 9/9/9 10/10/10 8/8/8
f 18/11/11 19/12/12 20/13/13 21/14/14
f 19/12/12 22/15/15 23/16/16 20/13/13
f 21/14/14 20/13/13 17/17/17 16/18/18
f 20/13/13 23/16/16 15/19/19 17/17/17
f 24/20/20 12/21/21 13/22/22 25/23/23
f 25/23/23 13/22/22 11/24/24 14/25/25
f 22/15/15 24/20/20 25/23/23 23/16/16
f 23/16/16 25/23/23 14/25/25 15/19/19
f 12/21/21 24/20/20 31/26/26 32/27/27
f 24/20/20 22/15/15 33/28/28 31/26/26
f 32/27/27 31/26/26 30/29/29 29/30/30
f 31/26/26 33/28/28 28/31/31 30/29/29
f 19/12/12 18/11/11 34/32/32 35/33/33
f 35/33/33 34/32/32 27/34/34 26/35/35
f 22/15/15 19/12/12 35/33/33 33/28/28
f 33/28/28 35/33/33 26/35/35 28/31/31
f 41/36/36 42/37/37 43/38/38 44/39/39
f 42/37/37 45/40/40 46/41/41 43/38/38
f 44/39/39 43/38/38 40/42/42 39/43/43
f 43/38/38 46/41/41 38/44/44 40/42/42
f 47/45/45 48/46/46 49/47/47 50/48/48
f 50/48/48 49/47/47 37/49/49 36/50/50
f 45/40/40 47/45/45 50/48/48 46/41/41
f 46/41/41 50/48/48 36/50/50 38/44/44
f 55/51/51 56/52/52 57/53/53 58/54/54
f 56/52/52 59/55/55 60/56/56 57/53/53
f 58/54/54 57/53/53 54/57/57 53/58/58
f 57/53/53 60/56/56 52/59/59 54/57/57
f 61/60/60 41/36/36 44/39/39 62/61/61
f 62/61/61 44/39/39 39/43/43 51/62/62
f 59/55/55 61/60/60 62/61/61 60/56/56
f 60/56/56 62/61/61 51/62/62 52/59/59
f 41/36/36 61/60/60 68/63/63 69/64/64
f 61/60/60 59/55/55 70/65/65 68/63/63
f 69/64/64 68/63/63 67/66/66 66/67/67
f 68/63/63 70/65/65 65/68/68 67/66/66
f 56/52/52 55/51/51 71/69/69 72/70/70
f 72/70/70 71/69/69 64/71/71 63/72/72
f 59/55/55 56/52/52 72/70/70 70/65/65
f 70/65/65 72/70/70 63/72/72 65/68/68
f 48/46/46 47/45/45 77/73/73 78/74/74
f 47/45/45 45/40/40 79/75/75 77/73/73
f 78/74/74 77/73/73 76/76/76 75/77/77
f 77/73/73 79/75/75 74/78/78 76/76/76
f 42/37/37 41/36/36 69/64/64 80/79/79
f 80/79/79 69/64/64 66/67/67 73/80/80
f 45/40/40 42/37/37 80/79/79 79/75/75
f 79/75/75 80/79/79 73/80/80 74/78/78
f 48/46/46 83/81/81 84/82/82 49/47/47
f 83/81/81 85/83/83 86/84/84 84/82/82
f 49/47/47 84/82/82 82/85/85 37/49/49
f 84/82/82 86/84/84 81/86/86 82/85/85
f 83/81/81 48/46/46 78/74/74 90/87/87
f 90/87/87 78/74/74 75/77/77 87/88/88
f 85/83/83 83/81/81 90/87/87 89/89/89
f 89/89/89 90/87/87 87/88/88 88/90/90
f 92/91/91 55/51/51 58/54/54 93/92/92
f 93/92/92 58/54/54 53/58/58 91/93/93
f 55/51/51 92/91/91 95/94/94 71/69/69
f 71/69/69 95/94/94 94/95/95 64/71/71
f 100/96/96 101/97/97 102/98/98 103/99/99
f 101/97/97 104/100/100 105/101/101 102/98/98
f 103/99/99 102/98/98 99/102/102 98/103/103
f 102/98/98 105/101/101 97/104/104 99/102/102
f 106/105/105 4/2/2 3/1/1 107/106/106
f 107/106/106 3/1/1 1/5/5 96/107/107
f 104/100/100 106/105/105 107/106/106 105/101/101
f 105/101/101 107/106/106 96/107/107 97/104/104
f 18/11/11 111/108/108 112/109/109 34/32/32
f 111/108/108 113/110/110 114/111/111 112/109/109
f 34/32/32 112/109/109 110/112/112 27/34/34
f 112/109/109 114/111/111 109/113/113 110/112/112
f 115/114/114 100/96/96 103/99/99 116/115/115
f 116/115/115 103/99/99 98/103/103 108/116/116
f 113/110/110 115/114/114 116/115/115 114/111/111
f 114/111/111 116/115/115 108/116/116 109/113/113
f 100/96/96 115/114/114 121/117/117 122/118/118
f 115/114/114 113/110/110 123/119/119 121/117/117
f 122/118/118 121/117/117 120/120/120 119/121/121
f 121/117/117 123/119/119 118/122/122 120/120/120
f 111/108/108 18/11/11 21/14/14 124/123/123
f 124/123/123 21/14/14 16/18/18 117/124/124
f 113/110/110 111/108/108 124/123/123 123/119/119
f 123/119/119 124/123/123 117/124/124 118/122/122
f 4/2/2 106/105/105 128/125/125 7/7/7
f 106/105/105 104/100/100 129/126/126 128/125/125
f 7/7/7 128/125/125 127/127/127 9/9/9
f 128/125/125 129/126/126 126/128/128 127/127/127
f 101/97/97 100/96/96 122/118/118 130/129/129
f 130/129/129 122/118/118 119/121/121 125/130/130
f 104/100/100 101/97/97 130/129/129 129/126/126
f 129/126/126 130/129/129 125/130/130 126/128/128
