# Blender v2.93.10 OBJ File: 'separated_pan.blend'
# www.blender.org
mtllib pan_01.mtl
o pan_01_pan_00.004
v 0.033350 0.026408 0.021603
v 0.033764 0.029591 0.023141
v 0.049273 0.026408 0.016399
v 0.064296 0.026408 0.009114
v 0.065094 0.029591 0.010496
v 0.049885 0.029591 0.017872
v 0.078116 0.026408 -0.000253
v 0.079086 0.029591 0.001013
v 0.090585 0.026408 -0.011442
v 0.091709 0.029591 -0.010314
v 0.054768 0.002845 -0.007388
v 0.041972 0.002845 -0.001182
v 0.028408 0.002845 0.003251
v 0.055414 0.003665 -0.006269
v 0.042467 0.003665 0.000010
v 0.056061 0.004663 -0.005149
v 0.042963 0.004663 0.001204
v 0.028743 0.003665 0.004495
v 0.029078 0.004663 0.005741
v 0.056730 0.005860 -0.003990
v 0.057442 0.007280 -0.002757
v 0.044021 0.007280 0.003752
v 0.043475 0.005860 0.002438
v 0.029795 0.007280 0.008401
v 0.029425 0.005860 0.007030
v 0.068925 0.005860 -0.012255
v 0.069789 0.007280 -0.011126
v 0.068112 0.004662 -0.013316
v 0.079926 0.005860 -0.022127
v 0.080929 0.007280 -0.021121
v 0.078983 0.004662 -0.023072
v 0.066541 0.002845 -0.015367
v 0.067326 0.003665 -0.014342
v 0.077162 0.002845 -0.024898
v 0.078072 0.003665 -0.023985
v 0.063065 0.027323 0.006983
v 0.062254 0.024514 0.005577
v 0.047709 0.024514 0.012631
v 0.048330 0.027323 0.014129
v 0.061398 0.021846 0.004094
v 0.047052 0.021846 0.011051
v 0.032291 0.024514 0.017670
v 0.032711 0.027323 0.019233
v 0.031846 0.021846 0.016020
v 0.060502 0.019334 0.002542
v 0.059572 0.016992 0.000931
v 0.045653 0.016992 0.007681
v 0.046366 0.019334 0.009398
v 0.030899 0.016992 0.012503
v 0.031382 0.019334 0.014295
v 0.058613 0.014834 -0.000730
v 0.044918 0.014834 0.005912
v 0.057630 0.012874 -0.002431
v 0.044165 0.012874 0.004099
v 0.030402 0.014834 0.010656
v 0.029892 0.012874 0.008764
v 0.056630 0.011127 -0.004163
v 0.055617 0.009607 -0.005918
v 0.042623 0.009607 0.000384
v 0.043399 0.011127 0.002253
v 0.028848 0.009607 0.004886
v 0.029374 0.011127 0.006837
v 0.068803 0.011127 -0.012414
v 0.067572 0.009607 -0.014020
v 0.070018 0.012874 -0.010827
v 0.079785 0.011127 -0.022268
v 0.078358 0.009607 -0.023699
v 0.081194 0.012874 -0.020855
v 0.072377 0.016992 -0.007748
v 0.071212 0.014834 -0.009269
v 0.083929 0.016992 -0.018114
v 0.082578 0.014834 -0.019468
v 0.073507 0.019334 -0.006272
v 0.074595 0.021846 -0.004851
v 0.085239 0.019334 -0.016800
v 0.086502 0.021846 -0.015535
v 0.076621 0.027323 -0.002205
v 0.075636 0.024514 -0.003492
v 0.088851 0.027323 -0.013179
v 0.087708 0.024514 -0.014325
v 0.053585 0.007268 -0.009438
v 0.065103 0.007268 -0.017245
v 0.075494 0.007268 -0.026569
v 0.054597 0.008329 -0.007685
v 0.066333 0.008329 -0.015639
v 0.076921 0.008329 -0.025140
v 0.041841 0.008329 -0.001498
v 0.041065 0.007268 -0.003366
v 0.028319 0.008329 0.002921
v 0.027794 0.007268 0.000970
v 0.063826 0.030259 0.008301
v 0.048914 0.030259 0.015533
v 0.033106 0.030259 0.020699
v 0.077546 0.030259 -0.000998
v 0.089924 0.030259 -0.012105
v 0.058218 0.008943 -0.001414
v 0.044615 0.008943 0.005183
v 0.059044 0.010838 0.000017
v 0.045248 0.010838 0.006707
v 0.030197 0.008943 0.009895
v 0.030625 0.010838 0.011486
v 0.059906 0.012954 0.001511
v 0.060792 0.015277 0.003045
v 0.046588 0.015277 0.009934
v 0.045909 0.012954 0.008299
v 0.031532 0.015277 0.014854
v 0.031073 0.012954 0.013148
v 0.061687 0.017796 0.004596
v 0.047275 0.017796 0.011586
v 0.062579 0.020499 0.006140
v 0.047958 0.020499 0.013231
v 0.031997 0.017796 0.016579
v 0.032459 0.020499 0.018296
v 0.063453 0.023374 0.007654
v 0.048627 0.023374 0.014844
v 0.032912 0.023374 0.019979
v 0.077092 0.023374 -0.001590
v 0.076030 0.020499 -0.002977
v 0.089397 0.023374 -0.012632
v 0.088166 0.020499 -0.013866
v 0.073860 0.015277 -0.005811
v 0.074947 0.017796 -0.004391
v 0.085649 0.015277 -0.016390
v 0.086910 0.017796 -0.015125
v 0.072783 0.012954 -0.007217
v 0.071735 0.010838 -0.008585
v 0.084401 0.012954 -0.017641
v 0.083185 0.010838 -0.018859
v 0.070732 0.008943 -0.009895
v 0.082022 0.008943 -0.020026
vt 0.189697 0.076773
vt 0.166188 0.087749
vt 0.163717 0.083291
vt 0.187827 0.072029
vt 0.214542 0.068994
vt 0.213306 0.064044
vt 0.144401 0.101842
vt 0.141371 0.097741
vt 0.124615 0.118765
vt 0.121074 0.115092
vt 0.187237 0.125802
vt 0.186185 0.123903
vt 0.204829 0.115237
vt 0.205625 0.117258
vt 0.185062 0.121875
vt 0.203979 0.113079
vt 0.224538 0.109123
vt 0.225065 0.111231
vt 0.223977 0.106873
vt 0.183828 0.119645
vt 0.182447 0.117149
vt 0.202001 0.108051
vt 0.203046 0.110707
vt 0.222670 0.101627
vt 0.223360 0.104398
vt 0.166052 0.131185
vt 0.164356 0.128889
vt 0.167566 0.133236
vt 0.149922 0.145049
vt 0.147940 0.142993
vt 0.151691 0.146886
vt 0.170232 0.136850
vt 0.168943 0.135102
vt 0.154806 0.150123
vt 0.153300 0.148558
vt 0.372655 0.581168
vt 0.370171 0.585095
vt 0.348556 0.573438
vt 0.350508 0.569219
vt 0.367747 0.588928
vt 0.346650 0.577555
vt 0.325496 0.564736
vt 0.326883 0.560297
vt 0.324143 0.569070
vt 0.365390 0.592654
vt 0.363108 0.596263
vt 0.343002 0.585435
vt 0.344797 0.581558
vt 0.321552 0.577362
vt 0.322827 0.573282
vt 0.360906 0.599745
vt 0.341271 0.589174
vt 0.358791 0.603090
vt 0.339607 0.592767
vt 0.320322 0.581297
vt 0.319141 0.585077
vt 0.356768 0.606291
vt 0.354838 0.609341
vt 0.336498 0.599482
vt 0.338015 0.596204
vt 0.316932 0.592140
vt 0.318010 0.588693
vt 0.373924 0.618900
vt 0.371615 0.621676
vt 0.376347 0.615988
vt 0.389294 0.633747
vt 0.386643 0.636200
vt 0.392076 0.631175
vt 0.381516 0.609778
vt 0.378879 0.612946
vt 0.398013 0.625689
vt 0.394985 0.628487
vt 0.384249 0.606495
vt 0.387072 0.603105
vt 0.401152 0.622788
vt 0.404394 0.619794
vt 0.392950 0.596047
vt 0.389975 0.599619
vt 0.411146 0.613560
vt 0.407729 0.616714
vt 0.353005 0.612242
vt 0.369421 0.624316
vt 0.384124 0.638532
vt 0.351264 0.614996
vt 0.367339 0.626821
vt 0.381734 0.640743
vt 0.335055 0.602596
vt 0.333685 0.605551
vt 0.315906 0.595415
vt 0.314933 0.598525
vt 0.375192 0.577159
vt 0.352502 0.564913
vt 0.328298 0.555764
vt 0.395988 0.592400
vt 0.414636 0.610339
vt 0.180884 0.114323
vt 0.200818 0.105045
vt 0.179156 0.111200
vt 0.199511 0.101720
vt 0.221889 0.098491
vt 0.221026 0.095023
vt 0.177279 0.107806
vt 0.175269 0.104173
vt 0.196570 0.094244
vt 0.198091 0.098111
vt 0.219083 0.087223
vt 0.220088 0.091257
vt 0.173141 0.100324
vt 0.194960 0.090151
vt 0.170909 0.096289
vt 0.193270 0.085857
vt 0.218019 0.082952
vt 0.216903 0.078472
vt 0.168588 0.092090
vt 0.191513 0.081390
vt 0.215742 0.073811
vt 0.147346 0.105834
vt 0.150196 0.109698
vt 0.128057 0.122343
vt 0.131388 0.125804
vt 0.155546 0.116951
vt 0.152934 0.113412
vt 0.137643 0.132301
vt 0.134590 0.129130
vt 0.158013 0.120294
vt 0.160316 0.123416
vt 0.140526 0.135297
vt 0.143218 0.138093
vt 0.162437 0.126289
vt 0.145698 0.140666
vn 0.3311 -0.4664 0.8202
vn 0.4422 -0.4667 0.7659
vn 0.4469 -0.4484 0.7741
vn 0.3348 -0.4480 0.8289
vn 0.2749 -0.4653 0.8413
vn 0.2779 -0.4469 0.8503
vn 0.5448 -0.4664 0.6969
vn 0.5505 -0.4480 0.7044
vn 0.5911 -0.4653 0.6588
vn 0.5974 -0.4469 0.6658
vn 0.2679 -0.8443 0.4640
vn 0.2876 -0.8180 0.4982
vn 0.2154 -0.8178 0.5337
vn 0.2005 -0.8441 0.4973
vn 0.3201 -0.7682 0.5544
vn 0.2398 -0.7679 0.5940
vn 0.1790 -0.8172 0.5478
vn 0.1669 -0.8433 0.5108
vn 0.1992 -0.7671 0.6097
vn 0.3437 -0.7262 0.5953
vn 0.3596 -0.6948 0.6229
vn 0.2693 -0.6944 0.6672
vn 0.2574 -0.7259 0.6377
vn 0.2238 -0.6934 0.6848
vn 0.2139 -0.7251 0.6546
vn 0.4236 -0.7259 0.5418
vn 0.4431 -0.6944 0.5669
vn 0.3945 -0.7679 0.5046
vn 0.4599 -0.7251 0.5126
vn 0.4812 -0.6935 0.5362
vn 0.4284 -0.7671 0.4774
vn 0.3304 -0.8441 0.4223
vn 0.3544 -0.8178 0.4534
vn 0.3589 -0.8433 0.3999
vn 0.3849 -0.8172 0.4290
vn -0.4386 0.4799 -0.7598
vn -0.4271 0.5199 -0.7398
vn -0.3198 0.5195 -0.7923
vn -0.3285 0.4796 -0.8137
vn -0.4142 0.5601 -0.7174
vn -0.3102 0.5598 -0.7684
vn -0.2656 0.5185 -0.8127
vn -0.2727 0.4786 -0.8346
vn -0.2576 0.5587 -0.7883
vn -0.3996 0.6009 -0.6922
vn -0.3830 0.6427 -0.6635
vn -0.2869 0.6424 -0.7107
vn -0.2993 0.6006 -0.7414
vn -0.2383 0.6413 -0.7293
vn -0.2486 0.5995 -0.7607
vn -0.3639 0.6857 -0.6303
vn -0.2726 0.6854 -0.6752
vn -0.3416 0.7302 -0.5916
vn -0.2558 0.7300 -0.6337
vn -0.2264 0.6845 -0.6930
vn -0.2126 0.7291 -0.6505
vn -0.3152 0.7763 -0.5459
vn -0.2836 0.8235 -0.4913
vn -0.2125 0.8233 -0.5264
vn -0.2361 0.7760 -0.5848
vn -0.1766 0.8227 -0.5404
vn -0.1962 0.7753 -0.6003
vn -0.3884 0.7760 -0.4968
vn -0.3496 0.8233 -0.4472
vn -0.4209 0.7300 -0.5384
vn -0.4218 0.7753 -0.4701
vn -0.3797 0.8227 -0.4231
vn -0.4570 0.7291 -0.5094
vn -0.4720 0.6424 -0.6038
vn -0.4484 0.6854 -0.5736
vn -0.5124 0.6413 -0.5710
vn -0.4869 0.6845 -0.5426
vn -0.4924 0.6006 -0.6299
vn -0.5103 0.5598 -0.6528
vn -0.5345 0.5995 -0.5957
vn -0.5539 0.5587 -0.6172
vn -0.5404 0.4796 -0.6913
vn -0.5262 0.5195 -0.6731
vn -0.5864 0.4786 -0.6535
vn -0.5710 0.5185 -0.6364
vn -0.2496 0.8665 -0.4323
vn -0.3076 0.8663 -0.3935
vn -0.3341 0.8658 -0.3724
vn -0.2320 0.8858 -0.4019
vn -0.2861 0.8856 -0.3657
vn -0.3109 0.8850 -0.3464
vn -0.1870 0.8663 -0.4631
vn -0.1737 0.8856 -0.4307
vn -0.1554 0.8658 -0.4755
vn -0.1446 0.8850 -0.4424
vn -0.4439 0.4602 -0.7688
vn -0.3326 0.4599 -0.8233
vn -0.2760 0.4588 -0.8445
vn -0.5467 0.4599 -0.6997
vn -0.5934 0.4588 -0.6613
vn 0.3715 -0.6692 0.6435
vn 0.2783 -0.6689 0.6893
vn 0.3824 -0.6442 0.6623
vn 0.2864 -0.6439 0.7095
vn 0.2312 -0.6679 0.7074
vn 0.2379 -0.6428 0.7281
vn 0.3927 -0.6189 0.6802
vn 0.4027 -0.5926 0.6976
vn 0.3016 -0.5922 0.7472
vn 0.2941 -0.6186 0.7286
vn 0.2505 -0.5912 0.7666
vn 0.2443 -0.6175 0.7476
vn 0.4126 -0.5647 0.7147
vn 0.3090 -0.5643 0.7655
vn 0.4225 -0.5347 0.7318
vn 0.3164 -0.5344 0.7837
vn 0.2566 -0.5633 0.7854
vn 0.2627 -0.5333 0.8040
vn 0.4324 -0.5022 0.7489
vn 0.3238 -0.5019 0.8020
vn 0.2688 -0.5009 0.8227
vn 0.5327 -0.5019 0.6814
vn 0.5205 -0.5344 0.6659
vn 0.5780 -0.5009 0.6442
vn 0.5649 -0.5333 0.6296
vn 0.4962 -0.5922 0.6348
vn 0.5084 -0.5643 0.6503
vn 0.5387 -0.5912 0.6003
vn 0.5518 -0.5633 0.6149
vn 0.4839 -0.6186 0.6190
vn 0.4712 -0.6439 0.6028
vn 0.5253 -0.6175 0.5854
vn 0.5116 -0.6428 0.5701
vn 0.4578 -0.6689 0.5856
vn 0.4971 -0.6679 0.5539
usemtl pan_Mat
s 1
f 3/1/1 4/2/2 5/3/3 6/4/4
f 1/5/5 3/1/1 6/4/4 2/6/6
f 4/2/2 7/7/7 8/8/8 5/3/3
f 7/7/7 9/9/9 10/10/10 8/8/8
f 11/11/11 14/12/12 15/13/13 12/14/14
f 14/12/12 16/15/15 17/16/16 15/13/13
f 12/14/14 15/13/13 18/17/17 13/18/18
f 15/13/13 17/16/16 19/19/19 18/17/17
f 20/20/20 21/21/21 22/22/22 23/23/23
f 23/23/23 22/22/22 24/24/24 25/25/25
f 16/15/15 20/20/20 23/23/23 17/16/16
f 17/16/16 23/23/23 25/25/25 19/19/19
f 21/21/21 20/20/20 26/26/26 27/27/27
f 20/20/20 16/15/15 28/28/28 26/26/26
f 27/27/27 26/26/26 29/29/29 30/30/30
f 26/26/26 28/28/28 31/31/31 29/29/29
f 14/12/12 11/11/11 32/32/32 33/33/33
f 33/33/33 32/32/32 34/34/34 35/35/35
f 16/15/15 14/12/12 33/33/33 28/28/28
f 28/28/28 33/33/33 35/35/35 31/31/31
f 36/36/36 37/37/37 38/38/38 39/39/39
f 37/37/37 40/40/40 41/41/41 38/38/38
f 39/39/39 38/38/38 42/42/42 43/43/43
f 38/38/38 41/41/41 44/44/44 42/42/42
f 45/45/45 46/46/46 47/47/47 48/48/48
f 48/48/48 47/47/47 49/49/49 50/50/50
f 40/40/40 45/45/45 48/48/48 41/41/41
f 41/41/41 48/48/48 50/50/50 44/44/44
f 46/46/46 51/51/51 52/52/52 47/47/47
f 51/51/51 53/53/53 54/54/54 52/52/52
f 47/47/47 52/52/52 55/55/55 49/49/49
f 52/52/52 54/54/54 56/56/56 55/55/55
f 57/57/57 58/58/58 59/59/59 60/60/60
f 60/60/60 59/59/59 61/61/61 62/62/62
f 53/53/53 57/57/57 60/60/60 54/54/54
f 54/54/54 60/60/60 62/62/62 56/56/56
f 58/58/58 57/57/57 63/63/63 64/64/64
f 57/57/57 53/53/53 65/65/65 63/63/63
f 64/64/64 63/63/63 66/66/66 67/67/67
f 63/63/63 65/65/65 68/68/68 66/66/66
f 51/51/51 46/46/46 69/69/69 70/70/70
f 70/70/70 69/69/69 71/71/71 72/72/72
f 53/53/53 51/51/51 70/70/70 65/65/65
f 65/65/65 70/70/70 72/72/72 68/68/68
f 46/46/46 45/45/45 73/73/73 69/69/69
f 45/45/45 40/40/40 74/74/74 73/73/73
f 69/69/69 73/73/73 75/75/75 71/71/71
f 73/73/73 74/74/74 76/76/76 75/75/75
f 37/37/37 36/36/36 77/77/77 78/78/78
f 78/78/78 77/77/77 79/79/79 80/80/80
f 40/40/40 37/37/37 78/78/78 74/74/74
f 74/74/74 78/78/78 80/80/80 76/76/76
f 84/81/81 58/58/58 64/64/64 85/82/82
f 85/82/82 64/64/64 67/67/67 86/83/83
f 81/84/84 84/81/81 85/82/82 82/85/85
f 82/85/85 85/82/82 86/83/83 83/86/86
f 58/58/58 84/81/81 87/87/87 59/59/59
f 84/81/81 81/84/84 88/88/88 87/87/87
f 59/59/59 87/87/87 89/89/89 61/61/61
f 87/87/87 88/88/88 90/90/90 89/89/89
f 91/91/91 36/36/36 39/39/39 92/92/92
f 92/92/92 39/39/39 43/43/43 93/93/93
f 36/36/36 91/91/91 94/94/94 77/77/77
f 77/77/77 94/94/94 95/95/95 79/79/79
f 21/21/21 96/96/96 97/97/97 22/22/22
f 96/96/96 98/98/98 99/99/99 97/97/97
f 22/22/22 97/97/97 100/100/100 24/24/24
f 97/97/97 99/99/99 101/101/101 100/100/100
f 102/102/102 103/103/103 104/104/104 105/105/105
f 105/105/105 104/104/104 106/106/106 107/107/107
f 98/98/98 102/102/102 105/105/105 99/99/99
f 99/99/99 105/105/105 107/107/107 101/101/101
f 103/103/103 108/108/108 109/109/109 104/104/104
f 108/108/108 110/110/110 111/111/111 109/109/109
f 104/104/104 109/109/109 112/112/112 106/106/106
f 109/109/109 111/111/111 113/113/113 112/112/112
f 114/114/114 4/2/2 3/1/1 115/115/115
f 115/115/115 3/1/1 1/5/5 116/116/116
f 110/110/110 114/114/114 115/115/115 111/111/111
f 111/111/111 115/115/115 116/116/116 113/113/113
f 4/2/2 114/114/114 117/117/117 7/7/7
f 114/114/114 110/110/110 118/118/118 117/117/117
f 7/7/7 117/117/117 119/119/119 9/9/9
f 117/117/117 118/118/118 120/120/120 119/119/119
f 108/108/108 103/103/103 121/121/121 122/122/122
f 122/122/122 121/121/121 123/123/123 124/124/124
f 110/110/110 108/108/108 122/122/122 118/118/118
f 118/118/118 122/122/122 124/124/124 120/120/120
f 103/103/103 102/102/102 125/125/125 121/121/121
f 102/102/102 98/98/98 126/126/126 125/125/125
f 121/121/121 125/125/125 127/127/127 123/123/123
f 125/125/125 126/126/126 128/128/128 127/127/127
f 96/96/96 21/21/21 27/27/27 129/129/129
f 129/129/129 27/27/27 30/30/30 130/130/130
f 98/98/98 96/96/96 129/129/129 126/126/126
f 126/126/126 129/129/129 130/130/130 128/128/128
