# Blender v2.93.10 OBJ File: 'separated_pan.blend'
# www.blender.org
mtllib pan_21.mtl
o pan_21_pan_00.023
v -0.138109 0.049613 -0.102250
v -0.136818 0.049613 -0.120135
v -0.136105 0.047527 -0.120042
v -0.137389 0.047527 -0.102250
v -0.133107 0.049613 -0.137740
v -0.132413 0.047527 -0.137555
v -0.135241 0.045056 -0.119929
v -0.136516 0.045056 -0.102250
v -0.131572 0.045056 -0.137331
v -0.129486 0.039264 -0.136775
v -0.130594 0.042276 -0.137070
v -0.133096 0.039264 -0.119648
v -0.134352 0.039264 -0.102250
v -0.135501 0.042276 -0.102250
v -0.134235 0.042276 -0.119797
v -0.125473 0.029591 -0.135705
v -0.126917 0.032845 -0.136090
v -0.130188 0.029591 -0.102250
v -0.128971 0.029591 -0.119109
v -0.131686 0.032845 -0.102250
v -0.130455 0.032845 -0.119303
v -0.131833 0.036095 -0.119483
v -0.133077 0.036095 -0.102250
v -0.128257 0.036095 -0.136447
v -0.133107 0.049613 -0.066759
v -0.132413 0.047527 -0.066944
v -0.131572 0.045056 -0.067169
v -0.136818 0.049613 -0.084365
v -0.136105 0.047527 -0.084458
v -0.135241 0.045056 -0.084571
v -0.133096 0.039264 -0.084851
v -0.134235 0.042276 -0.084703
v -0.129486 0.039264 -0.067725
v -0.130594 0.042276 -0.067429
v -0.128971 0.029591 -0.085391
v -0.125473 0.029591 -0.068795
v -0.130455 0.032845 -0.085197
v -0.126917 0.032845 -0.068410
v -0.128257 0.036095 -0.068052
v -0.131833 0.036095 -0.085016
v -0.134200 0.054521 -0.138032
v -0.133809 0.054519 -0.137927
v -0.133349 0.054511 -0.137805
v -0.137942 0.054521 -0.120282
v -0.139243 0.054521 -0.102250
v -0.138837 0.054519 -0.102250
v -0.137539 0.054519 -0.120229
v -0.138359 0.054511 -0.102250
v -0.137066 0.054511 -0.120167
v -0.137483 0.054471 -0.102250
v -0.136198 0.054471 -0.120054
v -0.136595 0.054495 -0.120106
v -0.137884 0.054495 -0.102250
v -0.132504 0.054471 -0.137580
v -0.132890 0.054495 -0.137682
v -0.137942 0.054521 -0.084218
v -0.137539 0.054519 -0.084271
v -0.134200 0.054521 -0.066468
v -0.133809 0.054519 -0.066572
v -0.137066 0.054511 -0.084332
v -0.133349 0.054511 -0.066695
v -0.132504 0.054471 -0.066920
v -0.132890 0.054495 -0.066817
v -0.136198 0.054471 -0.084446
v -0.136595 0.054495 -0.084394
v -0.138668 0.051238 -0.102250
v -0.137372 0.051238 -0.120207
v -0.139083 0.052459 -0.102250
v -0.137783 0.052459 -0.120261
v -0.133646 0.051238 -0.137884
v -0.134046 0.052459 -0.137991
v -0.139373 0.053334 -0.102250
v -0.139555 0.053920 -0.102250
v -0.138251 0.053920 -0.120322
v -0.138071 0.053334 -0.120299
v -0.134501 0.053920 -0.138112
v -0.134326 0.053334 -0.138065
v -0.139647 0.054275 -0.102250
v -0.138342 0.054275 -0.120334
v -0.139634 0.054456 -0.102250
v -0.138329 0.054456 -0.120332
v -0.134589 0.054275 -0.138136
v -0.134577 0.054456 -0.138132
v -0.139504 0.054519 -0.102250
v -0.138200 0.054519 -0.120316
v -0.134452 0.054519 -0.138099
v -0.138201 0.054519 -0.084184
v -0.138329 0.054456 -0.084167
v -0.134452 0.054519 -0.066401
v -0.134577 0.054456 -0.066367
v -0.138251 0.053920 -0.084178
v -0.138342 0.054275 -0.084166
v -0.134501 0.053920 -0.066388
v -0.134589 0.054275 -0.066364
v -0.138071 0.053334 -0.084201
v -0.137783 0.052459 -0.084239
v -0.134326 0.053334 -0.066434
v -0.134046 0.052459 -0.066509
v -0.137372 0.051238 -0.084292
v -0.133646 0.051238 -0.066616
v -0.137231 0.054435 -0.102250
v -0.135949 0.054435 -0.120021
v -0.137068 0.054324 -0.102250
v -0.135787 0.054324 -0.120000
v -0.132261 0.054435 -0.137515
v -0.132104 0.054324 -0.137473
v -0.136934 0.054075 -0.102250
v -0.136770 0.053624 -0.102250
v -0.135492 0.053624 -0.119961
v -0.135655 0.054075 -0.119983
v -0.131817 0.053624 -0.137396
v -0.131975 0.054075 -0.137439
v -0.135655 0.054075 -0.084517
v -0.135492 0.053624 -0.084538
v -0.135787 0.054324 -0.084500
v -0.131975 0.054075 -0.067061
v -0.131817 0.053624 -0.067103
v -0.132104 0.054324 -0.067027
v -0.135949 0.054435 -0.084479
v -0.132261 0.054435 -0.066985
v -0.135124 0.048914 -0.102250
v -0.134420 0.046884 -0.102250
v -0.133163 0.046884 -0.119657
v -0.133861 0.048914 -0.119748
v -0.133591 0.044545 -0.102250
v -0.132343 0.044545 -0.119550
v -0.129552 0.046884 -0.136792
v -0.130230 0.048914 -0.136973
v -0.128753 0.044545 -0.136579
v -0.132640 0.041954 -0.102250
v -0.131568 0.039169 -0.102250
v -0.130338 0.039169 -0.119288
v -0.131401 0.041954 -0.119427
v -0.126803 0.039169 -0.136059
v -0.127837 0.041954 -0.136335
v -0.130376 0.036248 -0.102250
v -0.129158 0.036248 -0.119133
v -0.129069 0.033256 -0.102250
v -0.127863 0.033256 -0.118964
v -0.125655 0.036248 -0.135753
v -0.124395 0.033256 -0.135417
v -0.127653 0.030259 -0.102250
v -0.126460 0.030259 -0.118781
v -0.123030 0.030259 -0.135053
v -0.126460 0.030259 -0.085719
v -0.127863 0.033256 -0.085535
v -0.123030 0.030259 -0.069446
v -0.124395 0.033256 -0.069082
v -0.130338 0.039169 -0.085212
v -0.129158 0.036248 -0.085366
v -0.126803 0.039169 -0.068440
v -0.125655 0.036248 -0.068746
v -0.131401 0.041954 -0.085073
v -0.132343 0.044545 -0.084950
v -0.127837 0.041954 -0.068165
v -0.128753 0.044545 -0.067920
v -0.133861 0.048914 -0.084751
v -0.133163 0.046884 -0.084843
v -0.130230 0.048914 -0.067526
v -0.129552 0.046884 -0.067707
v -0.136516 0.052908 -0.102250
v -0.135240 0.052908 -0.119929
v -0.136163 0.051901 -0.102250
v -0.134890 0.051901 -0.119883
v -0.131572 0.052908 -0.137331
v -0.131232 0.051901 -0.137240
v -0.135702 0.050578 -0.102250
v -0.134433 0.050578 -0.119823
v -0.130787 0.050578 -0.137122
v -0.134433 0.050578 -0.084677
v -0.134890 0.051901 -0.084617
v -0.130787 0.050578 -0.067378
v -0.131232 0.051901 -0.067259
v -0.135240 0.052908 -0.084571
v -0.131572 0.052908 -0.067169
vt 0.498742 0.266676
vt 0.496112 0.297239
vt 0.492922 0.296761
vt 0.495518 0.266618
vt 0.489432 0.327283
vt 0.486332 0.326394
vt 0.489146 0.296198
vt 0.491701 0.266551
vt 0.482662 0.325343
vt 0.480275 0.294874
vt 0.482735 0.266392
vt 0.487403 0.266475
vt 0.484894 0.295563
vt 0.474037 0.322872
vt 0.478528 0.324158
vt 0.465280 0.292635
vt 0.467580 0.266125
vt 0.472720 0.266216
vt 0.470366 0.293393
vt 0.459455 0.318695
vt 0.464402 0.320112
vt 0.475398 0.294144
vt 0.477805 0.266305
vt 0.469296 0.321513
vt 0.497214 0.236039
vt 0.494010 0.236400
vt 0.490216 0.236832
vt 0.491622 0.205773
vt 0.488492 0.206552
vt 0.484787 0.207473
vt 0.481304 0.237840
vt 0.485944 0.237315
vt 0.476081 0.209636
vt 0.480614 0.208510
vt 0.466239 0.239547
vt 0.471349 0.238968
vt 0.461360 0.213294
vt 0.466353 0.212053
vt 0.476404 0.238395
vt 0.471294 0.210825
vt 0.916493 0.183124
vt 0.920190 0.209393
vt 0.919595 0.209434
vt 0.915909 0.183241
vt 0.918896 0.209481
vt 0.915223 0.183377
vt 0.909252 0.157509
vt 0.908689 0.157699
vt 0.908028 0.157924
vt 0.917611 0.209568
vt 0.913961 0.183630
vt 0.914539 0.183516
vt 0.918200 0.209528
vt 0.906812 0.158338
vt 0.907368 0.158149
vt 0.920077 0.235923
vt 0.919482 0.235886
vt 0.916363 0.262282
vt 0.915780 0.262167
vt 0.918784 0.235842
vt 0.915094 0.262033
vt 0.917499 0.235761
vt 0.918088 0.235799
vt 0.913833 0.261788
vt 0.914410 0.261900
vt 0.501259 0.266722
vt 0.498601 0.297612
vt 0.503151 0.266756
vt 0.500473 0.297892
vt 0.491851 0.327978
vt 0.493671 0.328501
vt 0.504506 0.266781
vt 0.505409 0.266797
vt 0.502706 0.298227
vt 0.501813 0.298092
vt 0.495841 0.329124
vt 0.494973 0.328874
vt 0.505948 0.266807
vt 0.503240 0.298306
vt 0.506214 0.266811
vt 0.503503 0.298347
vt 0.496359 0.329272
vt 0.496614 0.329347
vt 0.920572 0.209367
vt 0.916869 0.183049
vt 0.909613 0.157385
vt 0.920784 0.209353
vt 0.917076 0.183006
vt 0.909814 0.157316
vt 0.920459 0.235947
vt 0.920670 0.235959
vt 0.916737 0.262354
vt 0.916946 0.262395
vt 0.503840 0.235291
vt 0.504376 0.235232
vt 0.498093 0.204168
vt 0.498617 0.204037
vt 0.504641 0.235200
vt 0.498875 0.203973
vt 0.502943 0.235393
vt 0.501597 0.235545
vt 0.497216 0.204385
vt 0.495902 0.204712
vt 0.499715 0.235757
vt 0.494065 0.205169
vt 0.917240 0.209594
vt 0.913597 0.183704
vt 0.033113 0.735407
vt 0.033404 0.735418
vt 0.034259 0.766095
vt 0.033969 0.766120
vt 0.906460 0.158459
vt 0.039193 0.796484
vt 0.038909 0.796547
vt 0.033819 0.735435
vt 0.034524 0.735464
vt 0.035375 0.765994
vt 0.034673 0.766058
vt 0.040287 0.796239
vt 0.039598 0.796395
vt 0.037126 0.704981
vt 0.037821 0.705101
vt 0.036717 0.704911
vt 0.044468 0.675139
vt 0.045141 0.675350
vt 0.044071 0.675015
vt 0.917128 0.235738
vt 0.913468 0.261716
vt 0.036430 0.704863
vt 0.043793 0.674932
vt 0.041830 0.735758
vt 0.044965 0.735884
vt 0.045782 0.765051
vt 0.042658 0.765332
vt 0.048574 0.736030
vt 0.049379 0.764724
vt 0.050480 0.793944
vt 0.047420 0.794631
vt 0.054005 0.793149
vt 0.052577 0.736192
vt 0.056894 0.736367
vt 0.057674 0.763971
vt 0.053370 0.764361
vt 0.062132 0.791320
vt 0.057915 0.792270
vt 0.061446 0.736551
vt 0.062213 0.763561
vt 0.066146 0.736741
vt 0.066899 0.763136
vt 0.066580 0.790322
vt 0.071172 0.789289
vt 0.070907 0.736934
vt 0.071646 0.762708
vt 0.075825 0.788243
vt 0.069011 0.710491
vt 0.073709 0.711303
vt 0.075366 0.684767
vt 0.079919 0.686185
vt 0.059885 0.708913
vt 0.064375 0.709690
vt 0.066520 0.682010
vt 0.070872 0.683366
vt 0.055626 0.708177
vt 0.051678 0.707495
vt 0.062392 0.680725
vt 0.058567 0.679532
vt 0.045028 0.706344
vt 0.048118 0.706879
vt 0.052123 0.677523
vt 0.055117 0.678457
vt 0.035639 0.735508
vt 0.036488 0.765894
vt 0.037205 0.735571
vt 0.038047 0.765751
vt 0.041376 0.795994
vt 0.042903 0.795649
vt 0.039256 0.735654
vt 0.040092 0.765565
vt 0.044906 0.795198
vt 0.042489 0.705905
vt 0.040466 0.705555
vt 0.049663 0.676757
vt 0.047703 0.676145
vt 0.038922 0.705290
vt 0.046207 0.675681
vn -0.9454 -0.3258 0.0000
vn -0.9363 -0.3255 -0.1318
vn -0.9350 -0.3293 -0.1317
vn -0.9441 -0.3295 0.0000
vn -0.9255 -0.3247 -0.1950
vn -0.9242 -0.3284 -0.1948
vn -0.9321 -0.3376 -0.1312
vn -0.9412 -0.3379 0.0000
vn -0.9213 -0.3367 -0.1942
vn -0.9221 -0.3644 -0.1298
vn -0.9311 -0.3647 0.0000
vn -0.9369 -0.3497 0.0000
vn -0.9278 -0.3494 -0.1306
vn -0.9116 -0.3635 -0.1921
vn -0.9171 -0.3485 -0.1933
vn -0.8996 -0.4179 -0.1268
vn -0.9084 -0.4182 0.0000
vn -0.9140 -0.4056 0.0000
vn -0.9052 -0.4053 -0.1274
vn -0.8894 -0.4168 -0.1875
vn -0.8949 -0.4044 -0.1886
vn -0.9148 -0.3829 -0.1288
vn -0.9237 -0.3832 0.0000
vn -0.9043 -0.3819 -0.1906
vn -0.9363 -0.3255 0.1318
vn -0.9350 -0.3293 0.1317
vn -0.9321 -0.3376 0.1312
vn -0.9255 -0.3247 0.1950
vn -0.9242 -0.3284 0.1948
vn -0.9213 -0.3367 0.1942
vn -0.9221 -0.3644 0.1298
vn -0.9278 -0.3494 0.1306
vn -0.9116 -0.3635 0.1921
vn -0.9171 -0.3485 0.1933
vn -0.8996 -0.4178 0.1268
vn -0.9052 -0.4053 0.1274
vn -0.8894 -0.4168 0.1875
vn -0.8949 -0.4044 0.1886
vn -0.9148 -0.3829 0.1288
vn -0.9043 -0.3819 0.1906
vn -0.0018 1.0000 -0.0002
vn -0.0018 1.0000 0.0000
vn 0.0103 0.9999 0.0000
vn 0.0103 0.9999 0.0014
vn 0.0240 0.9997 0.0000
vn 0.0238 0.9997 0.0033
vn -0.0017 1.0000 -0.0003
vn 0.0103 0.9999 0.0021
vn 0.0237 0.9997 0.0050
vn 0.0997 0.9950 0.0000
vn 0.0989 0.9950 0.0139
vn 0.0460 0.9989 0.0065
vn 0.0464 0.9989 0.0000
vn 0.0984 0.9949 0.0207
vn 0.0457 0.9989 0.0096
vn -0.0018 1.0000 0.0002
vn 0.0103 0.9999 -0.0014
vn -0.0017 1.0000 0.0003
vn 0.0103 0.9999 -0.0021
vn 0.0238 0.9997 -0.0033
vn 0.0237 0.9997 -0.0050
vn 0.0989 0.9950 -0.0139
vn 0.0460 0.9989 -0.0065
vn 0.0984 0.9949 -0.0207
vn 0.0457 0.9989 -0.0096
vn -0.9461 -0.3237 0.0000
vn -0.9370 -0.3234 -0.1319
vn -0.9480 -0.3183 0.0000
vn -0.9388 -0.3180 -0.1322
vn -0.9262 -0.3226 -0.1952
vn -0.9279 -0.3172 -0.1956
vn -0.9522 -0.3053 0.0000
vn -0.9621 -0.2728 0.0000
vn -0.9527 -0.2726 -0.1341
vn -0.9430 -0.3050 -0.1328
vn -0.9416 -0.2719 -0.1985
vn -0.9321 -0.3042 -0.1964
vn -0.9958 -0.0912 0.0000
vn -0.9861 -0.0911 -0.1388
vn -0.8355 0.5494 0.0000
vn -0.8271 0.5499 -0.1164
vn -0.9744 -0.0909 -0.2054
vn -0.8164 0.5512 -0.1721
vn -0.2369 0.9715 0.0000
vn -0.2342 0.9716 -0.0331
vn -0.2301 0.9719 -0.0485
vn -0.2342 0.9716 0.0331
vn -0.8271 0.5498 0.1164
vn -0.2302 0.9719 0.0485
vn -0.8165 0.5511 0.1721
vn -0.9527 -0.2726 0.1341
vn -0.9861 -0.0911 0.1388
vn -0.9416 -0.2719 0.1985
vn -0.9744 -0.0910 0.2054
vn -0.9430 -0.3050 0.1328
vn -0.9388 -0.3180 0.1322
vn -0.9321 -0.3042 0.1964
vn -0.9279 -0.3171 0.1956
vn -0.9370 -0.3234 0.1319
vn -0.9262 -0.3226 0.1952
vn 0.3516 0.9362 0.0000
vn 0.3489 0.9358 0.0491
vn 0.7378 0.6750 0.0000
vn 0.7311 0.6744 0.1030
vn 0.3475 0.9348 0.0732
vn 0.7244 0.6722 0.1527
vn 0.9121 0.4099 0.0000
vn 0.9410 0.3383 0.0000
vn 0.9319 0.3380 0.1312
vn 0.9034 0.4095 0.1272
vn 0.9212 0.3371 0.1942
vn 0.8932 0.4082 0.1883
vn 0.9034 0.4094 -0.1272
vn 0.9319 0.3380 -0.1312
vn 0.7311 0.6744 -0.1030
vn 0.8932 0.4082 -0.1883
vn 0.9212 0.3371 -0.1942
vn 0.7244 0.6722 -0.1527
vn 0.3489 0.9359 -0.0491
vn 0.3475 0.9348 -0.0732
vn 0.9447 0.3279 0.0000
vn 0.9437 0.3306 0.0000
vn 0.9346 0.3304 0.1316
vn 0.9355 0.3276 0.1317
vn 0.9407 0.3391 0.0000
vn 0.9316 0.3388 0.1312
vn 0.9238 0.3295 0.1947
vn 0.9248 0.3268 0.1949
vn 0.9209 0.3380 0.1941
vn 0.9360 0.3518 0.0000
vn 0.9297 0.3684 0.0000
vn 0.9207 0.3681 0.1296
vn 0.9270 0.3516 0.1305
vn 0.9101 0.3672 0.1918
vn 0.9163 0.3507 0.1931
vn 0.9213 0.3888 0.0000
vn 0.9124 0.3885 0.1285
vn 0.9105 0.4136 0.0000
vn 0.9017 0.4133 0.1270
vn 0.9020 0.3875 0.1901
vn 0.8914 0.4123 0.1879
vn 0.9040 0.4274 0.0000
vn 0.8954 0.4270 0.1262
vn 0.8853 0.4260 0.1866
vn 0.9017 0.4133 -0.1270
vn 0.8954 0.4270 -0.1262
vn 0.8914 0.4123 -0.1879
vn 0.8853 0.4260 -0.1866
vn 0.9207 0.3681 -0.1296
vn 0.9124 0.3885 -0.1285
vn 0.9101 0.3672 -0.1918
vn 0.9020 0.3875 -0.1901
vn 0.9270 0.3515 -0.1305
vn 0.9316 0.3388 -0.1312
vn 0.9163 0.3507 -0.1931
vn 0.9209 0.3380 -0.1941
vn 0.9355 0.3276 -0.1317
vn 0.9346 0.3304 -0.1316
vn 0.9248 0.3268 -0.1949
vn 0.9238 0.3295 -0.1947
vn 0.9430 0.3327 0.0000
vn 0.9339 0.3324 0.1315
vn 0.9439 0.3301 0.0000
vn 0.9348 0.3298 0.1316
vn 0.9231 0.3316 0.1946
vn 0.9240 0.3289 0.1947
vn 0.9444 0.3287 0.0000
vn 0.9353 0.3284 0.1317
vn 0.9245 0.3275 0.1949
vn 0.9353 0.3284 -0.1317
vn 0.9348 0.3298 -0.1316
vn 0.9245 0.3275 -0.1949
vn 0.9240 0.3289 -0.1947
vn 0.9339 0.3324 -0.1315
vn 0.9231 0.3316 -0.1946
usemtl pan_Mat
s 1
f 1/1/1 2/2/2 3/3/3 4/4/4
f 2/2/2 5/5/5 6/6/6 3/3/3
f 4/4/4 3/3/3 7/7/7 8/8/8
f 3/3/3 6/6/6 9/9/9 7/7/7
f 12/10/10 13/11/11 14/12/12 15/13/13
f 15/13/13 14/12/12 8/8/8 7/7/7
f 10/14/14 12/10/10 15/13/13 11/15/15
f 11/15/15 15/13/13 7/7/7 9/9/9
f 19/16/16 18/17/17 20/18/18 21/19/19
f 16/20/20 19/16/16 21/19/19 17/21/21
f 13/11/11 12/10/10 22/22/22 23/23/23
f 12/10/10 10/14/14 24/24/24 22/22/22
f 23/23/23 22/22/22 21/19/19 20/18/18
f 22/22/22 24/24/24 17/21/21 21/19/19
f 28/25/25 1/1/1 4/4/4 29/26/26
f 29/26/26 4/4/4 8/8/8 30/27/27
f 25/28/28 28/25/25 29/26/26 26/29/29
f 26/29/29 29/26/26 30/27/27 27/30/30
f 13/11/11 31/31/31 32/32/32 14/12/12
f 31/31/31 33/33/33 34/34/34 32/32/32
f 14/12/12 32/32/32 30/27/27 8/8/8
f 32/32/32 34/34/34 27/30/30 30/27/27
f 18/17/17 35/35/35 37/36/36 20/18/18
f 35/35/35 36/37/37 38/38/38 37/36/36
f 31/31/31 13/11/11 23/23/23 40/39/39
f 40/39/39 23/23/23 20/18/18 37/36/36
f 33/33/33 31/31/31 40/39/39 39/40/40
f 39/40/40 40/39/39 37/36/36 38/38/38
f 44/41/41 45/42/42 46/43/43 47/44/44
f 47/44/44 46/43/43 48/45/45 49/46/46
f 41/47/47 44/41/41 47/44/44 42/48/48
f 42/48/48 47/44/44 49/46/46 43/49/49
f 50/50/50 51/51/51 52/52/52 53/53/53
f 51/51/51 54/54/54 55/55/55 52/52/52
f 53/53/53 52/52/52 49/46/46 48/45/45
f 52/52/52 55/55/55 43/49/49 49/46/46
f 45/42/42 56/56/56 57/57/57 46/43/43
f 56/56/56 58/58/58 59/59/59 57/57/57
f 46/43/43 57/57/57 60/60/60 48/45/45
f 57/57/57 59/59/59 61/61/61 60/60/60
f 64/62/62 50/50/50 53/53/53 65/63/63
f 65/63/63 53/53/53 48/45/45 60/60/60
f 62/64/64 64/62/62 65/63/63 63/65/65
f 63/65/65 65/63/63 60/60/60 61/61/61
f 1/1/1 66/66/66 67/67/67 2/2/2
f 66/66/66 68/68/68 69/69/69 67/67/67
f 2/2/2 67/67/67 70/70/70 5/5/5
f 67/67/67 69/69/69 71/71/71 70/70/70
f 72/72/72 73/73/73 74/74/74 75/75/75
f 75/75/75 74/74/74 76/76/76 77/77/77
f 68/68/68 72/72/72 75/75/75 69/69/69
f 69/69/69 75/75/75 77/77/77 71/71/71
f 73/73/73 78/78/78 79/79/79 74/74/74
f 78/78/78 80/80/80 81/81/81 79/79/79
f 74/74/74 79/79/79 82/82/82 76/76/76
f 79/79/79 81/81/81 83/83/83 82/82/82
f 84/84/84 45/42/42 44/41/41 85/85/85
f 85/85/85 44/41/41 41/47/47 86/86/86
f 80/87/80 84/84/84 85/85/85 81/88/81
f 81/88/81 85/85/85 86/86/86 83/89/83
f 45/42/42 84/84/84 87/90/87 56/56/56
f 84/84/84 80/87/80 88/91/88 87/90/87
f 56/56/56 87/90/87 89/92/89 58/58/58
f 87/90/87 88/91/88 90/93/90 89/92/89
f 78/78/78 73/73/73 91/94/91 92/95/92
f 92/95/92 91/94/91 93/96/93 94/97/94
f 80/80/80 78/78/78 92/95/92 88/98/88
f 88/98/88 92/95/92 94/97/94 90/99/90
f 73/73/73 72/72/72 95/100/95 91/94/91
f 72/72/72 68/68/68 96/101/96 95/100/95
f 91/94/91 95/100/95 97/102/97 93/96/93
f 95/100/95 96/101/96 98/103/98 97/102/97
f 66/66/66 1/1/1 28/25/25 99/104/99
f 99/104/99 28/25/25 25/28/28 100/105/100
f 68/68/68 66/66/66 99/104/99 96/101/96
f 96/101/96 99/104/99 100/105/100 98/103/98
f 50/50/50 101/106/101 102/107/102 51/51/51
f 101/108/101 103/109/103 104/110/104 102/111/102
f 51/51/51 102/107/102 105/112/105 54/54/54
f 102/111/102 104/110/104 106/113/106 105/114/105
f 107/115/107 108/116/108 109/117/109 110/118/110
f 110/118/110 109/117/109 111/119/111 112/120/112
f 103/109/103 107/115/107 110/118/110 104/110/104
f 104/110/104 110/118/110 112/120/112 106/113/106
f 108/116/108 107/115/107 113/121/113 114/122/114
f 107/115/107 103/109/103 115/123/115 113/121/113
f 114/122/114 113/121/113 116/124/116 117/125/117
f 113/121/113 115/123/115 118/126/118 116/124/116
f 101/106/101 50/50/50 64/62/62 119/127/119
f 119/127/119 64/62/62 62/64/64 120/128/120
f 103/109/103 101/108/101 119/129/119 115/123/115
f 115/123/115 119/129/119 120/130/120 118/126/118
f 121/131/121 122/132/122 123/133/123 124/134/124
f 122/132/122 125/135/125 126/136/126 123/133/123
f 124/134/124 123/133/123 127/137/127 128/138/128
f 123/133/123 126/136/126 129/139/129 127/137/127
f 130/140/130 131/141/131 132/142/132 133/143/133
f 133/143/133 132/142/132 134/144/134 135/145/135
f 125/135/125 130/140/130 133/143/133 126/136/126
f 126/136/126 133/143/133 135/145/135 129/139/129
f 131/141/131 136/146/136 137/147/137 132/142/132
f 136/146/136 138/148/138 139/149/139 137/147/137
f 132/142/132 137/147/137 140/150/140 134/144/134
f 137/147/137 139/149/139 141/151/141 140/150/140
f 138/148/138 142/152/142 143/153/143 139/149/139
f 139/149/139 143/153/143 144/154/144 141/151/141
f 142/152/142 138/148/138 146/155/145 145/156/146
f 145/156/146 146/155/145 148/157/147 147/158/148
f 136/146/136 131/141/131 149/159/149 150/160/150
f 150/160/150 149/159/149 151/161/151 152/162/152
f 138/148/138 136/146/136 150/160/150 146/155/145
f 146/155/145 150/160/150 152/162/152 148/157/147
f 131/141/131 130/140/130 153/163/153 149/159/149
f 130/140/130 125/135/125 154/164/154 153/163/153
f 149/159/149 153/163/153 155/165/155 151/161/151
f 153/163/153 154/164/154 156/166/156 155/165/155
f 122/132/122 121/131/121 157/167/157 158/168/158
f 158/168/158 157/167/157 159/169/159 160/170/160
f 125/135/125 122/132/122 158/168/158 154/164/154
f 154/164/154 158/168/158 160/170/160 156/166/156
f 108/116/108 161/171/161 162/172/162 109/117/109
f 161/171/161 163/173/163 164/174/164 162/172/162
f 109/117/109 162/172/162 165/175/165 111/119/111
f 162/172/162 164/174/164 166/176/166 165/175/165
f 167/177/167 121/131/121 124/134/124 168/178/168
f 168/178/168 124/134/124 128/138/128 169/179/169
f 163/173/163 167/177/167 168/178/168 164/174/164
f 164/174/164 168/178/168 169/179/169 166/176/166
f 121/131/121 167/177/167 170/180/170 157/167/157
f 167/177/167 163/173/163 171/181/171 170/180/170
f 157/167/157 170/180/170 172/182/172 159/169/159
f 170/180/170 171/181/171 173/183/173 172/182/172
f 161/171/161 108/116/108 114/122/114 174/184/174
f 174/184/174 114/122/114 117/125/117 175/185/175
f 163/173/163 161/171/161 174/184/174 171/181/171
f 171/181/171 174/184/174 175/185/175 173/183/173
