# Blender v2.93.10 OBJ File: 'separated_pan.blend'
# www.blender.org
mtllib pan_17.mtl
o pan_17_pan_00.019
v 0.069054 0.049613 -0.221855
v 0.083898 0.049613 -0.211795
v 0.083460 0.047527 -0.211224
v 0.068694 0.047527 -0.221232
v 0.097289 0.049613 -0.199779
v 0.096782 0.047527 -0.199270
v 0.082931 0.045056 -0.210532
v 0.068258 0.045056 -0.220476
v 0.096168 0.045056 -0.198654
v 0.094643 0.039264 -0.197125
v 0.095452 0.042276 -0.197937
v 0.081615 0.039264 -0.208815
v 0.067176 0.039264 -0.218602
v 0.067751 0.042276 -0.219597
v 0.082314 0.042276 -0.209727
v 0.091709 0.029591 -0.194185
v 0.092765 0.032845 -0.195243
v 0.065094 0.029591 -0.214996
v 0.079086 0.029591 -0.205512
v 0.065843 0.032845 -0.216293
v 0.079996 0.032845 -0.206701
v 0.080841 0.036095 -0.207804
v 0.066538 0.036095 -0.217498
v 0.093745 0.036095 -0.196225
v 0.035818 0.049613 -0.235269
v 0.035631 0.047527 -0.234576
v 0.035405 0.045056 -0.233735
v 0.052920 0.049613 -0.229680
v 0.052644 0.047527 -0.229016
v 0.052310 0.045056 -0.228211
v 0.051481 0.039264 -0.226213
v 0.051921 0.042276 -0.227274
v 0.034844 0.039264 -0.231650
v 0.035142 0.042276 -0.232758
v 0.049885 0.029591 -0.222371
v 0.033764 0.029591 -0.227640
v 0.050459 0.032845 -0.223754
v 0.034152 0.032845 -0.229083
v 0.034513 0.036095 -0.230423
v 0.050992 0.036095 -0.225037
v 0.098088 0.054521 -0.200580
v 0.097802 0.054519 -0.200293
v 0.097466 0.054511 -0.199956
v 0.084587 0.054521 -0.212695
v 0.069622 0.054521 -0.222838
v 0.069419 0.054519 -0.222486
v 0.084340 0.054519 -0.212373
v 0.069180 0.054511 -0.222072
v 0.084050 0.054511 -0.211994
v 0.068742 0.054471 -0.221314
v 0.083518 0.054471 -0.211299
v 0.083761 0.054495 -0.211617
v 0.068942 0.054495 -0.221660
v 0.096849 0.054471 -0.199337
v 0.097131 0.054495 -0.199620
v 0.053355 0.054521 -0.230727
v 0.053199 0.054519 -0.230352
v 0.036112 0.054521 -0.236362
v 0.036007 0.054519 -0.235971
v 0.053016 0.054511 -0.229911
v 0.035883 0.054511 -0.235510
v 0.035656 0.054471 -0.234667
v 0.035760 0.054495 -0.235052
v 0.052681 0.054471 -0.229103
v 0.052834 0.054495 -0.229472
v 0.069334 0.051238 -0.222340
v 0.084237 0.051238 -0.212238
v 0.069542 0.052459 -0.222699
v 0.084490 0.052459 -0.212568
v 0.097683 0.051238 -0.200173
v 0.097976 0.052459 -0.200467
v 0.069687 0.053334 -0.222950
v 0.069778 0.053920 -0.223108
v 0.084777 0.053920 -0.212942
v 0.084666 0.053334 -0.212798
v 0.098308 0.053920 -0.200800
v 0.098180 0.053334 -0.200672
v 0.069823 0.054275 -0.223187
v 0.084832 0.054275 -0.213015
v 0.069817 0.054456 -0.223177
v 0.084825 0.054456 -0.213005
v 0.098373 0.054275 -0.200865
v 0.098364 0.054456 -0.200856
v 0.069752 0.054519 -0.223064
v 0.084746 0.054519 -0.212902
v 0.098272 0.054519 -0.200764
v 0.053455 0.054519 -0.230968
v 0.053505 0.054456 -0.231088
v 0.036180 0.054519 -0.236613
v 0.036214 0.054456 -0.236738
v 0.053474 0.053920 -0.231015
v 0.053510 0.054275 -0.231099
v 0.036193 0.053920 -0.236662
v 0.036217 0.054275 -0.236750
v 0.053405 0.053334 -0.230847
v 0.053294 0.052459 -0.230579
v 0.036146 0.053334 -0.236487
v 0.036071 0.052459 -0.236208
v 0.053134 0.051238 -0.230196
v 0.035963 0.051238 -0.235808
v 0.068616 0.054435 -0.221095
v 0.083365 0.054435 -0.211099
v 0.068534 0.054324 -0.220954
v 0.083266 0.054324 -0.210970
v 0.096671 0.054435 -0.199159
v 0.096556 0.054324 -0.199044
v 0.068467 0.054075 -0.220838
v 0.068385 0.053624 -0.220696
v 0.083085 0.053624 -0.210734
v 0.083185 0.054075 -0.210864
v 0.096347 0.053624 -0.198834
v 0.096462 0.054075 -0.198949
v 0.052470 0.054075 -0.228597
v 0.052407 0.053624 -0.228445
v 0.052522 0.054324 -0.228720
v 0.035513 0.054075 -0.234138
v 0.035471 0.053624 -0.233980
v 0.035548 0.054324 -0.234267
v 0.052584 0.054435 -0.228870
v 0.035590 0.054435 -0.234424
v 0.067562 0.048914 -0.219270
v 0.067210 0.046884 -0.218660
v 0.081657 0.046884 -0.208869
v 0.082084 0.048914 -0.209427
v 0.066796 0.044545 -0.217943
v 0.081154 0.044545 -0.208212
v 0.094690 0.046884 -0.197173
v 0.095186 0.048914 -0.197671
v 0.094107 0.044545 -0.196588
v 0.066320 0.041954 -0.217119
v 0.065784 0.039169 -0.216191
v 0.079925 0.039169 -0.206607
v 0.080576 0.041954 -0.207457
v 0.092682 0.039169 -0.195160
v 0.093437 0.041954 -0.195917
v 0.065188 0.036248 -0.215159
v 0.079201 0.036248 -0.205662
v 0.064535 0.033256 -0.214027
v 0.078407 0.033256 -0.204625
v 0.091842 0.036248 -0.194318
v 0.090922 0.033256 -0.193395
v 0.063826 0.030259 -0.212800
v 0.077546 0.030259 -0.203502
v 0.089924 0.030259 -0.192395
v 0.048914 0.030259 -0.220032
v 0.049457 0.033256 -0.221340
v 0.033106 0.030259 -0.225198
v 0.033474 0.033256 -0.226563
v 0.050414 0.039169 -0.223645
v 0.049957 0.036248 -0.222545
v 0.034122 0.039169 -0.228969
v 0.033813 0.036248 -0.227821
v 0.050825 0.041954 -0.224634
v 0.051189 0.044545 -0.225512
v 0.034400 0.041954 -0.230002
v 0.034646 0.044545 -0.230918
v 0.051776 0.048914 -0.226926
v 0.051507 0.046884 -0.226276
v 0.035044 0.048914 -0.232394
v 0.034861 0.046884 -0.231716
v 0.068258 0.052908 -0.220476
v 0.082930 0.052908 -0.210532
v 0.068082 0.051901 -0.220170
v 0.082716 0.051901 -0.210252
v 0.096167 0.052908 -0.198654
v 0.095919 0.051901 -0.198405
v 0.067851 0.050578 -0.219771
v 0.082436 0.050578 -0.209886
v 0.095594 0.050578 -0.198079
v 0.051998 0.050578 -0.227459
v 0.052175 0.051901 -0.227885
v 0.035194 0.050578 -0.232951
v 0.035313 0.051901 -0.233395
v 0.052310 0.052908 -0.228211
v 0.035405 0.052908 -0.233735
vt 0.141255 0.464566
vt 0.116103 0.447008
vt 0.118110 0.444484
vt 0.142917 0.461803
vt 0.093424 0.426202
vt 0.095743 0.423961
vt 0.120487 0.441496
vt 0.144884 0.458531
vt 0.098490 0.421308
vt 0.126069 0.434476
vt 0.149504 0.450846
vt 0.147099 0.454847
vt 0.123163 0.438130
vt 0.104942 0.415075
vt 0.101583 0.418321
vt 0.135506 0.422608
vt 0.157313 0.437854
vt 0.154664 0.442260
vt 0.132305 0.426633
vt 0.115851 0.404535
vt 0.112150 0.408110
vt 0.129138 0.430616
vt 0.152044 0.446620
vt 0.108490 0.411647
vt 0.168550 0.478561
vt 0.169838 0.475604
vt 0.171363 0.472105
vt 0.197556 0.488850
vt 0.198447 0.485751
vt 0.199502 0.482081
vt 0.174945 0.463882
vt 0.173080 0.468163
vt 0.201982 0.473460
vt 0.200691 0.477949
vt 0.180999 0.449981
vt 0.178946 0.454696
vt 0.206175 0.458883
vt 0.204752 0.463827
vt 0.176914 0.459361
vt 0.203345 0.468719
vt 0.581517 0.069938
vt 0.602419 0.053602
vt 0.602751 0.054096
vt 0.581910 0.070385
vt 0.603142 0.054678
vt 0.582373 0.070911
vt 0.562954 0.089016
vt 0.563402 0.089409
vt 0.563928 0.089870
vt 0.603860 0.055746
vt 0.583222 0.071877
vt 0.582834 0.071435
vt 0.603532 0.055258
vt 0.564894 0.090715
vt 0.564452 0.090327
vt 0.625450 0.040436
vt 0.625715 0.040967
vt 0.650135 0.030472
vt 0.650328 0.031035
vt 0.626027 0.041595
vt 0.650555 0.031696
vt 0.626600 0.042747
vt 0.626338 0.042220
vt 0.650972 0.032910
vt 0.650781 0.032354
vt 0.139958 0.466724
vt 0.114536 0.448978
vt 0.138981 0.468345
vt 0.113356 0.450458
vt 0.091613 0.427950
vt 0.090251 0.429263
vt 0.138282 0.469506
vt 0.137817 0.470279
vt 0.111951 0.452226
vt 0.112513 0.451518
vt 0.088626 0.430831
vt 0.089276 0.430204
vt 0.137539 0.470742
vt 0.111614 0.452647
vt 0.137402 0.470970
vt 0.111448 0.452855
vt 0.088238 0.431206
vt 0.088046 0.431390
vt 0.602206 0.053283
vt 0.581264 0.069650
vt 0.562666 0.088766
vt 0.602087 0.053107
vt 0.581124 0.069492
vt 0.562507 0.088626
vt 0.625280 0.040092
vt 0.625186 0.039903
vt 0.650011 0.030109
vt 0.649942 0.029910
vt 0.165885 0.484674
vt 0.165669 0.485168
vt 0.195711 0.495257
vt 0.195562 0.495776
vt 0.165564 0.485412
vt 0.195490 0.496032
vt 0.166245 0.483845
vt 0.166787 0.482603
vt 0.195961 0.494390
vt 0.196335 0.493087
vt 0.167544 0.480868
vt 0.196859 0.491269
vt 0.604068 0.056057
vt 0.583468 0.072157
vt 0.378992 0.954058
vt 0.378857 0.953801
vt 0.404997 0.937723
vt 0.405163 0.937960
vt 0.565174 0.090960
vt 0.428848 0.918255
vt 0.429043 0.918469
vt 0.378664 0.953433
vt 0.378336 0.952809
vt 0.404351 0.936806
vt 0.404758 0.937383
vt 0.428088 0.917430
vt 0.428567 0.917948
vt 0.350636 0.965797
vt 0.350392 0.965135
vt 0.350780 0.966187
vt 0.321122 0.974359
vt 0.320967 0.973671
vt 0.321214 0.974764
vt 0.626766 0.043081
vt 0.651093 0.033262
vt 0.350881 0.966458
vt 0.321280 0.975047
vt 0.374938 0.946334
vt 0.373481 0.943556
vt 0.398330 0.928266
vt 0.400137 0.930829
vt 0.371802 0.940357
vt 0.396249 0.925313
vt 0.421003 0.909751
vt 0.423131 0.912055
vt 0.418554 0.907095
vt 0.369940 0.936810
vt 0.367933 0.932984
vt 0.391450 0.918506
vt 0.393940 0.922038
vt 0.412906 0.900971
vt 0.415837 0.904148
vt 0.365817 0.928949
vt 0.388825 0.914780
vt 0.363632 0.924785
vt 0.386115 0.910934
vt 0.409817 0.897618
vt 0.406626 0.894157
vt 0.361418 0.920565
vt 0.383369 0.907038
vt 0.403394 0.890651
vt 0.339466 0.935428
vt 0.337820 0.930954
vt 0.314010 0.942786
vt 0.312962 0.938135
vt 0.342663 0.944121
vt 0.341090 0.939843
vt 0.316047 0.951826
vt 0.315045 0.947378
vt 0.344155 0.948176
vt 0.345538 0.951937
vt 0.316997 0.956043
vt 0.317877 0.959952
vt 0.347867 0.958272
vt 0.346784 0.955328
vt 0.319360 0.966537
vt 0.318671 0.963478
vt 0.377817 0.951820
vt 0.403708 0.935892
vt 0.377089 0.950433
vt 0.402806 0.934613
vt 0.427332 0.916609
vt 0.426269 0.915459
vt 0.376135 0.948616
vt 0.401622 0.932935
vt 0.424877 0.913949
vt 0.348756 0.960689
vt 0.349465 0.962617
vt 0.319925 0.969051
vt 0.320377 0.971054
vt 0.350006 0.964086
vt 0.320721 0.972581
vn 0.4727 -0.3258 -0.8188
vn 0.5823 -0.3255 -0.7449
vn 0.5815 -0.3293 -0.7439
vn 0.4721 -0.3295 -0.8176
vn 0.6317 -0.3247 -0.7039
vn 0.6308 -0.3284 -0.7030
vn 0.5797 -0.3376 -0.7416
vn 0.4706 -0.3379 -0.8151
vn 0.6288 -0.3367 -0.7008
vn 0.5735 -0.3644 -0.7337
vn 0.4656 -0.3647 -0.8064
vn 0.4684 -0.3497 -0.8113
vn 0.5770 -0.3494 -0.7382
vn 0.6222 -0.3635 -0.6934
vn 0.6260 -0.3485 -0.6976
vn 0.5596 -0.4179 -0.7157
vn 0.4542 -0.4182 -0.7866
vn 0.4570 -0.4056 -0.7916
vn 0.5630 -0.4053 -0.7202
vn 0.6071 -0.4168 -0.6765
vn 0.6108 -0.4044 -0.6807
vn 0.5689 -0.3829 -0.7278
vn 0.4618 -0.3832 -0.7999
vn 0.6172 -0.3819 -0.6879
vn 0.3540 -0.3255 -0.8768
vn 0.3535 -0.3293 -0.8755
vn 0.3524 -0.3376 -0.8728
vn 0.2938 -0.3247 -0.8990
vn 0.2934 -0.3284 -0.8978
vn 0.2925 -0.3367 -0.8950
vn 0.3486 -0.3644 -0.8635
vn 0.3507 -0.3494 -0.8688
vn 0.2894 -0.3635 -0.8855
vn 0.2911 -0.3485 -0.8909
vn 0.3399 -0.4178 -0.8425
vn 0.3422 -0.4053 -0.8477
vn 0.2824 -0.4168 -0.8640
vn 0.2841 -0.4044 -0.8693
vn 0.3458 -0.3829 -0.8566
vn 0.2871 -0.3819 -0.8784
vn 0.0011 1.0000 -0.0014
vn 0.0009 1.0000 -0.0016
vn -0.0052 0.9999 0.0090
vn -0.0064 0.9999 0.0082
vn -0.0120 0.9997 0.0208
vn -0.0148 0.9997 0.0189
vn 0.0012 1.0000 -0.0013
vn -0.0070 0.9999 0.0078
vn -0.0161 0.9997 0.0180
vn -0.0498 0.9950 0.0863
vn -0.0615 0.9950 0.0787
vn -0.0286 0.9989 0.0366
vn -0.0232 0.9989 0.0402
vn -0.0671 0.9949 0.0748
vn -0.0312 0.9989 0.0348
vn 0.0007 1.0000 -0.0017
vn -0.0039 0.9999 0.0096
vn 0.0005 1.0000 -0.0016
vn -0.0032 0.9999 0.0100
vn -0.0090 0.9997 0.0223
vn -0.0075 0.9997 0.0230
vn -0.0374 0.9950 0.0926
vn -0.0174 0.9989 0.0431
vn -0.0312 0.9949 0.0956
vn -0.0145 0.9989 0.0444
vn 0.4731 -0.3237 -0.8194
vn 0.5828 -0.3234 -0.7455
vn 0.4740 -0.3183 -0.8210
vn 0.5839 -0.3180 -0.7469
vn 0.6321 -0.3226 -0.7045
vn 0.6334 -0.3172 -0.7058
vn 0.4761 -0.3053 -0.8247
vn 0.4810 -0.2728 -0.8332
vn 0.5925 -0.2726 -0.7580
vn 0.5865 -0.3050 -0.7503
vn 0.6427 -0.2719 -0.7162
vn 0.6362 -0.3042 -0.7090
vn 0.4979 -0.0911 -0.8624
vn 0.6132 -0.0911 -0.7846
vn 0.4177 0.5495 -0.7236
vn 0.5143 0.5499 -0.6581
vn 0.6651 -0.0909 -0.7412
vn 0.5572 0.5512 -0.6210
vn 0.1184 0.9715 -0.2051
vn 0.1457 0.9716 -0.1863
vn 0.1570 0.9719 -0.1750
vn 0.0884 0.9716 -0.2193
vn 0.3127 0.5499 -0.7745
vn 0.0730 0.9719 -0.2235
vn 0.2592 0.5512 -0.7931
vn 0.3602 -0.2726 -0.8921
vn 0.3728 -0.0911 -0.9234
vn 0.2989 -0.2719 -0.9147
vn 0.3093 -0.0910 -0.9466
vn 0.3565 -0.3050 -0.8831
vn 0.3549 -0.3180 -0.8791
vn 0.2959 -0.3042 -0.9055
vn 0.2946 -0.3171 -0.9014
vn 0.3542 -0.3234 -0.8774
vn 0.2940 -0.3226 -0.8997
vn -0.1758 0.9361 0.3045
vn -0.2170 0.9358 0.2777
vn -0.3689 0.6750 0.6389
vn -0.4547 0.6744 0.5817
vn -0.2372 0.9348 0.2644
vn -0.4945 0.6722 0.5510
vn -0.4560 0.4099 0.7899
vn -0.4705 0.3383 0.8149
vn -0.5796 0.3380 0.7414
vn -0.5619 0.4095 0.7187
vn -0.6287 0.3371 0.7007
vn -0.6097 0.4082 0.6794
vn -0.3415 0.4095 0.8460
vn -0.3523 0.3380 0.8727
vn -0.2764 0.6744 0.6847
vn -0.2835 0.4082 0.8677
vn -0.2924 0.3371 0.8949
vn -0.2300 0.6722 0.7037
vn -0.1320 0.9359 0.3267
vn -0.1103 0.9348 0.3376
vn -0.4723 0.3279 0.8181
vn -0.4718 0.3307 0.8173
vn -0.5813 0.3304 0.7436
vn -0.5819 0.3276 0.7443
vn -0.4704 0.3391 0.8147
vn -0.5794 0.3388 0.7412
vn -0.6305 0.3295 0.7027
vn -0.6312 0.3267 0.7034
vn -0.6286 0.3380 0.7005
vn -0.4680 0.3518 0.8106
vn -0.4648 0.3684 0.8051
vn -0.5726 0.3681 0.7325
vn -0.5766 0.3515 0.7375
vn -0.6212 0.3672 0.6923
vn -0.6254 0.3507 0.6970
vn -0.4606 0.3888 0.7979
vn -0.5675 0.3885 0.7259
vn -0.4552 0.4136 0.7885
vn -0.5608 0.4133 0.7174
vn -0.6156 0.3875 0.6861
vn -0.6084 0.4123 0.6781
vn -0.4520 0.4274 0.7829
vn -0.5570 0.4270 0.7123
vn -0.6042 0.4260 0.6734
vn -0.3409 0.4133 0.8444
vn -0.3383 0.4270 0.8385
vn -0.2830 0.4123 0.8660
vn -0.2810 0.4260 0.8600
vn -0.3481 0.3681 0.8621
vn -0.3450 0.3885 0.8544
vn -0.2889 0.3672 0.8841
vn -0.2864 0.3875 0.8762
vn -0.3504 0.3515 0.8681
vn -0.3522 0.3388 0.8724
vn -0.2909 0.3507 0.8902
vn -0.2923 0.3380 0.8946
vn -0.3537 0.3276 0.8761
vn -0.3533 0.3304 0.8752
vn -0.2936 0.3268 0.8983
vn -0.2933 0.3295 0.8974
vn -0.4715 0.3327 0.8167
vn -0.5808 0.3324 0.7430
vn -0.4720 0.3301 0.8175
vn -0.5814 0.3298 0.7437
vn -0.6301 0.3316 0.7022
vn -0.6307 0.3290 0.7028
vn -0.4722 0.3287 0.8179
vn -0.5817 0.3284 0.7441
vn -0.6310 0.3276 0.7032
vn -0.3536 0.3284 0.8758
vn -0.3534 0.3298 0.8754
vn -0.2935 0.3275 0.8981
vn -0.2933 0.3289 0.8976
vn -0.3530 0.3324 0.8745
vn -0.2930 0.3316 0.8968
usemtl pan_Mat
s 1
f 1/1/1 2/2/2 3/3/3 4/4/4
f 2/2/2 5/5/5 6/6/6 3/3/3
f 4/4/4 3/3/3 7/7/7 8/8/8
f 3/3/3 6/6/6 9/9/9 7/7/7
f 12/10/10 13/11/11 14/12/12 15/13/13
f 15/13/13 14/12/12 8/8/8 7/7/7
f 10/14/14 12/10/10 15/13/13 11/15/15
f 11/15/15 15/13/13 7/7/7 9/9/9
f 19/16/16 18/17/17 20/18/18 21/19/19
f 16/20/20 19/16/16 21/19/19 17/21/21
f 13/11/11 12/10/10 22/22/22 23/23/23
f 12/10/10 10/14/14 24/24/24 22/22/22
f 23/23/23 22/22/22 21/19/19 20/18/18
f 22/22/22 24/24/24 17/21/21 21/19/19
f 28/25/25 1/1/1 4/4/4 29/26/26
f 29/26/26 4/4/4 8/8/8 30/27/27
f 25/28/28 28/25/25 29/26/26 26/29/29
f 26/29/29 29/26/26 30/27/27 27/30/30
f 13/11/11 31/31/31 32/32/32 14/12/12
f 31/31/31 33/33/33 34/34/34 32/32/32
f 14/12/12 32/32/32 30/27/27 8/8/8
f 32/32/32 34/34/34 27/30/30 30/27/27
f 18/17/17 35/35/35 37/36/36 20/18/18
f 35/35/35 36/37/37 38/38/38 37/36/36
f 31/31/31 13/11/11 23/23/23 40/39/39
f 40/39/39 23/23/23 20/18/18 37/36/36
f 33/33/33 31/31/31 40/39/39 39/40/40
f 39/40/40 40/39/39 37/36/36 38/38/38
f 44/41/41 45/42/42 46/43/43 47/44/44
f 47/44/44 46/43/43 48/45/45 49/46/46
f 41/47/47 44/41/41 47/44/44 42/48/48
f 42/48/48 47/44/44 49/46/46 43/49/49
f 50/50/50 51/51/51 52/52/52 53/53/53
f 51/51/51 54/54/54 55/55/55 52/52/52
f 53/53/53 52/52/52 49/46/46 48/45/45
f 52/52/52 55/55/55 43/49/49 49/46/46
f 45/42/42 56/56/56 57/57/57 46/43/43
f 56/56/56 58/58/58 59/59/59 57/57/57
f 46/43/43 57/57/57 60/60/60 48/45/45
f 57/57/57 59/59/59 61/61/61 60/60/60
f 64/62/62 50/50/50 53/53/53 65/63/63
f 65/63/63 53/53/53 48/45/45 60/60/60
f 62/64/64 64/62/62 65/63/63 63/65/65
f 63/65/65 65/63/63 60/60/60 61/61/61
f 1/1/1 66/66/66 67/67/67 2/2/2
f 66/66/66 68/68/68 69/69/69 67/67/67
f 2/2/2 67/67/67 70/70/70 5/5/5
f 67/67/67 69/69/69 71/71/71 70/70/70
f 72/72/72 73/73/73 74/74/74 75/75/75
f 75/75/75 74/74/74 76/76/76 77/77/77
f 68/68/68 72/72/72 75/75/75 69/69/69
f 69/69/69 75/75/75 77/77/77 71/71/71
f 73/73/73 78/78/78 79/79/79 74/74/74
f 78/78/78 80/80/80 81/81/81 79/79/79
f 74/74/74 79/79/79 82/82/82 76/76/76
f 79/79/79 81/81/81 83/83/83 82/82/82
f 84/84/84 45/42/42 44/41/41 85/85/85
f 85/85/85 44/41/41 41/47/47 86/86/86
f 80/87/80 84/84/84 85/85/85 81/88/81
f 81/88/81 85/85/85 86/86/86 83/89/83
f 45/42/42 84/84/84 87/90/87 56/56/56
f 84/84/84 80/87/80 88/91/88 87/90/87
f 56/56/56 87/90/87 89/92/89 58/58/58
f 87/90/87 88/91/88 90/93/90 89/92/89
f 78/78/78 73/73/73 91/94/91 92/95/92
f 92/95/92 91/94/91 93/96/93 94/97/94
f 80/80/80 78/78/78 92/95/92 88/98/88
f 88/98/88 92/95/92 94/97/94 90/99/90
f 73/73/73 72/72/72 95/100/95 91/94/91
f 72/72/72 68/68/68 96/101/96 95/100/95
f 91/94/91 95/100/95 97/102/97 93/96/93
f 95/100/95 96/101/96 98/103/98 97/102/97
f 66/66/66 1/1/1 28/25/25 99/104/99
f 99/104/99 28/25/25 25/28/28 100/105/100
f 68/68/68 66/66/66 99/104/99 96/101/96
f 96/101/96 99/104/99 100/105/100 98/103/98
f 50/50/50 101/106/101 102/107/102 51/51/51
f 101/108/101 103/109/103 104/110/104 102/111/102
f 51/51/51 102/107/102 105/112/105 54/54/54
f 102/111/102 104/110/104 106/113/106 105/114/105
f 107/115/107 108/116/108 109/117/109 110/118/110
f 110/118/110 109/117/109 111/119/111 112/120/112
f 103/109/103 107/115/107 110/118/110 104/110/104
f 104/110/104 110/118/110 112/120/112 106/113/106
f 108/116/108 107/115/107 113/121/113 114/122/114
f 107/115/107 103/109/103 115/123/115 113/121/113
f 114/122/114 113/121/113 116/124/116 117/125/117
f 113/121/113 115/123/115 118/126/118 116/124/116
f 101/106/101 50/50/50 64/62/62 119/127/119
f 119/127/119 64/62/62 62/64/64 120/128/120
f 103/109/103 101/108/101 119/129/119 115/123/115
f 115/123/115 119/129/119 120/130/120 118/126/118
f 121/131/121 122/132/122 123/133/123 124/134/124
f 122/132/122 125/135/125 126/136/126 123/133/123
f 124/134/124 123/133/123 127/137/127 128/138/128
f 123/133/123 126/136/126 129/139/129 127/137/127
f 130/140/130 131/141/131 132/142/132 133/143/133
f 133/143/133 132/142/132 134/144/134 135/145/135
f 125/135/125 130/140/130 133/143/133 126/136/126
f 126/136/126 133/143/133 135/145/135 129/139/129
f 131/141/131 136/146/136 137/147/137 132/142/132
f 136/146/136 138/148/138 139/149/139 137/147/137
f 132/142/132 137/147/137 140/150/140 134/144/134
f 137/147/137 139/149/139 141/151/141 140/150/140
f 138/148/138 142/152/142 143/153/143 139/149/139
f 139/149/139 143/153/143 144/154/144 141/151/141
f 142/152/142 138/148/138 146/155/145 145/156/146
f 145/156/146 146/155/145 148/157/147 147/158/148
f 136/146/136 131/141/131 149/159/149 150/160/150
f 150/160/150 149/159/149 151/161/151 152/162/152
f 138/148/138 136/146/136 150/160/150 146/155/145
f 146/155/145 150/160/150 152/162/152 148/157/147
f 131/141/131 130/140/130 153/163/153 149/159/149
f 130/140/130 125/135/125 154/164/154 153/163/153
f 149/159/149 153/163/153 155/165/155 151/161/151
f 153/163/153 154/164/154 156/166/156 155/165/155
f 122/132/122 121/131/121 157/167/157 158/168/158
f 158/168/158 157/167/157 159/169/159 160/170/160
f 125/135/125 122/132/122 158/168/158 154/164/154
f 154/164/154 158/168/158 160/170/160 156/166/156
f 108/116/108 161/171/161 162/172/162 109/117/109
f 161/171/161 163/173/163 164/174/164 162/172/162
f 109/117/109 162/172/162 165/175/165 111/119/111
f 162/172/162 164/174/164 166/176/166 165/175/165
f 167/177/167 121/131/121 124/134/124 168/178/168
f 168/178/168 124/134/124 128/138/128 169/179/169
f 163/173/163 167/177/167 168/178/168 164/174/164
f 164/174/164 168/178/168 169/179/169 166/176/166
f 121/131/121 167/177/167 170/180/170 157/167/157
f 167/177/167 163/173/163 171/181/171 170/180/170
f 157/167/157 170/180/170 172/182/172 159/169/159
f 170/180/170 171/181/171 173/183/173 172/182/172
f 161/171/161 108/116/108 114/122/114 174/184/174
f 174/184/174 114/122/114 117/125/117 175/185/175
f 163/173/163 161/171/161 174/184/174 171/181/171
f 171/181/171 174/184/174 175/185/175 173/183/173
