# Blender v2.93.10 OBJ File: 'separated_pan.blend'
# www.blender.org
mtllib pan_05.mtl
o pan_05_pan_00.008
v 0.090585 0.026408 -0.193058
v 0.091709 0.029591 -0.194185
v 0.078116 0.026408 -0.204246
v 0.064296 0.026408 -0.213613
v 0.065094 0.029591 -0.214996
v 0.079086 0.029591 -0.205512
v 0.049273 0.026408 -0.220899
v 0.049885 0.029591 -0.222371
v 0.033350 0.026408 -0.226102
v 0.033764 0.029591 -0.227640
v 0.054768 0.002845 -0.197111
v 0.066541 0.002845 -0.189132
v 0.077162 0.002845 -0.179602
v 0.055414 0.003665 -0.198230
v 0.067326 0.003665 -0.190157
v 0.056061 0.004662 -0.199351
v 0.068112 0.004662 -0.191183
v 0.078072 0.003665 -0.180514
v 0.078984 0.004662 -0.181428
v 0.056730 0.005860 -0.200509
v 0.057442 0.007280 -0.201742
v 0.069789 0.007280 -0.193374
v 0.068925 0.005860 -0.192244
v 0.080929 0.007280 -0.183378
v 0.079926 0.005860 -0.182373
v 0.043476 0.005860 -0.206937
v 0.044021 0.007280 -0.208251
v 0.042963 0.004662 -0.205703
v 0.029426 0.005860 -0.211529
v 0.029795 0.007280 -0.212900
v 0.029079 0.004662 -0.210240
v 0.041972 0.002845 -0.203317
v 0.042467 0.003665 -0.204509
v 0.028408 0.002845 -0.207750
v 0.028743 0.003665 -0.208994
v 0.063065 0.027323 -0.211482
v 0.062254 0.024514 -0.210077
v 0.075636 0.024514 -0.201007
v 0.076621 0.027323 -0.202294
v 0.061398 0.021846 -0.208593
v 0.074595 0.021846 -0.199649
v 0.087708 0.024514 -0.190174
v 0.088851 0.027323 -0.191320
v 0.086502 0.021846 -0.188964
v 0.060502 0.019334 -0.207042
v 0.059572 0.016992 -0.205431
v 0.072377 0.016992 -0.196752
v 0.073507 0.019334 -0.198227
v 0.083929 0.016992 -0.186386
v 0.085240 0.019334 -0.187699
v 0.058613 0.014834 -0.203770
v 0.071212 0.014834 -0.195231
v 0.057631 0.012874 -0.202069
v 0.070018 0.012874 -0.193673
v 0.082578 0.014834 -0.185031
v 0.081194 0.012874 -0.183644
v 0.056630 0.011127 -0.200336
v 0.055617 0.009607 -0.198582
v 0.067572 0.009607 -0.190479
v 0.068803 0.011127 -0.192086
v 0.078358 0.009607 -0.180801
v 0.079785 0.011127 -0.182231
v 0.043399 0.011127 -0.206753
v 0.042623 0.009607 -0.204884
v 0.044165 0.012874 -0.208599
v 0.029374 0.011127 -0.211336
v 0.028848 0.009607 -0.209385
v 0.029893 0.012874 -0.213263
v 0.045653 0.016992 -0.212181
v 0.044918 0.014834 -0.210411
v 0.030899 0.016992 -0.217002
v 0.030402 0.014834 -0.215155
v 0.046366 0.019334 -0.213897
v 0.047052 0.021846 -0.215550
v 0.031382 0.019334 -0.218794
v 0.031846 0.021846 -0.220520
v 0.048330 0.027323 -0.218628
v 0.047709 0.024514 -0.217131
v 0.032712 0.027323 -0.223732
v 0.032291 0.024514 -0.222169
v 0.054597 0.008329 -0.196815
v 0.066333 0.008329 -0.188861
v 0.053585 0.007268 -0.195061
v 0.065103 0.007268 -0.187255
v 0.076921 0.008329 -0.179360
v 0.075494 0.007268 -0.177930
v 0.041065 0.007268 -0.201133
v 0.027794 0.007268 -0.205470
v 0.041841 0.008329 -0.203001
v 0.028319 0.008329 -0.207420
v 0.063826 0.030259 -0.212800
v 0.077546 0.030259 -0.203502
v 0.089924 0.030259 -0.192395
v 0.048914 0.030259 -0.220032
v 0.033106 0.030259 -0.225198
v 0.058218 0.008943 -0.203086
v 0.070732 0.008943 -0.194604
v 0.059044 0.010838 -0.204516
v 0.071735 0.010838 -0.195914
v 0.082022 0.008943 -0.184473
v 0.083185 0.010838 -0.185640
v 0.059906 0.012954 -0.206010
v 0.060792 0.015277 -0.207545
v 0.073860 0.015277 -0.198688
v 0.072783 0.012954 -0.197283
v 0.085649 0.015277 -0.188109
v 0.084401 0.012954 -0.186858
v 0.061688 0.017796 -0.209096
v 0.074947 0.017796 -0.200108
v 0.062579 0.020499 -0.210640
v 0.076030 0.020499 -0.201523
v 0.086910 0.017796 -0.189374
v 0.088166 0.020499 -0.190633
v 0.063453 0.023374 -0.212153
v 0.077092 0.023374 -0.202909
v 0.089397 0.023374 -0.191867
v 0.048627 0.023374 -0.219343
v 0.047958 0.020499 -0.217730
v 0.032913 0.023374 -0.224479
v 0.032459 0.020499 -0.222795
v 0.046588 0.015277 -0.214433
v 0.047275 0.017796 -0.216085
v 0.031532 0.015277 -0.219353
v 0.031997 0.017796 -0.221078
v 0.045910 0.012954 -0.212798
v 0.045248 0.010838 -0.211207
v 0.031073 0.012954 -0.217647
v 0.030625 0.010838 -0.215985
v 0.044615 0.008943 -0.209682
v 0.030197 0.008943 -0.214394
vt 0.138679 0.418616
vt 0.159939 0.433485
vt 0.157313 0.437854
vt 0.135506 0.422608
vt 0.119520 0.400989
vt 0.115851 0.404535
vt 0.183036 0.445306
vt 0.180999 0.449981
vt 0.207585 0.453979
vt 0.206175 0.458883
vt 0.182371 0.396231
vt 0.181252 0.398091
vt 0.164425 0.386280
vt 0.165776 0.384579
vt 0.180056 0.400077
vt 0.162980 0.388095
vt 0.149276 0.372267
vt 0.150838 0.370757
vt 0.147607 0.373879
vt 0.178742 0.402261
vt 0.177271 0.404706
vt 0.159615 0.392322
vt 0.161393 0.390088
vt 0.143718 0.377633
vt 0.145773 0.375650
vt 0.197623 0.411886
vt 0.196482 0.414503
vt 0.198642 0.409549
vt 0.217696 0.418922
vt 0.216906 0.421666
vt 0.218402 0.416471
vt 0.200439 0.405434
vt 0.199570 0.407423
vt 0.219647 0.412156
vt 0.219045 0.414242
vt 0.359214 0.916364
vt 0.357055 0.912249
vt 0.377958 0.899359
vt 0.380636 0.903158
vt 0.354948 0.908234
vt 0.375346 0.895649
vt 0.397024 0.883738
vt 0.400176 0.887159
vt 0.393948 0.880401
vt 0.352900 0.904329
vt 0.350916 0.900547
vt 0.370346 0.888549
vt 0.372806 0.892043
vt 0.388063 0.874009
vt 0.390958 0.877153
vt 0.349001 0.896900
vt 0.367973 0.885181
vt 0.347162 0.893396
vt 0.365693 0.881944
vt 0.385269 0.870977
vt 0.382586 0.868064
vt 0.345402 0.890044
vt 0.343724 0.886847
vt 0.361434 0.875894
vt 0.363512 0.878847
vt 0.377574 0.862619
vt 0.380020 0.865277
vt 0.325903 0.898596
vt 0.324653 0.895209
vt 0.327213 0.902151
vt 0.305360 0.904484
vt 0.304561 0.900962
vt 0.306196 0.908178
vt 0.330007 0.909732
vt 0.328582 0.905865
vt 0.307979 0.916063
vt 0.307070 0.912041
vt 0.331484 0.913741
vt 0.333008 0.917880
vt 0.308921 0.920232
vt 0.309894 0.924537
vt 0.336182 0.926499
vt 0.334576 0.922138
vt 0.311917 0.933502
vt 0.310894 0.928964
vt 0.342129 0.883809
vt 0.359458 0.873087
vt 0.340615 0.880925
vt 0.357583 0.870424
vt 0.375250 0.860094
vt 0.373045 0.857697
vt 0.323465 0.891990
vt 0.303802 0.897615
vt 0.322336 0.888933
vt 0.303081 0.894438
vt 0.361418 0.920565
vt 0.383369 0.907038
vt 0.403394 0.890651
vt 0.337820 0.930954
vt 0.312962 0.938135
vt 0.175605 0.407471
vt 0.157602 0.394848
vt 0.173764 0.410530
vt 0.155378 0.397642
vt 0.141392 0.379878
vt 0.138821 0.382359
vt 0.171764 0.413852
vt 0.169621 0.417410
vt 0.150373 0.403927
vt 0.152961 0.400677
vt 0.133036 0.387941
vt 0.136028 0.385055
vt 0.167353 0.421176
vt 0.147634 0.407369
vt 0.164974 0.425128
vt 0.144760 0.410979
vt 0.129870 0.390999
vt 0.126548 0.394205
vt 0.162498 0.429238
vt 0.141770 0.414734
vt 0.123092 0.397542
vt 0.185021 0.440759
vt 0.186943 0.436360
vt 0.208962 0.449210
vt 0.210294 0.444594
vt 0.190549 0.428100
vt 0.188789 0.432131
vt 0.212794 0.435930
vt 0.211574 0.440159
vt 0.192212 0.424293
vt 0.193763 0.420737
vt 0.213946 0.431935
vt 0.215022 0.428205
vt 0.195191 0.417464
vt 0.216011 0.424771
vn 0.5448 -0.4664 -0.6969
vn 0.4422 -0.4667 -0.7659
vn 0.4469 -0.4484 -0.7741
vn 0.5505 -0.4480 -0.7044
vn 0.5911 -0.4653 -0.6588
vn 0.5974 -0.4469 -0.6658
vn 0.3311 -0.4664 -0.8202
vn 0.3348 -0.4480 -0.8289
vn 0.2749 -0.4653 -0.8413
vn 0.2779 -0.4469 -0.8503
vn 0.2679 -0.8443 -0.4640
vn 0.2876 -0.8180 -0.4982
vn 0.3544 -0.8178 -0.4534
vn 0.3304 -0.8441 -0.4223
vn 0.3201 -0.7682 -0.5544
vn 0.3945 -0.7679 -0.5046
vn 0.3849 -0.8172 -0.4290
vn 0.3589 -0.8433 -0.3999
vn 0.4284 -0.7671 -0.4774
vn 0.3437 -0.7262 -0.5953
vn 0.3596 -0.6948 -0.6229
vn 0.4431 -0.6944 -0.5669
vn 0.4236 -0.7259 -0.5418
vn 0.4812 -0.6935 -0.5362
vn 0.4599 -0.7251 -0.5126
vn 0.2574 -0.7259 -0.6377
vn 0.2693 -0.6944 -0.6672
vn 0.2398 -0.7679 -0.5940
vn 0.2139 -0.7251 -0.6546
vn 0.2238 -0.6935 -0.6848
vn 0.1993 -0.7671 -0.6097
vn 0.2005 -0.8441 -0.4973
vn 0.2154 -0.8178 -0.5337
vn 0.1669 -0.8433 -0.5108
vn 0.1790 -0.8172 -0.5478
vn -0.4386 0.4799 0.7598
vn -0.4271 0.5199 0.7398
vn -0.5262 0.5195 0.6731
vn -0.5404 0.4796 0.6913
vn -0.4142 0.5601 0.7174
vn -0.5103 0.5598 0.6528
vn -0.5710 0.5185 0.6364
vn -0.5864 0.4786 0.6535
vn -0.5539 0.5587 0.6172
vn -0.3996 0.6009 0.6922
vn -0.3830 0.6427 0.6635
vn -0.4720 0.6424 0.6038
vn -0.4924 0.6006 0.6299
vn -0.5124 0.6414 0.5710
vn -0.5345 0.5995 0.5957
vn -0.3639 0.6857 0.6303
vn -0.4484 0.6854 0.5736
vn -0.3416 0.7302 0.5916
vn -0.4209 0.7300 0.5384
vn -0.4869 0.6845 0.5426
vn -0.4570 0.7291 0.5094
vn -0.3152 0.7763 0.5459
vn -0.2836 0.8235 0.4913
vn -0.3496 0.8233 0.4472
vn -0.3884 0.7760 0.4968
vn -0.3797 0.8227 0.4231
vn -0.4218 0.7753 0.4701
vn -0.2361 0.7760 0.5848
vn -0.2125 0.8233 0.5264
vn -0.2558 0.7300 0.6337
vn -0.1962 0.7753 0.6003
vn -0.1766 0.8227 0.5404
vn -0.2126 0.7291 0.6505
vn -0.2869 0.6424 0.7107
vn -0.2726 0.6854 0.6752
vn -0.2383 0.6414 0.7293
vn -0.2264 0.6845 0.6930
vn -0.2993 0.6006 0.7414
vn -0.3102 0.5598 0.7684
vn -0.2486 0.5995 0.7607
vn -0.2576 0.5587 0.7883
vn -0.3285 0.4796 0.8137
vn -0.3198 0.5195 0.7923
vn -0.2727 0.4786 0.8346
vn -0.2656 0.5185 0.8127
vn -0.2496 0.8665 0.4323
vn -0.3076 0.8663 0.3935
vn -0.2320 0.8858 0.4019
vn -0.2861 0.8856 0.3657
vn -0.3341 0.8658 0.3724
vn -0.3109 0.8850 0.3464
vn -0.1870 0.8663 0.4631
vn -0.1554 0.8658 0.4755
vn -0.1737 0.8856 0.4307
vn -0.1446 0.8850 0.4424
vn -0.4439 0.4602 0.7688
vn -0.5467 0.4599 0.6997
vn -0.5934 0.4588 0.6613
vn -0.3326 0.4599 0.8233
vn -0.2760 0.4588 0.8445
vn 0.3715 -0.6692 -0.6435
vn 0.4578 -0.6689 -0.5856
vn 0.3824 -0.6442 -0.6623
vn 0.4712 -0.6439 -0.6028
vn 0.4971 -0.6679 -0.5539
vn 0.5116 -0.6428 -0.5701
vn 0.3927 -0.6189 -0.6802
vn 0.4027 -0.5926 -0.6976
vn 0.4962 -0.5922 -0.6348
vn 0.4839 -0.6186 -0.6190
vn 0.5387 -0.5912 -0.6003
vn 0.5253 -0.6175 -0.5854
vn 0.4126 -0.5647 -0.7147
vn 0.5084 -0.5643 -0.6503
vn 0.4225 -0.5347 -0.7318
vn 0.5205 -0.5344 -0.6659
vn 0.5518 -0.5633 -0.6149
vn 0.5649 -0.5333 -0.6296
vn 0.4324 -0.5022 -0.7489
vn 0.5327 -0.5019 -0.6814
vn 0.5780 -0.5009 -0.6442
vn 0.3238 -0.5019 -0.8020
vn 0.3164 -0.5344 -0.7837
vn 0.2688 -0.5009 -0.8227
vn 0.2627 -0.5333 -0.8040
vn 0.3016 -0.5922 -0.7472
vn 0.3090 -0.5643 -0.7655
vn 0.2505 -0.5912 -0.7666
vn 0.2567 -0.5633 -0.7854
vn 0.2941 -0.6186 -0.7286
vn 0.2864 -0.6439 -0.7095
vn 0.2443 -0.6175 -0.7476
vn 0.2379 -0.6428 -0.7281
vn 0.2783 -0.6689 -0.6893
vn 0.2312 -0.6679 -0.7074
usemtl pan_Mat
s 1
f 3/1/1 4/2/2 5/3/3 6/4/4
f 1/5/5 3/1/1 6/4/4 2/6/6
f 4/2/2 7/7/7 8/8/8 5/3/3
f 7/7/7 9/9/9 10/10/10 8/8/8
f 11/11/11 14/12/12 15/13/13 12/14/14
f 14/12/12 16/15/15 17/16/16 15/13/13
f 12/14/14 15/13/13 18/17/17 13/18/18
f 15/13/13 17/16/16 19/19/19 18/17/17
f 20/20/20 21/21/21 22/22/22 23/23/23
f 23/23/23 22/22/22 24/24/24 25/25/25
f 16/15/15 20/20/20 23/23/23 17/16/16
f 17/16/16 23/23/23 25/25/25 19/19/19
f 21/21/21 20/20/20 26/26/26 27/27/27
f 20/20/20 16/15/15 28/28/28 26/26/26
f 27/27/27 26/26/26 29/29/29 30/30/30
f 26/26/26 28/28/28 31/31/31 29/29/29
f 14/12/12 11/11/11 32/32/32 33/33/33
f 33/33/33 32/32/32 34/34/34 35/35/35
f 16/15/15 14/12/12 33/33/33 28/28/28
f 28/28/28 33/33/33 35/35/35 31/31/31
f 36/36/36 37/37/37 38/38/38 39/39/39
f 37/37/37 40/40/40 41/41/41 38/38/38
f 39/39/39 38/38/38 42/42/42 43/43/43
f 38/38/38 41/41/41 44/44/44 42/42/42
f 45/45/45 46/46/46 47/47/47 48/48/48
f 48/48/48 47/47/47 49/49/49 50/50/50
f 40/40/40 45/45/45 48/48/48 41/41/41
f 41/41/41 48/48/48 50/50/50 44/44/44
f 46/46/46 51/51/51 52/52/52 47/47/47
f 51/51/51 53/53/53 54/54/54 52/52/52
f 47/47/47 52/52/52 55/55/55 49/49/49
f 52/52/52 54/54/54 56/56/56 55/55/55
f 57/57/57 58/58/58 59/59/59 60/60/60
f 60/60/60 59/59/59 61/61/61 62/62/62
f 53/53/53 57/57/57 60/60/60 54/54/54
f 54/54/54 60/60/60 62/62/62 56/56/56
f 58/58/58 57/57/57 63/63/63 64/64/64
f 57/57/57 53/53/53 65/65/65 63/63/63
f 64/64/64 63/63/63 66/66/66 67/67/67
f 63/63/63 65/65/65 68/68/68 66/66/66
f 51/51/51 46/46/46 69/69/69 70/70/70
f 70/70/70 69/69/69 71/71/71 72/72/72
f 53/53/53 51/51/51 70/70/70 65/65/65
f 65/65/65 70/70/70 72/72/72 68/68/68
f 46/46/46 45/45/45 73/73/73 69/69/69
f 45/45/45 40/40/40 74/74/74 73/73/73
f 69/69/69 73/73/73 75/75/75 71/71/71
f 73/73/73 74/74/74 76/76/76 75/75/75
f 37/37/37 36/36/36 77/77/77 78/78/78
f 78/78/78 77/77/77 79/79/79 80/80/80
f 40/40/40 37/37/37 78/78/78 74/74/74
f 74/74/74 78/78/78 80/80/80 76/76/76
f 58/58/58 81/81/81 82/82/82 59/59/59
f 81/81/81 83/83/83 84/84/84 82/82/82
f 59/59/59 82/82/82 85/85/85 61/61/61
f 82/82/82 84/84/84 86/86/86 85/85/85
f 81/81/81 58/58/58 64/64/64 89/87/87
f 89/87/87 64/64/64 67/67/67 90/88/88
f 83/83/83 81/81/81 89/87/87 87/89/89
f 87/89/89 89/87/87 90/88/88 88/90/90
f 91/91/91 36/36/36 39/39/39 92/92/92
f 92/92/92 39/39/39 43/43/43 93/93/93
f 36/36/36 91/91/91 94/94/94 77/77/77
f 77/77/77 94/94/94 95/95/95 79/79/79
f 21/21/21 96/96/96 97/97/97 22/22/22
f 96/96/96 98/98/98 99/99/99 97/97/97
f 22/22/22 97/97/97 100/100/100 24/24/24
f 97/97/97 99/99/99 101/101/101 100/100/100
f 102/102/102 103/103/103 104/104/104 105/105/105
f 105/105/105 104/104/104 106/106/106 107/107/107
f 98/98/98 102/102/102 105/105/105 99/99/99
f 99/99/99 105/105/105 107/107/107 101/101/101
f 103/103/103 108/108/108 109/109/109 104/104/104
f 108/108/108 110/110/110 111/111/111 109/109/109
f 104/104/104 109/109/109 112/112/112 106/106/106
f 109/109/109 111/111/111 113/113/113 112/112/112
f 114/114/114 4/2/2 3/1/1 115/115/115
f 115/115/115 3/1/1 1/5/5 116/116/116
f 110/110/110 114/114/114 115/115/115 111/111/111
f 111/111/111 115/115/115 116/116/116 113/113/113
f 4/2/2 114/114/114 117/117/117 7/7/7
f 114/114/114 110/110/110 118/118/118 117/117/117
f 7/7/7 117/117/117 119/119/119 9/9/9
f 117/117/117 118/118/118 120/120/120 119/119/119
f 108/108/108 103/103/103 121/121/121 122/122/122
f 122/122/122 121/121/121 123/123/123 124/124/124
f 110/110/110 108/108/108 122/122/122 118/118/118
f 118/118/118 122/122/122 124/124/124 120/120/120
f 103/103/103 102/102/102 125/125/125 121/121/121
f 102/102/102 98/98/98 126/126/126 125/125/125
f 121/121/121 125/125/125 127/127/127 123/123/123
f 125/125/125 126/126/126 128/128/128 127/127/127
f 96/96/96 21/21/21 27/27/27 129/129/129
f 129/129/129 27/27/27 30/30/30 130/130/130
f 98/98/98 96/96/96 129/129/129 126/126/126
f 126/126/126 129/129/129 130/130/130 128/128/128
