# Blender v3.3.0 OBJ File: 'separated_pan.blend'
# www.blender.org
mtllib pan_10.mtl
o pan_10_pan_00.013
v 0.212938 0.123934 -0.055628
v 0.212528 0.125473 -0.052445
v 0.197066 0.118376 -0.055628
v 0.181975 0.110865 -0.055628
v 0.181180 0.112241 -0.052445
v 0.196459 0.119846 -0.052445
v 0.167924 0.101551 -0.055628
v 0.166955 0.102812 -0.052445
v 0.155175 0.090585 -0.055628
v 0.154047 0.091709 -0.052445
v 0.168631 0.077162 -0.079191
v 0.191460 0.094437 -0.079191
v 0.179491 0.086503 -0.079191
v 0.167718 0.078072 -0.078371
v 0.166805 0.078984 -0.077374
v 0.164855 0.080929 -0.074757
v 0.165860 0.079926 -0.076176
v 0.188798 0.099047 -0.074757
v 0.189506 0.097820 -0.076176
v 0.177109 0.089602 -0.076176
v 0.176245 0.090726 -0.074757
v 0.190172 0.096666 -0.077374
v 0.177921 0.088545 -0.077374
v 0.190816 0.095551 -0.078371
v 0.178707 0.087524 -0.078371
v 0.216826 0.109351 -0.076176
v 0.216460 0.110724 -0.074757
v 0.217170 0.108062 -0.077374
v 0.217835 0.105570 -0.079191
v 0.217503 0.106815 -0.078372
v 0.203823 0.102024 -0.078372
v 0.204315 0.100835 -0.079191
v 0.203331 0.103216 -0.077374
v 0.202280 0.105758 -0.074757
v 0.202822 0.104447 -0.076176
v 0.216878 0.109159 -0.070909
v 0.217398 0.107206 -0.072429
v 0.216364 0.111087 -0.069162
v 0.215366 0.114828 -0.065044
v 0.215859 0.112980 -0.067203
v 0.186678 0.102719 -0.065044
v 0.187632 0.101066 -0.067203
v 0.201390 0.107913 -0.067203
v 0.200660 0.109679 -0.065044
v 0.188610 0.099372 -0.069162
v 0.202137 0.106105 -0.069162
v 0.189606 0.097647 -0.070909
v 0.190614 0.095901 -0.072429
v 0.203669 0.102398 -0.072429
v 0.202898 0.104263 -0.070909
v 0.214888 0.116621 -0.062702
v 0.214428 0.118348 -0.060190
v 0.213570 0.121563 -0.054713
v 0.213987 0.119999 -0.057522
v 0.183200 0.108743 -0.054713
v 0.184008 0.107344 -0.057522
v 0.198620 0.114617 -0.057522
v 0.198002 0.116111 -0.054713
v 0.184860 0.105868 -0.060190
v 0.199271 0.113040 -0.060190
v 0.185752 0.104323 -0.062702
v 0.199953 0.111391 -0.062702
v 0.158059 0.087708 -0.057522
v 0.156913 0.088851 -0.054713
v 0.159268 0.086502 -0.060190
v 0.161847 0.083929 -0.065044
v 0.160533 0.085239 -0.062702
v 0.172531 0.095559 -0.062702
v 0.173660 0.094090 -0.065044
v 0.171443 0.096974 -0.060190
v 0.169418 0.099608 -0.054713
v 0.170403 0.098326 -0.057522
v 0.163201 0.082578 -0.067203
v 0.164588 0.081194 -0.069162
v 0.167432 0.078358 -0.072429
v 0.166001 0.079785 -0.070909
v 0.177231 0.089444 -0.070909
v 0.178460 0.087844 -0.072429
v 0.176016 0.091024 -0.069162
v 0.174824 0.092575 -0.067203
v 0.218443 0.103288 -0.074768
v 0.217923 0.105240 -0.073707
v 0.191630 0.094142 -0.073707
v 0.204445 0.100520 -0.073707
v 0.192638 0.092396 -0.074768
v 0.205215 0.098656 -0.074768
v 0.168873 0.076921 -0.073707
v 0.170302 0.075494 -0.074768
v 0.180928 0.084634 -0.074768
v 0.179699 0.086233 -0.073707
v 0.213179 0.123030 -0.051777
v 0.182442 0.110056 -0.051777
v 0.197423 0.117512 -0.051777
v 0.155838 0.089924 -0.051777
v 0.168494 0.100810 -0.051777
v 0.213371 0.122310 -0.058662
v 0.213820 0.120625 -0.061537
v 0.214739 0.117181 -0.066759
v 0.214279 0.118907 -0.064240
v 0.185463 0.104824 -0.066759
v 0.184571 0.106368 -0.064240
v 0.199050 0.113574 -0.064240
v 0.199732 0.111926 -0.066759
v 0.183684 0.107905 -0.061537
v 0.198372 0.115215 -0.061537
v 0.182814 0.109412 -0.058662
v 0.197707 0.116824 -0.058662
v 0.215194 0.115474 -0.069082
v 0.215637 0.113811 -0.071198
v 0.216062 0.112219 -0.073093
v 0.188026 0.100385 -0.073093
v 0.201690 0.107186 -0.073093
v 0.187203 0.101809 -0.071198
v 0.201062 0.108706 -0.071198
v 0.186345 0.103296 -0.069082
v 0.200406 0.110295 -0.069082
v 0.163759 0.082022 -0.073093
v 0.162593 0.083185 -0.071198
v 0.160123 0.085649 -0.066759
v 0.161374 0.084401 -0.069082
v 0.173253 0.094618 -0.069082
v 0.172178 0.096017 -0.066759
v 0.174301 0.093256 -0.071198
v 0.175303 0.091951 -0.073093
v 0.158858 0.086910 -0.064240
v 0.157599 0.088166 -0.061537
v 0.156365 0.089397 -0.058662
v 0.168948 0.100220 -0.058662
v 0.170009 0.098840 -0.061537
v 0.171091 0.097432 -0.064240
vt 0.448334 0.189662
vt 0.437125 0.165973
vt 0.441591 0.163500
vt 0.453083 0.187794
vt 0.456408 0.214523
vt 0.461360 0.213294
vt 0.423004 0.143899
vt 0.427106 0.140862
vt 0.406225 0.123855
vt 0.409893 0.120310
vt 0.407680 0.182262
vt 0.405181 0.183646
vt 0.393652 0.165598
vt 0.395950 0.163901
vt 0.402948 0.184879
vt 0.391601 0.167115
vt 0.379972 0.149194
vt 0.382027 0.147211
vt 0.378138 0.150966
vt 0.400917 0.186004
vt 0.399017 0.187055
vt 0.387990 0.169786
vt 0.389737 0.168495
vt 0.374907 0.154087
vt 0.376468 0.152577
vt 0.409820 0.204775
vt 0.407798 0.205567
vt 0.411979 0.203927
vt 0.416266 0.224468
vt 0.414158 0.224989
vt 0.418517 0.223910
vt 0.417013 0.201951
vt 0.414353 0.202994
vt 0.423765 0.222609
vt 0.420993 0.223297
vt 0.120998 0.651232
vt 0.124484 0.653436
vt 0.113668 0.673204
vt 0.109922 0.671477
vt 0.127832 0.655554
vt 0.117265 0.674864
vt 0.105462 0.694129
vt 0.101526 0.692904
vt 0.109245 0.695302
vt 0.131034 0.657578
vt 0.134088 0.659508
vt 0.123985 0.677964
vt 0.120705 0.676451
vt 0.116311 0.697495
vt 0.112862 0.696426
vt 0.105881 0.641671
vt 0.109813 0.644160
vt 0.097910 0.665929
vt 0.093687 0.663978
vt 0.113651 0.646587
vt 0.102033 0.667833
vt 0.088894 0.688979
vt 0.084453 0.687596
vt 0.093229 0.690327
vt 0.117384 0.648947
vt 0.106041 0.669685
vt 0.097443 0.691636
vt 0.131247 0.629803
vt 0.134532 0.632541
vt 0.127857 0.626975
vt 0.147387 0.612617
vt 0.150282 0.615762
vt 0.144396 0.609372
vt 0.120797 0.621086
vt 0.124370 0.624066
vt 0.138168 0.602613
vt 0.141321 0.606033
vt 0.143648 0.640149
vt 0.146421 0.642464
vt 0.140739 0.637722
vt 0.158324 0.624494
vt 0.160771 0.627152
vt 0.155759 0.621707
vt 0.137697 0.635185
vt 0.153076 0.618794
vt 0.136988 0.661343
vt 0.127101 0.679399
vt 0.139740 0.663082
vt 0.130058 0.680763
vt 0.119591 0.698512
vt 0.122702 0.699476
vt 0.149055 0.644664
vt 0.163095 0.629678
vt 0.151555 0.646750
vt 0.165300 0.632074
vt 0.101865 0.639132
vt 0.089374 0.661986
vt 0.079919 0.686185
vt 0.117148 0.618043
vt 0.134950 0.599121
vt 0.420676 0.175072
vt 0.424530 0.172940
vt 0.434936 0.194916
vt 0.430836 0.196524
vt 0.428573 0.170704
vt 0.439235 0.193229
vt 0.442445 0.217978
vt 0.438173 0.219038
vt 0.446927 0.216870
vt 0.432778 0.168378
vt 0.443709 0.191474
vt 0.451590 0.215717
vt 0.410508 0.180696
vt 0.420022 0.200769
vt 0.413637 0.178965
vt 0.423350 0.199462
vt 0.426902 0.221830
vt 0.430369 0.220969
vt 0.417036 0.177085
vt 0.426964 0.198043
vt 0.434138 0.220037
vt 0.404546 0.157544
vt 0.407891 0.155072
vt 0.401423 0.159853
vt 0.389716 0.139790
vt 0.392708 0.136903
vt 0.386924 0.142487
vt 0.398549 0.161978
vt 0.384352 0.144968
vt 0.419010 0.146852
vt 0.415145 0.149707
vt 0.402653 0.127304
vt 0.399197 0.130639
vt 0.411432 0.152453
vt 0.395875 0.133845
vn -0.3442 0.8155 -0.4653
vn -0.4426 0.7666 -0.4651
vn -0.4473 0.7748 -0.4468
vn -0.3477 0.8242 -0.4470
vn -0.2927 0.8357 -0.4647
vn -0.2958 0.8445 -0.4464
vn -0.5342 0.7058 -0.4653
vn -0.5399 0.7132 -0.4470
vn -0.5774 0.6713 -0.4647
vn -0.5835 0.6784 -0.4464
vn -0.3604 0.6242 -0.6932
vn -0.3445 0.5967 -0.7248
vn -0.4157 0.5492 -0.7250
vn -0.4348 0.5746 -0.6934
vn -0.3209 0.5558 -0.7669
vn -0.3872 0.5116 -0.7671
vn -0.4496 0.5227 -0.7243
vn -0.4703 0.5467 -0.6928
vn -0.4189 0.4870 -0.7664
vn -0.2884 0.4995 -0.8169
vn -0.2688 0.4655 -0.8432
vn -0.3242 0.4286 -0.8434
vn -0.3479 0.4598 -0.8170
vn -0.3508 0.4078 -0.8430
vn -0.3765 0.4378 -0.8165
vn -0.2242 0.5312 -0.8170
vn -0.2091 0.4950 -0.8434
vn -0.2495 0.5911 -0.7671
vn -0.1908 0.5450 -0.8165
vn -0.1778 0.5077 -0.8430
vn -0.2123 0.6062 -0.7664
vn -0.2802 0.6639 -0.6934
vn -0.2678 0.6346 -0.7250
vn -0.2383 0.6806 -0.6928
vn -0.2279 0.6507 -0.7243
vn 0.3837 -0.6646 0.6411
vn 0.3646 -0.6316 0.6842
vn 0.2835 -0.6717 0.6844
vn 0.2983 -0.7069 0.6413
vn 0.3423 -0.5929 0.7288
vn 0.2661 -0.6306 0.7290
vn 0.2412 -0.6887 0.6837
vn 0.2538 -0.7247 0.6406
vn 0.2265 -0.6467 0.7284
vn 0.3160 -0.5473 0.7750
vn 0.2844 -0.4926 0.8224
vn 0.2211 -0.5239 0.8226
vn 0.2456 -0.5820 0.7752
vn 0.1882 -0.5375 0.8220
vn 0.2091 -0.5970 0.7746
vn 0.4391 -0.7605 0.4784
vn 0.4276 -0.7406 0.5183
vn 0.3325 -0.7878 0.5185
vn 0.3414 -0.8090 0.4785
vn 0.4148 -0.7184 0.5585
vn 0.3225 -0.7641 0.5587
vn 0.2828 -0.8074 0.5178
vn 0.2903 -0.8290 0.4779
vn 0.2743 -0.7832 0.5580
vn 0.4003 -0.6933 0.5993
vn 0.3112 -0.7374 0.5995
vn 0.2647 -0.7559 0.5988
vn 0.4830 -0.6382 0.5995
vn 0.4631 -0.6118 0.6413
vn 0.5005 -0.6613 0.5587
vn 0.5223 -0.6072 0.5988
vn 0.5007 -0.5822 0.6406
vn 0.5411 -0.6291 0.5580
vn 0.5299 -0.7001 0.4785
vn 0.5160 -0.6818 0.5185
vn 0.5728 -0.6660 0.4779
vn 0.5579 -0.6486 0.5178
vn 0.3812 -0.5037 0.7752
vn 0.3432 -0.4535 0.8226
vn 0.4131 -0.5458 0.7290
vn 0.4125 -0.4795 0.7746
vn 0.3714 -0.4318 0.8220
vn 0.4468 -0.5195 0.7284
vn 0.4400 -0.5814 0.6844
vn 0.4759 -0.5532 0.6837
vn 0.2503 -0.4336 0.8656
vn 0.1946 -0.4611 0.8657
vn 0.2328 -0.4033 0.8850
vn 0.1811 -0.4288 0.8851
vn 0.1657 -0.4731 0.8653
vn 0.1540 -0.4398 0.8848
vn 0.3020 -0.3991 0.8657
vn 0.3269 -0.3801 0.8653
vn 0.2808 -0.3712 0.8851
vn 0.3039 -0.3533 0.8848
vn 0.4443 -0.7696 0.4587
vn 0.3454 -0.8187 0.4588
vn 0.2938 -0.8388 0.4583
vn 0.5363 -0.7084 0.4588
vn 0.5796 -0.6738 0.4583
vn -0.4034 0.6986 -0.5909
vn -0.4132 0.7157 -0.5631
vn -0.3213 0.7613 -0.5632
vn -0.3136 0.7431 -0.5911
vn -0.4230 0.7327 -0.5331
vn -0.3289 0.7794 -0.5333
vn -0.2732 0.7803 -0.5626
vn -0.2667 0.7617 -0.5905
vn -0.2797 0.7988 -0.5327
vn -0.4328 0.7497 -0.5006
vn -0.3365 0.7974 -0.5008
vn -0.2862 0.8173 -0.5002
vn -0.3722 0.6448 -0.6676
vn -0.2894 0.6858 -0.6678
vn -0.3831 0.6635 -0.6426
vn -0.2978 0.7058 -0.6428
vn -0.2462 0.7030 -0.6672
vn -0.2534 0.7235 -0.6422
vn -0.3934 0.6813 -0.6173
vn -0.3058 0.7247 -0.6175
vn -0.2601 0.7429 -0.6168
vn -0.4747 0.6272 -0.6175
vn -0.4868 0.6431 -0.5911
vn -0.4623 0.6108 -0.6428
vn -0.5133 0.5967 -0.6168
vn -0.5263 0.6118 -0.5905
vn -0.4999 0.5812 -0.6422
vn -0.4492 0.5935 -0.6678
vn -0.4857 0.5647 -0.6672
vn -0.5223 0.6902 -0.5008
vn -0.5105 0.6745 -0.5333
vn -0.5647 0.6565 -0.5002
vn -0.5519 0.6416 -0.5327
vn -0.4986 0.6589 -0.5632
vn -0.5391 0.6268 -0.5626
usemtl pan_Mat
s 1
f 3/1/1 4/2/2 5/3/3 6/4/4
f 1/5/5 3/1/1 6/4/4 2/6/6
f 4/2/2 7/7/7 8/8/8 5/3/3
f 7/7/7 9/9/9 10/10/10 8/8/8
f 18/11/11 19/12/12 20/13/13 21/14/14
f 19/12/12 22/15/15 23/16/16 20/13/13
f 21/14/14 20/13/13 17/17/17 16/18/18
f 20/13/13 23/16/16 15/19/19 17/17/17
f 24/20/20 12/21/21 13/22/22 25/23/23
f 25/23/23 13/22/22 11/24/24 14/25/25
f 22/15/15 24/20/20 25/23/23 23/16/16
f 23/16/16 25/23/23 14/25/25 15/19/19
f 12/21/21 24/20/20 31/26/26 32/27/27
f 24/20/20 22/15/15 33/28/28 31/26/26
f 32/27/27 31/26/26 30/29/29 29/30/30
f 31/26/26 33/28/28 28/31/31 30/29/29
f 19/12/12 18/11/11 34/32/32 35/33/33
f 35/33/33 34/32/32 27/34/34 26/35/35
f 22/15/15 19/12/12 35/33/33 33/28/28
f 33/28/28 35/33/33 26/35/35 28/31/31
f 41/36/36 42/37/37 43/38/38 44/39/39
f 42/37/37 45/40/40 46/41/41 43/38/38
f 44/39/39 43/38/38 40/42/42 39/43/43
f 43/38/38 46/41/41 38/44/44 40/42/42
f 47/45/45 48/46/46 49/47/47 50/48/48
f 50/48/48 49/47/47 37/49/49 36/50/50
f 45/40/40 47/45/45 50/48/48 46/41/41
f 46/41/41 50/48/48 36/50/50 38/44/44
f 55/51/51 56/52/52 57/53/53 58/54/54
f 56/52/52 59/55/55 60/56/56 57/53/53
f 58/54/54 57/53/53 54/57/57 53/58/58
f 57/53/53 60/56/56 52/59/59 54/57/57
f 61/60/60 41/36/36 44/39/39 62/61/61
f 62/61/61 44/39/39 39/43/43 51/62/62
f 59/55/55 61/60/60 62/61/61 60/56/56
f 60/56/56 62/61/61 51/62/62 52/59/59
f 41/36/36 61/60/60 68/63/63 69/64/64
f 61/60/60 59/55/55 70/65/65 68/63/63
f 69/64/64 68/63/63 67/66/66 66/67/67
f 68/63/63 70/65/65 65/68/68 67/66/66
f 56/52/52 55/51/51 71/69/69 72/70/70
f 72/70/70 71/69/69 64/71/71 63/72/72
f 59/55/55 56/52/52 72/70/70 70/65/65
f 70/65/65 72/70/70 63/72/72 65/68/68
f 48/46/46 47/45/45 77/73/73 78/74/74
f 47/45/45 45/40/40 79/75/75 77/73/73
f 78/74/74 77/73/73 76/76/76 75/77/77
f 77/73/73 79/75/75 74/78/78 76/76/76
f 42/37/37 41/36/36 69/64/64 80/79/79
f 80/79/79 69/64/64 66/67/67 73/80/80
f 45/40/40 42/37/37 80/79/79 79/75/75
f 79/75/75 80/79/79 73/80/80 74/78/78
f 48/46/46 83/81/81 84/82/82 49/47/47
f 83/81/81 85/83/83 86/84/84 84/82/82
f 49/47/47 84/82/82 82/85/85 37/49/49
f 84/82/82 86/84/84 81/86/86 82/85/85
f 83/81/81 48/46/46 78/74/74 90/87/87
f 90/87/87 78/74/74 75/77/77 87/88/88
f 85/83/83 83/81/81 90/87/87 89/89/89
f 89/89/89 90/87/87 87/88/88 88/90/90
f 92/91/91 55/51/51 58/54/54 93/92/92
f 93/92/92 58/54/54 53/58/58 91/93/93
f 55/51/51 92/91/91 95/94/94 71/69/69
f 71/69/69 95/94/94 94/95/95 64/71/71
f 100/96/96 101/97/97 102/98/98 103/99/99
f 101/97/97 104/100/100 105/101/101 102/98/98
f 103/99/99 102/98/98 99/102/102 98/103/103
f 102/98/98 105/101/101 97/104/104 99/102/102
f 106/105/105 4/2/2 3/1/1 107/106/106
f 107/106/106 3/1/1 1/5/5 96/107/107
f 104/100/100 106/105/105 107/106/106 105/101/101
f 105/101/101 107/106/106 96/107/107 97/104/104
f 18/11/11 111/108/108 112/109/109 34/32/32
f 111/108/108 113/110/110 114/111/111 112/109/109
f 34/32/32 112/109/109 110/112/112 27/34/34
f 112/109/109 114/111/111 109/113/113 110/112/112
f 115/114/114 100/96/96 103/99/99 116/115/115
f 116/115/115 103/99/99 98/103/103 108/116/116
f 113/110/110 115/114/114 116/115/115 114/111/111
f 114/111/111 116/115/115 108/116/116 109/113/113
f 100/96/96 115/114/114 121/117/117 122/118/118
f 115/114/114 113/110/110 123/119/119 121/117/117
f 122/118/118 121/117/117 120/120/120 119/121/121
f 121/117/117 123/119/119 118/122/122 120/120/120
f 111/108/108 18/11/11 21/14/14 124/123/123
f 124/123/123 21/14/14 16/18/18 117/124/124
f 113/110/110 111/108/108 124/123/123 123/119/119
f 123/119/119 124/123/123 117/124/124 118/122/122
f 4/2/2 106/105/105 128/125/125 7/7/7
f 106/105/105 104/100/100 129/126/126 128/125/125
f 7/7/7 128/125/125 127/127/127 9/9/9
f 128/125/125 129/126/126 126/128/128 127/127/127
f 101/97/97 100/96/96 122/118/118 130/129/129
f 130/129/129 122/118/118 119/121/121 125/130/130
f 104/100/100 101/97/97 130/129/129 129/126/126
f 129/126/126 130/129/129 125/130/130 126/128/128
