# Blender v3.3.0 OBJ File: 'separated_pan.blend'
# www.blender.org
mtllib pan_18.mtl
o pan_18_pan_00.020
v 0.379002 0.035818 -0.032423
v 0.378309 0.035631 -0.034509
v 0.377469 0.035405 -0.036980
v 0.382356 0.018070 -0.032423
v 0.383473 -0.000000 -0.032423
v 0.382757 -0.000000 -0.034509
v 0.381645 0.017976 -0.034509
v 0.381888 -0.000000 -0.036980
v 0.380783 0.017862 -0.036980
v 0.379733 -0.000000 -0.042772
v 0.378646 0.017579 -0.042772
v 0.379781 0.017729 -0.039760
v 0.380877 -0.000000 -0.039760
v 0.375383 0.034843 -0.042772
v 0.376491 0.035142 -0.039760
v 0.382356 -0.018070 -0.032423
v 0.381645 -0.017976 -0.034509
v 0.379002 -0.035818 -0.032423
v 0.378309 -0.035631 -0.034509
v 0.380783 -0.017862 -0.036980
v 0.377468 -0.035405 -0.036980
v 0.375383 -0.034844 -0.042772
v 0.376491 -0.035142 -0.039760
v 0.378646 -0.017579 -0.042772
v 0.379781 -0.017729 -0.039760
v 0.371373 -0.033764 -0.052445
v 0.372816 -0.034152 -0.049191
v 0.375588 -0.000000 -0.052445
v 0.374534 -0.017034 -0.052445
v 0.377079 -0.000000 -0.049191
v 0.376013 -0.017230 -0.049191
v 0.377387 -0.017412 -0.045942
v 0.378464 -0.000000 -0.045942
v 0.374156 -0.034513 -0.045942
v 0.374534 0.017034 -0.052445
v 0.371373 0.033764 -0.052445
v 0.376013 0.017230 -0.049191
v 0.372816 0.034152 -0.049191
v 0.374156 0.034513 -0.045942
v 0.377387 0.017412 -0.045942
v 0.380095 -0.036112 -0.027516
v 0.379704 -0.036007 -0.027518
v 0.379243 -0.035883 -0.027525
v 0.383476 -0.018219 -0.027516
v 0.384603 -0.000000 -0.027516
v 0.384198 -0.000000 -0.027518
v 0.383075 -0.018166 -0.027518
v 0.383723 -0.000000 -0.027525
v 0.382603 -0.018103 -0.027525
v 0.382850 -0.000000 -0.027566
v 0.381738 -0.017989 -0.027566
v 0.382133 -0.018041 -0.027541
v 0.383249 -0.000000 -0.027541
v 0.378400 -0.035656 -0.027566
v 0.378785 -0.035760 -0.027541
v 0.383476 0.018219 -0.027516
v 0.383075 0.018166 -0.027518
v 0.380095 0.036112 -0.027516
v 0.379704 0.036007 -0.027518
v 0.382603 0.018103 -0.027525
v 0.379244 0.035883 -0.027525
v 0.378400 0.035656 -0.027566
v 0.378785 0.035759 -0.027541
v 0.381738 0.017988 -0.027566
v 0.382133 0.018041 -0.027541
v 0.379541 0.035963 -0.030799
v 0.379941 0.036071 -0.029577
v 0.380395 0.036193 -0.028116
v 0.380220 0.036146 -0.028702
v 0.384913 -0.000000 -0.028116
v 0.384732 -0.000000 -0.028702
v 0.383604 0.018236 -0.028702
v 0.383784 0.018259 -0.028116
v 0.384444 -0.000000 -0.029577
v 0.383318 0.018198 -0.029577
v 0.384030 -0.000000 -0.030799
v 0.382908 0.018143 -0.030799
v 0.380483 0.036217 -0.027761
v 0.380471 0.036213 -0.027581
v 0.380346 0.036180 -0.027518
v 0.384863 -0.000000 -0.027518
v 0.383734 0.018253 -0.027518
v 0.384992 -0.000000 -0.027581
v 0.383862 0.018270 -0.027581
v 0.385004 -0.000000 -0.027761
v 0.383874 0.018271 -0.027761
v 0.380346 -0.036180 -0.027518
v 0.380471 -0.036214 -0.027581
v 0.380395 -0.036193 -0.028116
v 0.380483 -0.036217 -0.027761
v 0.383874 -0.018272 -0.027761
v 0.383784 -0.018260 -0.028116
v 0.383862 -0.018270 -0.027581
v 0.383734 -0.018253 -0.027518
v 0.380220 -0.036146 -0.028702
v 0.379941 -0.036071 -0.029577
v 0.379541 -0.035963 -0.030799
v 0.382908 -0.018144 -0.030799
v 0.383318 -0.018198 -0.029577
v 0.383604 -0.018236 -0.028702
v 0.377871 -0.035513 -0.027961
v 0.377713 -0.035471 -0.028412
v 0.378000 -0.035548 -0.027712
v 0.378157 -0.035590 -0.027602
v 0.382600 -0.000000 -0.027602
v 0.381489 -0.017956 -0.027602
v 0.382437 -0.000000 -0.027712
v 0.381328 -0.017934 -0.027712
v 0.382304 -0.000000 -0.027961
v 0.382141 -0.000000 -0.028412
v 0.381034 -0.017895 -0.028412
v 0.381196 -0.017917 -0.027961
v 0.378157 0.035590 -0.027602
v 0.378000 0.035548 -0.027712
v 0.377713 0.035471 -0.028412
v 0.377871 0.035513 -0.027961
v 0.381196 0.017917 -0.027961
v 0.381034 0.017895 -0.028412
v 0.381328 0.017934 -0.027712
v 0.381489 0.017955 -0.027602
v 0.368931 -0.033106 -0.051777
v 0.370296 -0.033474 -0.048781
v 0.372702 -0.034122 -0.042867
v 0.371554 -0.033813 -0.045788
v 0.376962 -0.000000 -0.042867
v 0.375775 -0.000000 -0.045788
v 0.374720 -0.017059 -0.045788
v 0.375897 -0.017215 -0.042867
v 0.374475 -0.000000 -0.048781
v 0.373430 -0.016888 -0.048781
v 0.373064 -0.000000 -0.051777
v 0.372031 -0.016702 -0.051777
v 0.373735 -0.034400 -0.040082
v 0.374651 -0.034646 -0.037492
v 0.376127 -0.035044 -0.033122
v 0.375449 -0.034861 -0.035153
v 0.380502 -0.000000 -0.033122
v 0.379801 -0.000000 -0.035153
v 0.378713 -0.017588 -0.035153
v 0.379408 -0.017680 -0.033122
v 0.378976 -0.000000 -0.037492
v 0.377895 -0.017479 -0.037492
v 0.378029 -0.000000 -0.040082
v 0.376956 -0.017355 -0.040082
v 0.375449 0.034861 -0.035153
v 0.376127 0.035044 -0.033122
v 0.374651 0.034646 -0.037492
v 0.372702 0.034122 -0.042867
v 0.373735 0.034400 -0.040082
v 0.376956 0.017355 -0.040082
v 0.375897 0.017214 -0.042867
v 0.377895 0.017479 -0.037492
v 0.379408 0.017680 -0.033122
v 0.378713 0.017588 -0.035153
v 0.371555 0.033812 -0.045788
v 0.370296 0.033474 -0.048781
v 0.368931 0.033106 -0.051777
v 0.372031 0.016702 -0.051777
v 0.373430 0.016888 -0.048781
v 0.374720 0.017058 -0.045788
v 0.376684 -0.035194 -0.031458
v 0.377128 -0.035313 -0.030135
v 0.377468 -0.035405 -0.029128
v 0.381888 -0.000000 -0.029128
v 0.380783 -0.017862 -0.029128
v 0.381536 -0.000000 -0.030135
v 0.380434 -0.017816 -0.030135
v 0.381077 -0.000000 -0.031458
v 0.379979 -0.017755 -0.031458
v 0.377468 0.035405 -0.029128
v 0.377128 0.035313 -0.030135
v 0.376684 0.035194 -0.031458
v 0.379979 0.017755 -0.031458
v 0.380434 0.017816 -0.030135
v 0.380783 0.017862 -0.029128
vt 0.289556 0.496423
vt 0.258624 0.497844
vt 0.258682 0.494620
vt 0.289192 0.493219
vt 0.258750 0.490802
vt 0.288760 0.489425
vt 0.319981 0.491060
vt 0.319200 0.487931
vt 0.318276 0.484226
vt 0.258910 0.481831
vt 0.287744 0.480511
vt 0.288273 0.485152
vt 0.258827 0.486501
vt 0.316105 0.475522
vt 0.317235 0.480054
vt 0.227765 0.495307
vt 0.228244 0.492118
vt 0.197556 0.488850
vt 0.198447 0.485751
vt 0.228811 0.488341
vt 0.199502 0.482081
vt 0.230143 0.479469
vt 0.229449 0.484089
vt 0.201982 0.473460
vt 0.200691 0.477949
vt 0.232395 0.464464
vt 0.259180 0.466658
vt 0.259089 0.471805
vt 0.231631 0.469554
vt 0.206175 0.458883
vt 0.204752 0.463827
vt 0.230875 0.474589
vt 0.258998 0.476897
vt 0.203345 0.468719
vt 0.286026 0.465435
vt 0.286609 0.470549
vt 0.312431 0.460805
vt 0.313677 0.465797
vt 0.287186 0.475608
vt 0.314910 0.470736
vt 0.675996 0.023744
vt 0.702557 0.020283
vt 0.702597 0.020876
vt 0.676113 0.024326
vt 0.702644 0.021571
vt 0.676251 0.025010
vt 0.650135 0.030472
vt 0.650328 0.031035
vt 0.650555 0.031696
vt 0.702731 0.022850
vt 0.676506 0.026266
vt 0.676389 0.025692
vt 0.702691 0.022265
vt 0.650972 0.032910
vt 0.650781 0.032354
vt 0.729342 0.020123
vt 0.729304 0.020716
vt 0.755874 0.023295
vt 0.755759 0.023879
vt 0.729259 0.021412
vt 0.755623 0.024564
vt 0.729177 0.022691
vt 0.729214 0.022107
vt 0.755374 0.025824
vt 0.755488 0.025247
vt 0.258503 0.504510
vt 0.258519 0.503607
vt 0.290206 0.502151
vt 0.290307 0.503048
vt 0.258544 0.502253
vt 0.290053 0.500805
vt 0.321373 0.496655
vt 0.321591 0.497531
vt 0.321046 0.495340
vt 0.258579 0.500360
vt 0.289840 0.498924
vt 0.320589 0.493503
vt 0.702531 0.019902
vt 0.729366 0.019743
vt 0.702516 0.019692
vt 0.729379 0.019531
vt 0.755948 0.022919
vt 0.755989 0.022712
vt 0.258493 0.505050
vt 0.290368 0.503584
vt 0.321722 0.498054
vt 0.258488 0.505316
vt 0.290397 0.503848
vt 0.321784 0.498313
vt 0.226693 0.502433
vt 0.226773 0.501900
vt 0.226654 0.502696
vt 0.195562 0.495776
vt 0.195711 0.495257
vt 0.195490 0.496032
vt 0.675920 0.023370
vt 0.650011 0.030109
vt 0.675878 0.023163
vt 0.649942 0.029910
vt 0.227390 0.497796
vt 0.227109 0.499667
vt 0.196859 0.491269
vt 0.196335 0.493087
vt 0.226908 0.501007
vt 0.195961 0.494390
vt 0.702756 0.023222
vt 0.676579 0.026631
vt 0.259715 0.980469
vt 0.259727 0.980181
vt 0.290678 0.979445
vt 0.290705 0.979733
vt 0.651093 0.033262
vt 0.321214 0.974764
vt 0.321280 0.975047
vt 0.259743 0.979765
vt 0.259772 0.979060
vt 0.290576 0.978329
vt 0.290640 0.979031
vt 0.320967 0.973671
vt 0.321122 0.974359
vt 0.229005 0.976557
vt 0.229125 0.975863
vt 0.228933 0.976967
vt 0.198993 0.969457
vt 0.199203 0.968784
vt 0.198869 0.969854
vt 0.729153 0.023063
vt 0.755302 0.026189
vt 0.228883 0.977252
vt 0.198781 0.970129
vt 0.260674 0.956684
vt 0.260858 0.952128
vt 0.288137 0.951486
vt 0.288550 0.956027
vt 0.261048 0.947422
vt 0.287711 0.946796
vt 0.315045 0.947378
vt 0.316047 0.951826
vt 0.314010 0.942786
vt 0.261241 0.942655
vt 0.287279 0.942046
vt 0.312962 0.938135
vt 0.260066 0.971754
vt 0.260192 0.968620
vt 0.289630 0.967923
vt 0.289914 0.971047
vt 0.260338 0.965009
vt 0.289303 0.964324
vt 0.318671 0.963478
vt 0.319360 0.966537
vt 0.317877 0.959952
vt 0.260499 0.961004
vt 0.288941 0.960333
vt 0.316997 0.956043
vt 0.232203 0.958057
vt 0.232940 0.953797
vt 0.231520 0.962006
vt 0.204580 0.951533
vt 0.205866 0.947406
vt 0.203386 0.955358
vt 0.230370 0.968658
vt 0.230904 0.965567
vt 0.201378 0.961802
vt 0.202311 0.958808
vt 0.234521 0.944664
vt 0.235335 0.939963
vt 0.208626 0.938560
vt 0.210047 0.934008
vt 0.233718 0.949304
vt 0.207224 0.943053
vt 0.259816 0.977944
vt 0.290474 0.977217
vt 0.259879 0.976380
vt 0.290332 0.975657
vt 0.320721 0.972581
vt 0.320377 0.971054
vt 0.259962 0.974328
vt 0.290147 0.973613
vt 0.319925 0.969051
vt 0.229931 0.971197
vt 0.229581 0.973220
vt 0.200612 0.964262
vt 0.200001 0.966222
vt 0.229315 0.974762
vt 0.199535 0.967717
vn 0.9385 0.1172 -0.3247
vn 0.9459 -0.0000 -0.3245
vn 0.9446 0.0000 -0.3282
vn 0.9373 0.1171 -0.3284
vn 0.9417 0.0000 -0.3366
vn 0.9343 0.1167 -0.3367
vn 0.9295 0.1756 -0.3242
vn 0.9283 0.1754 -0.3279
vn 0.9254 0.1749 -0.3363
vn 0.9317 0.0000 -0.3633
vn 0.9244 0.1155 -0.3635
vn 0.9301 0.1162 -0.3485
vn 0.9374 -0.0000 -0.3483
vn 0.9156 0.1730 -0.3630
vn 0.9212 0.1741 -0.3480
vn 0.9385 -0.1172 -0.3247
vn 0.9373 -0.1171 -0.3284
vn 0.9295 -0.1756 -0.3242
vn 0.9283 -0.1754 -0.3279
vn 0.9343 -0.1167 -0.3367
vn 0.9254 -0.1749 -0.3363
vn 0.9244 -0.1155 -0.3635
vn 0.9301 -0.1162 -0.3485
vn 0.9156 -0.1730 -0.3630
vn 0.9212 -0.1741 -0.3480
vn 0.9020 -0.1126 -0.4168
vn 0.9091 0.0000 -0.4166
vn 0.9147 -0.0000 -0.4042
vn 0.9076 -0.1134 -0.4043
vn 0.8934 -0.1688 -0.4163
vn 0.8989 -0.1699 -0.4038
vn 0.9171 -0.1145 -0.3819
vn 0.9243 -0.0000 -0.3817
vn 0.9083 -0.1716 -0.3814
vn 0.9020 0.1126 -0.4168
vn 0.9076 0.1134 -0.4043
vn 0.8934 0.1688 -0.4163
vn 0.8989 0.1699 -0.4038
vn 0.9171 0.1145 -0.3819
vn 0.9083 0.1716 -0.3814
vn 0.0018 -0.0002 1.0000
vn 0.0018 -0.0000 1.0000
vn -0.0105 0.0000 0.9999
vn -0.0104 0.0013 0.9999
vn -0.0242 0.0000 0.9997
vn -0.0240 0.0030 0.9997
vn 0.0018 -0.0003 1.0000
vn -0.0102 0.0019 0.9999
vn -0.0237 0.0045 0.9997
vn -0.1004 0.0000 0.9949
vn -0.0995 0.0124 0.9950
vn -0.0463 0.0058 0.9989
vn -0.0467 -0.0000 0.9989
vn -0.0984 0.0186 0.9950
vn -0.0458 0.0087 0.9989
vn 0.0018 0.0002 1.0000
vn -0.0104 -0.0013 0.9999
vn 0.0018 0.0003 1.0000
vn -0.0102 -0.0019 0.9999
vn -0.0240 -0.0030 0.9997
vn -0.0237 -0.0045 0.9997
vn -0.0995 -0.0124 0.9950
vn -0.0463 -0.0058 0.9989
vn -0.0984 -0.0186 0.9950
vn -0.0458 -0.0087 0.9989
vn 0.9624 -0.0000 -0.2717
vn 0.9526 -0.0000 -0.3041
vn 0.9453 0.1181 -0.3042
vn 0.9549 0.1193 -0.2718
vn 0.9484 -0.0000 -0.3170
vn 0.9411 0.1175 -0.3172
vn 0.9362 0.1769 -0.3038
vn 0.9457 0.1787 -0.2714
vn 0.9320 0.1761 -0.3167
vn 0.9466 -0.0000 -0.3224
vn 0.9392 0.1173 -0.3226
vn 0.9302 0.1758 -0.3222
vn 0.2364 0.0000 0.9716
vn 0.2346 0.0292 0.9716
vn 0.8351 -0.0000 0.5501
vn 0.8287 0.1036 0.5501
vn 0.2345 0.0443 0.9711
vn 0.8224 0.1554 0.5473
vn 0.9959 -0.0000 -0.0908
vn 0.9882 0.1235 -0.0909
vn 0.9786 0.1849 -0.0906
vn 0.9882 -0.1235 -0.0909
vn 0.9549 -0.1193 -0.2718
vn 0.8286 -0.1036 0.5501
vn 0.9786 -0.1849 -0.0906
vn 0.9457 -0.1787 -0.2714
vn 0.8224 -0.1554 0.5473
vn 0.2346 -0.0292 0.9717
vn 0.2344 -0.0443 0.9711
vn 0.9392 -0.1173 -0.3226
vn 0.9411 -0.1175 -0.3172
vn 0.9302 -0.1758 -0.3222
vn 0.9320 -0.1761 -0.3167
vn 0.9453 -0.1181 -0.3042
vn 0.9362 -0.1769 -0.3038
vn -0.3541 -0.0000 0.9352
vn -0.3512 0.0439 0.9353
vn -0.7398 -0.0000 0.6728
vn -0.7339 0.0917 0.6730
vn -0.3465 0.0655 0.9358
vn -0.7264 0.1372 0.6735
vn -0.9129 0.0000 0.4082
vn -0.9415 -0.0000 0.3370
vn -0.9342 0.1167 0.3371
vn -0.9058 0.1131 0.4083
vn -0.9252 0.1748 0.3367
vn -0.8971 0.1695 0.4081
vn -0.9058 -0.1131 0.4084
vn -0.9342 -0.1167 0.3371
vn -0.7339 -0.0917 0.6730
vn -0.8971 -0.1695 0.4081
vn -0.9252 -0.1748 0.3367
vn -0.7264 -0.1372 0.6735
vn -0.3512 -0.0439 0.9353
vn -0.3465 -0.0655 0.9357
vn -0.9302 0.0000 0.3670
vn -0.9219 0.0000 0.3873
vn -0.9148 0.1143 0.3875
vn -0.9230 0.1153 0.3672
vn -0.9111 0.0000 0.4121
vn -0.9040 0.1129 0.4123
vn -0.9061 0.1712 0.3870
vn -0.9142 0.1727 0.3666
vn -0.8955 0.1692 0.4117
vn -0.9048 -0.0000 0.4258
vn -0.8978 0.1120 0.4260
vn -0.8892 0.1680 0.4255
vn -0.9452 0.0000 0.3266
vn -0.9442 0.0000 0.3294
vn -0.9369 0.1170 0.3295
vn -0.9378 0.1171 0.3268
vn -0.9412 0.0000 0.3378
vn -0.9339 0.1167 0.3380
vn -0.9279 0.1753 0.3291
vn -0.9288 0.1755 0.3263
vn -0.9250 0.1748 0.3375
vn -0.9366 0.0000 0.3505
vn -0.9293 0.1161 0.3507
vn -0.9204 0.1739 0.3502
vn -0.9293 -0.1161 0.3507
vn -0.9230 -0.1153 0.3672
vn -0.9339 -0.1167 0.3380
vn -0.9204 -0.1739 0.3502
vn -0.9142 -0.1727 0.3666
vn -0.9250 -0.1748 0.3375
vn -0.9378 -0.1171 0.3268
vn -0.9369 -0.1170 0.3295
vn -0.9288 -0.1755 0.3263
vn -0.9279 -0.1753 0.3291
vn -0.9040 -0.1129 0.4123
vn -0.8978 -0.1120 0.4260
vn -0.8955 -0.1692 0.4117
vn -0.8892 -0.1680 0.4255
vn -0.9148 -0.1143 0.3875
vn -0.9061 -0.1712 0.3870
vn -0.9435 0.0000 0.3314
vn -0.9362 0.1169 0.3316
vn -0.9444 0.0000 0.3288
vn -0.9371 0.1170 0.3289
vn -0.9272 0.1752 0.3311
vn -0.9281 0.1754 0.3285
vn -0.9449 0.0000 0.3274
vn -0.9376 0.1171 0.3275
vn -0.9286 0.1755 0.3271
vn -0.9376 -0.1171 0.3275
vn -0.9371 -0.1170 0.3289
vn -0.9286 -0.1755 0.3271
vn -0.9281 -0.1754 0.3285
vn -0.9362 -0.1169 0.3316
vn -0.9272 -0.1752 0.3311
usemtl pan_Mat
s 1
f 4/1/1 5/2/2 6/3/3 7/4/4
f 7/4/4 6/3/3 8/5/5 9/6/6
f 1/7/7 4/1/1 7/4/4 2/8/8
f 2/8/8 7/4/4 9/6/6 3/9/9
f 10/10/10 11/11/11 12/12/12 13/13/13
f 11/11/11 14/14/14 15/15/15 12/12/12
f 13/13/13 12/12/12 9/6/6 8/5/5
f 12/12/12 15/15/15 3/9/9 9/6/6
f 5/2/2 16/16/16 17/17/17 6/3/3
f 16/16/16 18/18/18 19/19/19 17/17/17
f 6/3/3 17/17/17 20/20/20 8/5/5
f 17/17/17 19/19/19 21/21/21 20/20/20
f 24/22/22 10/10/10 13/13/13 25/23/23
f 25/23/23 13/13/13 8/5/5 20/20/20
f 22/24/24 24/22/22 25/23/23 23/25/25
f 23/25/25 25/23/23 20/20/20 21/21/21
f 29/26/26 28/27/27 30/28/28 31/29/29
f 26/30/30 29/26/26 31/29/29 27/31/31
f 10/10/10 24/22/22 32/32/32 33/33/33
f 24/22/22 22/24/24 34/34/34 32/32/32
f 33/33/33 32/32/32 31/29/29 30/28/28
f 32/32/32 34/34/34 27/31/31 31/29/29
f 28/27/27 35/35/35 37/36/36 30/28/28
f 35/35/35 36/37/37 38/38/38 37/36/36
f 11/11/11 10/10/10 33/33/33 40/39/39
f 40/39/39 33/33/33 30/28/28 37/36/36
f 14/14/14 11/11/11 40/39/39 39/40/40
f 39/40/40 40/39/39 37/36/36 38/38/38
f 44/41/41 45/42/42 46/43/43 47/44/44
f 47/44/44 46/43/43 48/45/45 49/46/46
f 41/47/47 44/41/41 47/44/44 42/48/48
f 42/48/48 47/44/44 49/46/46 43/49/49
f 50/50/50 51/51/51 52/52/52 53/53/53
f 51/51/51 54/54/54 55/55/55 52/52/52
f 53/53/53 52/52/52 49/46/46 48/45/45
f 52/52/52 55/55/55 43/49/49 49/46/46
f 45/42/42 56/56/56 57/57/57 46/43/43
f 56/56/56 58/58/58 59/59/59 57/57/57
f 46/43/43 57/57/57 60/60/60 48/45/45
f 57/57/57 59/59/59 61/61/61 60/60/60
f 64/62/62 50/50/50 53/53/53 65/63/63
f 65/63/63 53/53/53 48/45/45 60/60/60
f 62/64/64 64/62/62 65/63/63 63/65/65
f 63/65/65 65/63/63 60/60/60 61/61/61
f 70/66/66 71/67/67 72/68/68 73/69/69
f 71/67/67 74/70/70 75/71/71 72/68/68
f 73/69/69 72/68/68 69/72/72 68/73/73
f 72/68/68 75/71/71 67/74/74 69/72/72
f 76/75/75 5/2/2 4/1/1 77/76/76
f 77/76/76 4/1/1 1/7/7 66/77/77
f 74/70/70 76/75/75 77/76/76 75/71/71
f 75/71/71 77/76/76 66/77/77 67/74/74
f 45/42/42 81/78/78 82/79/79 56/56/56
f 81/78/78 83/80/80 84/81/81 82/79/79
f 56/56/56 82/79/79 80/82/82 58/58/58
f 82/79/79 84/81/81 79/83/83 80/82/82
f 85/84/84 70/66/66 73/69/69 86/85/85
f 86/85/85 73/69/69 68/73/73 78/86/86
f 83/87/80 85/84/84 86/85/85 84/88/81
f 84/88/81 86/85/85 78/86/86 79/89/83
f 70/66/66 85/84/84 91/90/87 92/91/88
f 85/84/84 83/87/80 93/92/89 91/90/87
f 92/91/88 91/90/87 90/93/90 89/94/91
f 91/90/87 93/92/89 88/95/92 90/93/90
f 81/78/78 45/42/42 44/41/41 94/96/93
f 94/96/93 44/41/41 41/47/47 87/97/94
f 83/80/80 81/78/78 94/96/93 93/98/89
f 93/98/89 94/96/93 87/97/94 88/99/92
f 5/2/2 76/75/75 98/100/95 16/16/16
f 76/75/75 74/70/70 99/101/96 98/100/95
f 16/16/16 98/100/95 97/102/97 18/18/18
f 98/100/95 99/101/96 96/103/98 97/102/97
f 71/67/67 70/66/66 92/91/88 100/104/99
f 100/104/99 92/91/88 89/94/91 95/105/100
f 74/70/70 71/67/67 100/104/99 99/101/96
f 99/101/96 100/104/99 95/105/100 96/103/98
f 50/50/50 105/106/101 106/107/102 51/51/51
f 105/108/101 107/109/103 108/110/104 106/111/102
f 51/51/51 106/107/102 104/112/105 54/54/54
f 106/111/102 108/110/104 103/113/106 104/114/105
f 109/115/107 110/116/108 111/117/109 112/118/110
f 112/118/110 111/117/109 102/119/111 101/120/112
f 107/109/103 109/115/107 112/118/110 108/110/104
f 108/110/104 112/118/110 101/120/112 103/113/106
f 110/116/108 109/115/107 117/121/113 118/122/114
f 109/115/107 107/109/103 119/123/115 117/121/113
f 118/122/114 117/121/113 116/124/116 115/125/117
f 117/121/113 119/123/115 114/126/118 116/124/116
f 105/106/101 50/50/50 64/62/62 120/127/119
f 120/127/119 64/62/62 62/64/64 113/128/120
f 107/109/103 105/108/101 120/129/119 119/123/115
f 119/123/115 120/129/119 113/130/120 114/126/118
f 125/131/121 126/132/122 127/133/123 128/134/124
f 126/132/122 129/135/125 130/136/126 127/133/123
f 128/134/124 127/133/123 124/137/127 123/138/128
f 127/133/123 130/136/126 122/139/129 124/137/127
f 129/135/125 131/140/130 132/141/131 130/136/126
f 130/136/126 132/141/131 121/142/132 122/139/129
f 137/143/133 138/144/134 139/145/135 140/146/136
f 138/144/134 141/147/137 142/148/138 139/145/135
f 140/146/136 139/145/135 136/149/139 135/150/140
f 139/145/135 142/148/138 134/151/141 136/149/139
f 143/152/142 125/131/121 128/134/124 144/153/143
f 144/153/143 128/134/124 123/138/128 133/154/144
f 141/147/137 143/152/142 144/153/143 142/148/138
f 142/148/138 144/153/143 133/154/144 134/151/141
f 125/131/121 143/152/142 150/155/145 151/156/146
f 143/152/142 141/147/137 152/157/147 150/155/145
f 151/156/146 150/155/145 149/158/148 148/159/149
f 150/155/145 152/157/147 147/160/150 149/158/148
f 138/144/134 137/143/133 153/161/151 154/162/152
f 154/162/152 153/161/151 146/163/153 145/164/154
f 141/147/137 138/144/134 154/162/152 152/157/147
f 152/157/147 154/162/152 145/164/154 147/160/150
f 131/140/130 129/135/125 159/165/155 158/166/156
f 158/166/156 159/165/155 156/167/157 157/168/158
f 126/132/122 125/131/121 151/156/146 160/169/159
f 160/169/159 151/156/146 148/159/149 155/170/160
f 129/135/125 126/132/122 160/169/159 159/165/155
f 159/165/155 160/169/159 155/170/160 156/167/157
f 110/116/108 164/171/161 165/172/162 111/117/109
f 164/171/161 166/173/163 167/174/164 165/172/162
f 111/117/109 165/172/162 163/175/165 102/119/111
f 165/172/162 167/174/164 162/176/166 163/175/165
f 168/177/167 137/143/133 140/146/136 169/178/168
f 169/178/168 140/146/136 135/150/140 161/179/169
f 166/173/163 168/177/167 169/178/168 167/174/164
f 167/174/164 169/178/168 161/179/169 162/176/166
f 137/143/133 168/177/167 173/180/170 153/161/151
f 168/177/167 166/173/163 174/181/171 173/180/170
f 153/161/151 173/180/170 172/182/172 146/163/153
f 173/180/170 174/181/171 171/183/173 172/182/172
f 164/171/161 110/116/108 118/122/114 175/184/174
f 175/184/174 118/122/114 115/125/117 170/185/175
f 166/173/163 164/171/161 175/184/174 174/181/171
f 174/181/171 175/184/174 170/185/175 171/183/173
