# Blender v3.3.0 OBJ File: 'separated_pan.blend'
# www.blender.org
mtllib pan_12.mtl
o pan_12_pan_00.014
v 0.112963 -0.035818 -0.032423
v 0.113657 -0.035631 -0.034509
v 0.114497 -0.035405 -0.036980
v 0.109610 -0.018070 -0.032423
v 0.108492 0.000000 -0.032423
v 0.109209 0.000000 -0.034509
v 0.110321 -0.017976 -0.034509
v 0.110077 0.000000 -0.036980
v 0.111182 -0.017862 -0.036980
v 0.112233 0.000000 -0.042772
v 0.113320 -0.017579 -0.042772
v 0.112185 -0.017729 -0.039760
v 0.111088 0.000000 -0.039760
v 0.116582 -0.034843 -0.042772
v 0.115475 -0.035142 -0.039760
v 0.109610 0.018070 -0.032423
v 0.110321 0.017976 -0.034509
v 0.112963 0.035818 -0.032423
v 0.113657 0.035631 -0.034509
v 0.111182 0.017862 -0.036980
v 0.114497 0.035405 -0.036980
v 0.116582 0.034844 -0.042772
v 0.115475 0.035142 -0.039760
v 0.113320 0.017579 -0.042772
v 0.112185 0.017729 -0.039760
v 0.120592 0.033764 -0.052445
v 0.119150 0.034152 -0.049191
v 0.116378 0.000000 -0.052445
v 0.117431 0.017034 -0.052445
v 0.114886 0.000000 -0.049191
v 0.115952 0.017230 -0.049191
v 0.114579 0.017412 -0.045942
v 0.113502 0.000000 -0.045942
v 0.117810 0.034513 -0.045942
v 0.117431 -0.017034 -0.052445
v 0.120592 -0.033764 -0.052445
v 0.115952 -0.017230 -0.049191
v 0.119150 -0.034152 -0.049191
v 0.117810 -0.034513 -0.045942
v 0.114579 -0.017412 -0.045942
v 0.111871 0.036112 -0.027516
v 0.112262 0.036007 -0.027518
v 0.112722 0.035883 -0.027525
v 0.108490 0.018219 -0.027516
v 0.107363 0.000000 -0.027516
v 0.107767 0.000000 -0.027518
v 0.108891 0.018166 -0.027518
v 0.108243 0.000000 -0.027525
v 0.109363 0.018103 -0.027525
v 0.109115 0.000000 -0.027566
v 0.110228 0.017988 -0.027566
v 0.109832 0.018041 -0.027541
v 0.108716 0.000000 -0.027541
v 0.113566 0.035656 -0.027566
v 0.113180 0.035760 -0.027541
v 0.108490 -0.018219 -0.027516
v 0.108891 -0.018166 -0.027518
v 0.111871 -0.036112 -0.027516
v 0.112262 -0.036007 -0.027518
v 0.109363 -0.018103 -0.027525
v 0.112722 -0.035883 -0.027525
v 0.113566 -0.035656 -0.027566
v 0.113180 -0.035759 -0.027541
v 0.110228 -0.017988 -0.027566
v 0.109832 -0.018041 -0.027541
v 0.112425 -0.035963 -0.030799
v 0.112025 -0.036071 -0.029577
v 0.111570 -0.036193 -0.028116
v 0.111745 -0.036146 -0.028702
v 0.107052 0.000000 -0.028116
v 0.107233 0.000000 -0.028702
v 0.108361 -0.018236 -0.028702
v 0.108182 -0.018260 -0.028116
v 0.107522 0.000000 -0.029577
v 0.108648 -0.018198 -0.029577
v 0.107936 0.000000 -0.030799
v 0.109058 -0.018143 -0.030799
v 0.111482 -0.036217 -0.027761
v 0.111494 -0.036214 -0.027581
v 0.111619 -0.036180 -0.027518
v 0.107103 0.000000 -0.027518
v 0.108232 -0.018253 -0.027518
v 0.106973 0.000000 -0.027581
v 0.108104 -0.018270 -0.027581
v 0.106961 0.000000 -0.027761
v 0.108091 -0.018271 -0.027761
v 0.111619 0.036180 -0.027518
v 0.111494 0.036214 -0.027581
v 0.111570 0.036193 -0.028116
v 0.111482 0.036217 -0.027761
v 0.108091 0.018272 -0.027761
v 0.108182 0.018260 -0.028116
v 0.108104 0.018270 -0.027581
v 0.108232 0.018253 -0.027518
v 0.111745 0.036146 -0.028702
v 0.112025 0.036071 -0.029577
v 0.112425 0.035963 -0.030799
v 0.109058 0.018143 -0.030799
v 0.108648 0.018198 -0.029577
v 0.108361 0.018236 -0.028702
v 0.114094 0.035513 -0.027961
v 0.114252 0.035471 -0.028412
v 0.113966 0.035548 -0.027712
v 0.113809 0.035590 -0.027601
v 0.109366 0.000000 -0.027601
v 0.110477 0.017956 -0.027601
v 0.109528 0.000000 -0.027712
v 0.110637 0.017934 -0.027712
v 0.109661 0.000000 -0.027961
v 0.109824 0.000000 -0.028412
v 0.110931 0.017895 -0.028412
v 0.110769 0.017917 -0.027961
v 0.113809 -0.035590 -0.027601
v 0.113966 -0.035548 -0.027712
v 0.114252 -0.035471 -0.028412
v 0.114094 -0.035513 -0.027961
v 0.110769 -0.017917 -0.027961
v 0.110931 -0.017895 -0.028412
v 0.110637 -0.017934 -0.027712
v 0.110476 -0.017955 -0.027601
v 0.123034 0.033106 -0.051777
v 0.121670 0.033474 -0.048780
v 0.119263 0.034122 -0.042867
v 0.120411 0.033813 -0.045788
v 0.115004 0.000000 -0.042867
v 0.116190 0.000000 -0.045788
v 0.117245 0.017059 -0.045788
v 0.116069 0.017215 -0.042867
v 0.117491 0.000000 -0.048780
v 0.118536 0.016888 -0.048780
v 0.118901 0.000000 -0.051777
v 0.119935 0.016702 -0.051777
v 0.118230 0.034400 -0.040082
v 0.117314 0.034646 -0.037492
v 0.115839 0.035044 -0.033122
v 0.116517 0.034861 -0.035153
v 0.111464 0.000000 -0.033122
v 0.112165 0.000000 -0.035153
v 0.113253 0.017588 -0.035153
v 0.112558 0.017680 -0.033122
v 0.112989 0.000000 -0.037492
v 0.114071 0.017479 -0.037492
v 0.113936 0.000000 -0.040082
v 0.115010 0.017355 -0.040082
v 0.116517 -0.034861 -0.035153
v 0.115839 -0.035044 -0.033122
v 0.117314 -0.034646 -0.037492
v 0.119263 -0.034122 -0.042867
v 0.118230 -0.034400 -0.040082
v 0.115010 -0.017355 -0.040082
v 0.116068 -0.017214 -0.042867
v 0.114071 -0.017479 -0.037492
v 0.112558 -0.017680 -0.033122
v 0.113253 -0.017588 -0.035153
v 0.120411 -0.033812 -0.045788
v 0.121670 -0.033474 -0.048780
v 0.123034 -0.033106 -0.051777
v 0.119935 -0.016702 -0.051777
v 0.118536 -0.016888 -0.048780
v 0.117245 -0.017059 -0.045788
v 0.115282 0.035194 -0.031458
v 0.114837 0.035313 -0.030135
v 0.114497 0.035405 -0.029128
v 0.110078 0.000000 -0.029128
v 0.111182 0.017862 -0.029128
v 0.110429 0.000000 -0.030135
v 0.111531 0.017816 -0.030135
v 0.110888 0.000000 -0.031458
v 0.111987 0.017755 -0.031458
v 0.114497 -0.035405 -0.029128
v 0.114837 -0.035313 -0.030135
v 0.115282 -0.035194 -0.031458
v 0.111987 -0.017755 -0.031458
v 0.111531 -0.017816 -0.030135
v 0.111182 -0.017862 -0.029128
vt 0.236180 0.028425
vt 0.267112 0.027003
vt 0.267054 0.030228
vt 0.236545 0.031629
vt 0.266986 0.034045
vt 0.236977 0.035423
vt 0.205756 0.033788
vt 0.206537 0.036917
vt 0.207461 0.040622
vt 0.266827 0.043017
vt 0.237992 0.044338
vt 0.237464 0.039696
vt 0.266910 0.038346
vt 0.209633 0.049326
vt 0.208502 0.044795
vt 0.297971 0.029540
vt 0.297493 0.032728
vt 0.328181 0.035995
vt 0.327290 0.039095
vt 0.296926 0.036504
vt 0.326235 0.042764
vt 0.295595 0.045377
vt 0.296288 0.040757
vt 0.323756 0.051385
vt 0.325047 0.046897
vt 0.293343 0.060383
vt 0.266558 0.058190
vt 0.266649 0.053043
vt 0.294107 0.055292
vt 0.319564 0.065964
vt 0.320986 0.061018
vt 0.294862 0.050257
vt 0.266739 0.047951
vt 0.322393 0.056126
vt 0.239711 0.059414
vt 0.239128 0.054299
vt 0.213306 0.064044
vt 0.212060 0.059051
vt 0.238551 0.049240
vt 0.210827 0.054112
vt 0.756667 0.422716
vt 0.730106 0.426176
vt 0.730066 0.425585
vt 0.756549 0.422134
vt 0.730018 0.424887
vt 0.756411 0.421449
vt 0.782528 0.415988
vt 0.782335 0.415426
vt 0.782108 0.414765
vt 0.729932 0.423609
vt 0.756157 0.420192
vt 0.756273 0.420768
vt 0.729971 0.424193
vt 0.781691 0.413550
vt 0.781881 0.414105
vt 0.703321 0.426337
vt 0.703359 0.425745
vt 0.676788 0.423165
vt 0.676903 0.422582
vt 0.703403 0.425047
vt 0.677039 0.421896
vt 0.703485 0.423767
vt 0.703448 0.424354
vt 0.677288 0.420637
vt 0.677174 0.421212
vt 0.267233 0.020337
vt 0.267216 0.021241
vt 0.235530 0.022698
vt 0.235428 0.021801
vt 0.267192 0.022595
vt 0.235683 0.024044
vt 0.204363 0.028195
vt 0.204145 0.027319
vt 0.204691 0.029509
vt 0.267157 0.024487
vt 0.235896 0.025924
vt 0.205148 0.031346
vt 0.730132 0.426556
vt 0.703296 0.426718
vt 0.730146 0.426768
vt 0.703283 0.426929
vt 0.676714 0.423540
vt 0.676673 0.423747
vt 0.267242 0.019797
vt 0.235368 0.021265
vt 0.204015 0.026795
vt 0.267247 0.019531
vt 0.235339 0.021000
vt 0.203952 0.026536
vt 0.299043 0.022413
vt 0.298963 0.022947
vt 0.299081 0.022150
vt 0.330175 0.029070
vt 0.330026 0.029589
vt 0.330247 0.028813
vt 0.756743 0.423090
vt 0.782652 0.416349
vt 0.756784 0.423298
vt 0.782720 0.416549
vt 0.298346 0.027050
vt 0.298627 0.025179
vt 0.328878 0.033577
vt 0.329401 0.031758
vt 0.298829 0.023840
vt 0.329776 0.030456
vt 0.729906 0.423239
vt 0.756083 0.419828
vt 0.278629 0.509302
vt 0.278618 0.509591
vt 0.247666 0.510327
vt 0.247639 0.510039
vt 0.781570 0.413198
vt 0.217130 0.515007
vt 0.217065 0.514725
vt 0.278601 0.510006
vt 0.278573 0.510711
vt 0.247769 0.511443
vt 0.247705 0.510740
vt 0.217377 0.516101
vt 0.217222 0.515413
vt 0.309340 0.513214
vt 0.309220 0.513909
vt 0.309411 0.512804
vt 0.339352 0.520315
vt 0.339142 0.520988
vt 0.339476 0.519918
vt 0.703509 0.423396
vt 0.677360 0.420271
vt 0.309462 0.512520
vt 0.339564 0.519642
vt 0.277671 0.533088
vt 0.277487 0.537644
vt 0.250208 0.538286
vt 0.249795 0.533744
vt 0.277296 0.542349
vt 0.250634 0.542975
vt 0.223299 0.542393
vt 0.222298 0.537946
vt 0.224334 0.546985
vt 0.277104 0.547117
vt 0.251066 0.547726
vt 0.225383 0.551637
vt 0.278279 0.518018
vt 0.278152 0.521151
vt 0.248715 0.521848
vt 0.248431 0.518725
vt 0.278007 0.524762
vt 0.249041 0.525447
vt 0.219673 0.526294
vt 0.218985 0.523234
vt 0.220467 0.529819
vt 0.277845 0.528768
vt 0.249404 0.529438
vt 0.221348 0.533729
vt 0.306142 0.531715
vt 0.305405 0.535975
vt 0.306825 0.527765
vt 0.333765 0.538239
vt 0.332478 0.542366
vt 0.334958 0.534413
vt 0.307975 0.521114
vt 0.307441 0.524205
vt 0.336966 0.527969
vt 0.336033 0.530964
vt 0.303824 0.545107
vt 0.303010 0.549808
vt 0.329718 0.551211
vt 0.328298 0.555764
vt 0.304627 0.540468
vt 0.331120 0.546718
vt 0.278528 0.511828
vt 0.247870 0.512555
vt 0.278465 0.513392
vt 0.248012 0.514115
vt 0.217623 0.517190
vt 0.217967 0.518718
vt 0.278382 0.515443
vt 0.248198 0.516159
vt 0.218419 0.520721
vt 0.308414 0.518575
vt 0.308763 0.516553
vt 0.337733 0.525509
vt 0.338344 0.523550
vt 0.309030 0.515009
vt 0.338810 0.522054
vn -0.9385 -0.1172 -0.3247
vn -0.9459 0.0000 -0.3245
vn -0.9446 0.0000 -0.3282
vn -0.9373 -0.1171 -0.3284
vn -0.9417 0.0000 -0.3366
vn -0.9343 -0.1167 -0.3367
vn -0.9295 -0.1756 -0.3242
vn -0.9283 -0.1754 -0.3279
vn -0.9254 -0.1749 -0.3363
vn -0.9317 0.0000 -0.3633
vn -0.9244 -0.1155 -0.3635
vn -0.9301 -0.1162 -0.3485
vn -0.9374 0.0000 -0.3483
vn -0.9156 -0.1730 -0.3630
vn -0.9212 -0.1741 -0.3480
vn -0.9385 0.1172 -0.3247
vn -0.9373 0.1171 -0.3284
vn -0.9295 0.1756 -0.3242
vn -0.9283 0.1754 -0.3279
vn -0.9343 0.1167 -0.3367
vn -0.9254 0.1749 -0.3363
vn -0.9244 0.1155 -0.3635
vn -0.9301 0.1162 -0.3485
vn -0.9156 0.1730 -0.3630
vn -0.9212 0.1741 -0.3480
vn -0.9020 0.1126 -0.4168
vn -0.9091 0.0000 -0.4166
vn -0.9147 0.0000 -0.4042
vn -0.9076 0.1134 -0.4043
vn -0.8934 0.1688 -0.4163
vn -0.8989 0.1699 -0.4038
vn -0.9171 0.1145 -0.3819
vn -0.9243 0.0000 -0.3817
vn -0.9083 0.1716 -0.3814
vn -0.9020 -0.1125 -0.4168
vn -0.9076 -0.1134 -0.4043
vn -0.8934 -0.1688 -0.4163
vn -0.8989 -0.1699 -0.4038
vn -0.9171 -0.1145 -0.3819
vn -0.9083 -0.1716 -0.3814
vn -0.0018 0.0002 1.0000
vn -0.0018 -0.0000 1.0000
vn 0.0105 0.0000 0.9999
vn 0.0104 -0.0013 0.9999
vn 0.0242 -0.0000 0.9997
vn 0.0240 -0.0030 0.9997
vn -0.0018 0.0003 1.0000
vn 0.0102 -0.0019 0.9999
vn 0.0237 -0.0045 0.9997
vn 0.1004 0.0000 0.9949
vn 0.0995 -0.0124 0.9950
vn 0.0463 -0.0058 0.9989
vn 0.0467 -0.0000 0.9989
vn 0.0984 -0.0186 0.9950
vn 0.0458 -0.0087 0.9989
vn -0.0018 -0.0002 1.0000
vn 0.0104 0.0013 0.9999
vn -0.0018 -0.0003 1.0000
vn 0.0102 0.0019 0.9999
vn 0.0240 0.0030 0.9997
vn 0.0237 0.0045 0.9997
vn 0.0995 0.0124 0.9950
vn 0.0463 0.0058 0.9989
vn 0.0984 0.0186 0.9950
vn 0.0458 0.0087 0.9989
vn -0.9624 0.0000 -0.2717
vn -0.9527 0.0000 -0.3041
vn -0.9453 -0.1181 -0.3042
vn -0.9549 -0.1193 -0.2718
vn -0.9484 0.0000 -0.3170
vn -0.9411 -0.1175 -0.3172
vn -0.9362 -0.1769 -0.3038
vn -0.9457 -0.1787 -0.2714
vn -0.9320 -0.1761 -0.3167
vn -0.9466 0.0000 -0.3224
vn -0.9392 -0.1173 -0.3226
vn -0.9302 -0.1758 -0.3222
vn -0.2365 -0.0000 0.9716
vn -0.2346 -0.0292 0.9716
vn -0.8351 0.0000 0.5501
vn -0.8287 -0.1036 0.5501
vn -0.2345 -0.0443 0.9711
vn -0.8224 -0.1554 0.5473
vn -0.9959 0.0000 -0.0908
vn -0.9882 -0.1235 -0.0909
vn -0.9786 -0.1849 -0.0906
vn -0.9882 0.1235 -0.0909
vn -0.9549 0.1193 -0.2718
vn -0.8287 0.1036 0.5501
vn -0.9786 0.1849 -0.0906
vn -0.9457 0.1787 -0.2714
vn -0.8224 0.1554 0.5473
vn -0.2346 0.0292 0.9716
vn -0.2345 0.0443 0.9711
vn -0.9392 0.1173 -0.3226
vn -0.9411 0.1175 -0.3172
vn -0.9302 0.1758 -0.3222
vn -0.9320 0.1761 -0.3167
vn -0.9453 0.1181 -0.3042
vn -0.9362 0.1769 -0.3038
vn 0.3542 -0.0000 0.9352
vn 0.3512 -0.0439 0.9353
vn 0.7398 -0.0000 0.6728
vn 0.7339 -0.0917 0.6730
vn 0.3465 -0.0655 0.9357
vn 0.7264 -0.1372 0.6735
vn 0.9129 -0.0000 0.4082
vn 0.9415 -0.0000 0.3370
vn 0.9342 -0.1167 0.3371
vn 0.9058 -0.1131 0.4084
vn 0.9253 -0.1748 0.3367
vn 0.8971 -0.1695 0.4081
vn 0.9058 0.1131 0.4084
vn 0.9342 0.1167 0.3371
vn 0.7339 0.0917 0.6730
vn 0.8971 0.1695 0.4081
vn 0.9252 0.1748 0.3367
vn 0.7264 0.1373 0.6735
vn 0.3512 0.0439 0.9353
vn 0.3466 0.0655 0.9357
vn 0.9302 -0.0000 0.3670
vn 0.9219 -0.0000 0.3873
vn 0.9148 -0.1143 0.3875
vn 0.9230 -0.1153 0.3671
vn 0.9111 -0.0000 0.4121
vn 0.9040 -0.1129 0.4123
vn 0.9061 -0.1712 0.3870
vn 0.9142 -0.1727 0.3666
vn 0.8955 -0.1692 0.4117
vn 0.9048 -0.0000 0.4258
vn 0.8978 -0.1120 0.4260
vn 0.8892 -0.1680 0.4255
vn 0.9452 -0.0000 0.3266
vn 0.9442 -0.0000 0.3294
vn 0.9369 -0.1170 0.3295
vn 0.9378 -0.1171 0.3268
vn 0.9412 -0.0000 0.3378
vn 0.9339 -0.1167 0.3380
vn 0.9279 -0.1753 0.3291
vn 0.9288 -0.1755 0.3263
vn 0.9250 -0.1748 0.3375
vn 0.9366 -0.0000 0.3505
vn 0.9293 -0.1161 0.3507
vn 0.9204 -0.1739 0.3502
vn 0.9293 0.1161 0.3507
vn 0.9230 0.1153 0.3672
vn 0.9339 0.1167 0.3380
vn 0.9204 0.1739 0.3502
vn 0.9142 0.1727 0.3666
vn 0.9250 0.1748 0.3375
vn 0.9378 0.1171 0.3267
vn 0.9369 0.1170 0.3295
vn 0.9288 0.1755 0.3263
vn 0.9279 0.1753 0.3291
vn 0.9040 0.1129 0.4123
vn 0.8978 0.1120 0.4260
vn 0.8955 0.1692 0.4117
vn 0.8892 0.1680 0.4255
vn 0.9148 0.1143 0.3875
vn 0.9061 0.1712 0.3870
vn 0.9435 -0.0000 0.3314
vn 0.9362 -0.1169 0.3316
vn 0.9444 -0.0000 0.3288
vn 0.9371 -0.1170 0.3289
vn 0.9272 -0.1752 0.3311
vn 0.9281 -0.1754 0.3285
vn 0.9449 -0.0000 0.3274
vn 0.9375 -0.1171 0.3275
vn 0.9286 -0.1755 0.3271
vn 0.9376 0.1171 0.3275
vn 0.9371 0.1170 0.3289
vn 0.9286 0.1755 0.3271
vn 0.9281 0.1754 0.3285
vn 0.9362 0.1169 0.3316
vn 0.9272 0.1752 0.3311
usemtl pan_Mat
s 1
f 4/1/1 5/2/2 6/3/3 7/4/4
f 7/4/4 6/3/3 8/5/5 9/6/6
f 1/7/7 4/1/1 7/4/4 2/8/8
f 2/8/8 7/4/4 9/6/6 3/9/9
f 10/10/10 11/11/11 12/12/12 13/13/13
f 11/11/11 14/14/14 15/15/15 12/12/12
f 13/13/13 12/12/12 9/6/6 8/5/5
f 12/12/12 15/15/15 3/9/9 9/6/6
f 5/2/2 16/16/16 17/17/17 6/3/3
f 16/16/16 18/18/18 19/19/19 17/17/17
f 6/3/3 17/17/17 20/20/20 8/5/5
f 17/17/17 19/19/19 21/21/21 20/20/20
f 24/22/22 10/10/10 13/13/13 25/23/23
f 25/23/23 13/13/13 8/5/5 20/20/20
f 22/24/24 24/22/22 25/23/23 23/25/25
f 23/25/25 25/23/23 20/20/20 21/21/21
f 29/26/26 28/27/27 30/28/28 31/29/29
f 26/30/30 29/26/26 31/29/29 27/31/31
f 10/10/10 24/22/22 32/32/32 33/33/33
f 24/22/22 22/24/24 34/34/34 32/32/32
f 33/33/33 32/32/32 31/29/29 30/28/28
f 32/32/32 34/34/34 27/31/31 31/29/29
f 28/27/27 35/35/35 37/36/36 30/28/28
f 35/35/35 36/37/37 38/38/38 37/36/36
f 11/11/11 10/10/10 33/33/33 40/39/39
f 40/39/39 33/33/33 30/28/28 37/36/36
f 14/14/14 11/11/11 40/39/39 39/40/40
f 39/40/40 40/39/39 37/36/36 38/38/38
f 44/41/41 45/42/42 46/43/43 47/44/44
f 47/44/44 46/43/43 48/45/45 49/46/46
f 41/47/47 44/41/41 47/44/44 42/48/48
f 42/48/48 47/44/44 49/46/46 43/49/49
f 50/50/50 51/51/51 52/52/52 53/53/53
f 51/51/51 54/54/54 55/55/55 52/52/52
f 53/53/53 52/52/52 49/46/46 48/45/45
f 52/52/52 55/55/55 43/49/49 49/46/46
f 45/42/42 56/56/56 57/57/57 46/43/43
f 56/56/56 58/58/58 59/59/59 57/57/57
f 46/43/43 57/57/57 60/60/60 48/45/45
f 57/57/57 59/59/59 61/61/61 60/60/60
f 64/62/62 50/50/50 53/53/53 65/63/63
f 65/63/63 53/53/53 48/45/45 60/60/60
f 62/64/64 64/62/62 65/63/63 63/65/65
f 63/65/65 65/63/63 60/60/60 61/61/61
f 70/66/66 71/67/67 72/68/68 73/69/69
f 71/67/67 74/70/70 75/71/71 72/68/68
f 73/69/69 72/68/68 69/72/72 68/73/73
f 72/68/68 75/71/71 67/74/74 69/72/72
f 76/75/75 5/2/2 4/1/1 77/76/76
f 77/76/76 4/1/1 1/7/7 66/77/77
f 74/70/70 76/75/75 77/76/76 75/71/71
f 75/71/71 77/76/76 66/77/77 67/74/74
f 45/42/42 81/78/78 82/79/79 56/56/56
f 81/78/78 83/80/80 84/81/81 82/79/79
f 56/56/56 82/79/79 80/82/82 58/58/58
f 82/79/79 84/81/81 79/83/83 80/82/82
f 85/84/84 70/66/66 73/69/69 86/85/85
f 86/85/85 73/69/69 68/73/73 78/86/86
f 83/87/80 85/84/84 86/85/85 84/88/81
f 84/88/81 86/85/85 78/86/86 79/89/83
f 70/66/66 85/84/84 91/90/87 92/91/88
f 85/84/84 83/87/80 93/92/89 91/90/87
f 92/91/88 91/90/87 90/93/90 89/94/91
f 91/90/87 93/92/89 88/95/92 90/93/90
f 81/78/78 45/42/42 44/41/41 94/96/93
f 94/96/93 44/41/41 41/47/47 87/97/94
f 83/80/80 81/78/78 94/96/93 93/98/89
f 93/98/89 94/96/93 87/97/94 88/99/92
f 5/2/2 76/75/75 98/100/95 16/16/16
f 76/75/75 74/70/70 99/101/96 98/100/95
f 16/16/16 98/100/95 97/102/97 18/18/18
f 98/100/95 99/101/96 96/103/98 97/102/97
f 71/67/67 70/66/66 92/91/88 100/104/99
f 100/104/99 92/91/88 89/94/91 95/105/100
f 74/70/70 71/67/67 100/104/99 99/101/96
f 99/101/96 100/104/99 95/105/100 96/103/98
f 50/50/50 105/106/101 106/107/102 51/51/51
f 105/108/101 107/109/103 108/110/104 106/111/102
f 51/51/51 106/107/102 104/112/105 54/54/54
f 106/111/102 108/110/104 103/113/106 104/114/105
f 109/115/107 110/116/108 111/117/109 112/118/110
f 112/118/110 111/117/109 102/119/111 101/120/112
f 107/109/103 109/115/107 112/118/110 108/110/104
f 108/110/104 112/118/110 101/120/112 103/113/106
f 110/116/108 109/115/107 117/121/113 118/122/114
f 109/115/107 107/109/103 119/123/115 117/121/113
f 118/122/114 117/121/113 116/124/116 115/125/117
f 117/121/113 119/123/115 114/126/118 116/124/116
f 105/106/101 50/50/50 64/62/62 120/127/119
f 120/127/119 64/62/62 62/64/64 113/128/120
f 107/109/103 105/108/101 120/129/119 119/123/115
f 119/123/115 120/129/119 113/130/120 114/126/118
f 125/131/121 126/132/122 127/133/123 128/134/124
f 126/132/122 129/135/125 130/136/126 127/133/123
f 128/134/124 127/133/123 124/137/127 123/138/128
f 127/133/123 130/136/126 122/139/129 124/137/127
f 129/135/125 131/140/130 132/141/131 130/136/126
f 130/136/126 132/141/131 121/142/132 122/139/129
f 137/143/133 138/144/134 139/145/135 140/146/136
f 138/144/134 141/147/137 142/148/138 139/145/135
f 140/146/136 139/145/135 136/149/139 135/150/140
f 139/145/135 142/148/138 134/151/141 136/149/139
f 143/152/142 125/131/121 128/134/124 144/153/143
f 144/153/143 128/134/124 123/138/128 133/154/144
f 141/147/137 143/152/142 144/153/143 142/148/138
f 142/148/138 144/153/143 133/154/144 134/151/141
f 125/131/121 143/152/142 150/155/145 151/156/146
f 143/152/142 141/147/137 152/157/147 150/155/145
f 151/156/146 150/155/145 149/158/148 148/159/149
f 150/155/145 152/157/147 147/160/150 149/158/148
f 138/144/134 137/143/133 153/161/151 154/162/152
f 154/162/152 153/161/151 146/163/153 145/164/154
f 141/147/137 138/144/134 154/162/152 152/157/147
f 152/157/147 154/162/152 145/164/154 147/160/150
f 131/140/130 129/135/125 159/165/155 158/166/156
f 158/166/156 159/165/155 156/167/157 157/168/158
f 126/132/122 125/131/121 151/156/146 160/169/159
f 160/169/159 151/156/146 148/159/149 155/170/160
f 129/135/125 126/132/122 160/169/159 159/165/155
f 159/165/155 160/169/159 155/170/160 156/167/157
f 110/116/108 164/171/161 165/172/162 111/117/109
f 164/171/161 166/173/163 167/174/164 165/172/162
f 111/117/109 165/172/162 163/175/165 102/119/111
f 165/172/162 167/174/164 162/176/166 163/175/165
f 168/177/167 137/143/133 140/146/136 169/178/168
f 169/178/168 140/146/136 135/150/140 161/179/169
f 166/173/163 168/177/167 169/178/168 167/174/164
f 167/174/164 169/178/168 161/179/169 162/176/166
f 137/143/133 168/177/167 173/180/170 153/161/151
f 168/177/167 166/173/163 174/181/171 173/180/170
f 153/161/151 173/180/170 172/182/172 146/163/153
f 173/180/170 174/181/171 171/183/173 172/182/172
f 164/171/161 110/116/108 118/122/114 175/184/174
f 175/184/174 118/122/114 115/125/117 170/185/175
f 166/173/163 164/171/161 175/184/174 174/181/171
f 174/181/171 175/184/174 170/185/175 171/183/173
