# Blender v3.3.0 OBJ File: 'separated_pan.blend'
# www.blender.org
mtllib pan_19.mtl
o pan_19_pan_00.021
v 0.365588 0.069054 -0.032423
v 0.373413 0.052920 -0.032423
v 0.372749 0.052644 -0.034509
v 0.364965 0.068694 -0.034509
v 0.379002 0.035818 -0.032423
v 0.378309 0.035631 -0.034509
v 0.371944 0.052310 -0.036980
v 0.364210 0.068258 -0.036980
v 0.377469 0.035405 -0.036980
v 0.375383 0.034843 -0.042772
v 0.376491 0.035142 -0.039760
v 0.369946 0.051480 -0.042772
v 0.362335 0.067176 -0.042772
v 0.363330 0.067750 -0.039760
v 0.371007 0.051921 -0.039760
v 0.371373 0.033764 -0.052445
v 0.372816 0.034152 -0.049191
v 0.358729 0.065094 -0.052445
v 0.366105 0.049885 -0.052445
v 0.360026 0.065843 -0.049191
v 0.367487 0.050459 -0.049191
v 0.368770 0.050992 -0.045942
v 0.361231 0.066538 -0.045942
v 0.374156 0.034513 -0.045942
v 0.343512 0.097289 -0.032423
v 0.343003 0.096782 -0.034509
v 0.342387 0.096167 -0.036980
v 0.355528 0.083898 -0.032423
v 0.354957 0.083460 -0.034509
v 0.354265 0.082930 -0.036980
v 0.352548 0.081615 -0.042772
v 0.353460 0.082314 -0.039760
v 0.340858 0.094642 -0.042772
v 0.341670 0.095452 -0.039760
v 0.349245 0.079086 -0.052445
v 0.337918 0.091709 -0.052445
v 0.350434 0.079996 -0.049191
v 0.338976 0.092765 -0.049191
v 0.339958 0.093744 -0.045942
v 0.351537 0.080841 -0.045942
v 0.380095 0.036112 -0.027516
v 0.379704 0.036007 -0.027518
v 0.379244 0.035883 -0.027525
v 0.374460 0.053355 -0.027516
v 0.366571 0.069621 -0.027516
v 0.366219 0.069418 -0.027518
v 0.374085 0.053199 -0.027518
v 0.365805 0.069180 -0.027525
v 0.373644 0.053016 -0.027525
v 0.365047 0.068741 -0.027566
v 0.372836 0.052680 -0.027566
v 0.373205 0.052834 -0.027541
v 0.365393 0.068942 -0.027541
v 0.378400 0.035656 -0.027566
v 0.378785 0.035759 -0.027541
v 0.356428 0.084587 -0.027516
v 0.356106 0.084340 -0.027518
v 0.344313 0.098088 -0.027516
v 0.344026 0.097802 -0.027518
v 0.355727 0.084050 -0.027525
v 0.343689 0.097466 -0.027525
v 0.343070 0.096848 -0.027566
v 0.343353 0.097131 -0.027541
v 0.355032 0.083518 -0.027566
v 0.355350 0.083761 -0.027541
v 0.366073 0.069334 -0.030799
v 0.373929 0.053134 -0.030799
v 0.366433 0.069542 -0.029577
v 0.374312 0.053294 -0.029577
v 0.379541 0.035963 -0.030799
v 0.379941 0.036071 -0.029577
v 0.366684 0.069687 -0.028702
v 0.366841 0.069777 -0.028116
v 0.374748 0.053474 -0.028116
v 0.374580 0.053405 -0.028702
v 0.380395 0.036193 -0.028116
v 0.380220 0.036146 -0.028702
v 0.366920 0.069823 -0.027761
v 0.374832 0.053509 -0.027761
v 0.366910 0.069817 -0.027581
v 0.374821 0.053505 -0.027581
v 0.380483 0.036217 -0.027761
v 0.380471 0.036213 -0.027581
v 0.366797 0.069752 -0.027518
v 0.374701 0.053455 -0.027518
v 0.380346 0.036180 -0.027518
v 0.356635 0.084746 -0.027518
v 0.356738 0.084824 -0.027581
v 0.344497 0.098272 -0.027518
v 0.344589 0.098364 -0.027581
v 0.356675 0.084776 -0.028116
v 0.356748 0.084832 -0.027761
v 0.344533 0.098308 -0.028116
v 0.344598 0.098373 -0.027761
v 0.356531 0.084666 -0.028702
v 0.356301 0.084490 -0.029577
v 0.344405 0.098180 -0.028702
v 0.344200 0.097976 -0.029577
v 0.355972 0.084237 -0.030799
v 0.343906 0.097683 -0.030799
v 0.364828 0.068615 -0.027602
v 0.372603 0.052584 -0.027602
v 0.364687 0.068534 -0.027712
v 0.372453 0.052521 -0.027712
v 0.378157 0.035590 -0.027602
v 0.378000 0.035548 -0.027712
v 0.364572 0.068467 -0.027961
v 0.364429 0.068385 -0.028412
v 0.372178 0.052407 -0.028412
v 0.372330 0.052470 -0.027961
v 0.377713 0.035471 -0.028412
v 0.377871 0.035513 -0.027961
v 0.354597 0.083184 -0.027961
v 0.354467 0.083085 -0.028412
v 0.354703 0.083266 -0.027712
v 0.342683 0.096462 -0.027961
v 0.342567 0.096346 -0.028412
v 0.342777 0.096556 -0.027712
v 0.354832 0.083365 -0.027602
v 0.342892 0.096671 -0.027602
v 0.363003 0.067562 -0.033122
v 0.362393 0.067210 -0.035153
v 0.370009 0.051506 -0.035153
v 0.370659 0.051776 -0.033122
v 0.361676 0.066796 -0.037492
v 0.369245 0.051189 -0.037492
v 0.375449 0.034861 -0.035153
v 0.376127 0.035044 -0.033122
v 0.374651 0.034646 -0.037492
v 0.360853 0.066320 -0.040082
v 0.359924 0.065784 -0.042867
v 0.367378 0.050414 -0.042867
v 0.368367 0.050825 -0.040082
v 0.372702 0.034122 -0.042867
v 0.373735 0.034400 -0.040082
v 0.358892 0.065188 -0.045788
v 0.366278 0.049957 -0.045788
v 0.357760 0.064535 -0.048781
v 0.365073 0.049456 -0.048781
v 0.371555 0.033812 -0.045788
v 0.370296 0.033474 -0.048781
v 0.356533 0.063826 -0.051777
v 0.363766 0.048914 -0.051777
v 0.368931 0.033106 -0.051777
v 0.347235 0.077546 -0.051777
v 0.348358 0.078407 -0.048781
v 0.336128 0.089924 -0.051777
v 0.337128 0.090922 -0.048781
v 0.350340 0.079924 -0.042867
v 0.349395 0.079200 -0.045788
v 0.338893 0.092682 -0.042867
v 0.338051 0.091842 -0.045788
v 0.351191 0.080576 -0.040082
v 0.351945 0.081153 -0.037492
v 0.339650 0.093437 -0.040082
v 0.340322 0.094107 -0.037492
v 0.353160 0.082084 -0.033122
v 0.352602 0.081657 -0.035153
v 0.341404 0.095186 -0.033122
v 0.340906 0.094690 -0.035153
v 0.364209 0.068258 -0.029128
v 0.371944 0.052310 -0.029128
v 0.363903 0.068081 -0.030135
v 0.371618 0.052174 -0.030135
v 0.377468 0.035405 -0.029128
v 0.377128 0.035313 -0.030135
v 0.363504 0.067851 -0.031458
v 0.371192 0.051998 -0.031458
v 0.376684 0.035194 -0.031458
v 0.353619 0.082436 -0.031458
v 0.353985 0.082716 -0.030135
v 0.341812 0.095594 -0.031458
v 0.342138 0.095918 -0.030135
v 0.354265 0.082930 -0.029128
v 0.342387 0.096167 -0.029128
vt 0.377123 0.468819
vt 0.349340 0.481823
vt 0.348158 0.478822
vt 0.375560 0.465998
vt 0.319981 0.491060
vt 0.319200 0.487931
vt 0.346758 0.475271
vt 0.373710 0.462659
vt 0.318276 0.484226
vt 0.343470 0.466926
vt 0.369365 0.454815
vt 0.371627 0.458899
vt 0.345182 0.471270
vt 0.316105 0.475522
vt 0.317235 0.480054
vt 0.337910 0.452819
vt 0.362019 0.441557
vt 0.364510 0.446053
vt 0.339796 0.457604
vt 0.312431 0.460805
vt 0.313677 0.465797
vt 0.341662 0.462338
vt 0.366975 0.450503
vt 0.314910 0.470736
vt 0.402891 0.452178
vt 0.400974 0.449585
vt 0.398705 0.446514
vt 0.426304 0.432203
vt 0.424066 0.429882
vt 0.421416 0.427132
vt 0.393375 0.439301
vt 0.396151 0.443056
vt 0.415190 0.420674
vt 0.418430 0.424038
vt 0.384363 0.427108
vt 0.387421 0.431242
vt 0.404661 0.409755
vt 0.408232 0.413459
vt 0.390445 0.435335
vt 0.411765 0.417124
vt 0.781679 0.029832
vt 0.806278 0.039765
vt 0.806015 0.040299
vt 0.781488 0.030395
vt 0.805706 0.040929
vt 0.781264 0.031059
vt 0.755874 0.023295
vt 0.755759 0.023879
vt 0.755623 0.024564
vt 0.805140 0.042085
vt 0.780852 0.032278
vt 0.781040 0.031720
vt 0.805399 0.041557
vt 0.755374 0.025824
vt 0.755488 0.025247
vt 0.829195 0.053127
vt 0.828867 0.053624
vt 0.850166 0.069522
vt 0.849776 0.069972
vt 0.828480 0.054207
vt 0.849317 0.070497
vt 0.827769 0.055279
vt 0.828093 0.054789
vt 0.848473 0.071468
vt 0.848859 0.071023
vt 0.378341 0.471022
vt 0.350262 0.484165
vt 0.379258 0.472679
vt 0.350955 0.485927
vt 0.320589 0.493503
vt 0.321046 0.495340
vt 0.379914 0.473864
vt 0.380352 0.474653
vt 0.351782 0.488028
vt 0.351451 0.487187
vt 0.321591 0.497531
vt 0.321373 0.496655
vt 0.380612 0.475126
vt 0.351979 0.488530
vt 0.380741 0.475358
vt 0.352076 0.488778
vt 0.321722 0.498054
vt 0.321784 0.498313
vt 0.806446 0.039421
vt 0.781801 0.029469
vt 0.755948 0.022919
vt 0.806539 0.039231
vt 0.781869 0.029268
vt 0.755989 0.022712
vt 0.829407 0.052807
vt 0.829524 0.052632
vt 0.850419 0.069235
vt 0.850557 0.069075
vt 0.406851 0.457543
vt 0.407171 0.457977
vt 0.430930 0.437004
vt 0.431305 0.437393
vt 0.407331 0.458190
vt 0.431491 0.437583
vt 0.406314 0.456816
vt 0.405510 0.455727
vt 0.430304 0.436354
vt 0.429363 0.435380
vt 0.404386 0.454203
vt 0.428050 0.434016
vt 0.804976 0.042421
vt 0.780733 0.032631
vt 0.142934 0.944578
vt 0.143088 0.944333
vt 0.170083 0.958932
vt 0.169960 0.959194
vt 0.755302 0.026189
vt 0.198869 0.969854
vt 0.198781 0.970129
vt 0.143312 0.943983
vt 0.143687 0.943386
vt 0.170555 0.957914
vt 0.170258 0.958555
vt 0.199203 0.968784
vt 0.198993 0.969457
vt 0.118590 0.925891
vt 0.119040 0.925348
vt 0.118324 0.926211
vt 0.096418 0.904613
vt 0.096935 0.904134
vt 0.096112 0.904894
vt 0.827561 0.055590
vt 0.848229 0.071748
vt 0.118140 0.926434
vt 0.095902 0.905092
vt 0.147596 0.937205
vt 0.149272 0.934554
vt 0.174940 0.948430
vt 0.173624 0.951277
vt 0.151203 0.931501
vt 0.176455 0.945150
vt 0.202311 0.958808
vt 0.201378 0.961802
vt 0.203386 0.955358
vt 0.153346 0.928116
vt 0.155655 0.924465
vt 0.179952 0.937592
vt 0.178137 0.941513
vt 0.205866 0.947406
vt 0.204580 0.951533
vt 0.158091 0.920614
vt 0.181865 0.933455
vt 0.160606 0.916640
vt 0.183841 0.929186
vt 0.207224 0.943053
vt 0.208626 0.938560
vt 0.163153 0.912613
vt 0.185843 0.924860
vt 0.210047 0.934008
vt 0.139305 0.901033
vt 0.142356 0.897371
vt 0.120204 0.882667
vt 0.123708 0.879433
vt 0.133376 0.908149
vt 0.136293 0.904647
vt 0.113394 0.888951
vt 0.116745 0.885859
vt 0.130609 0.911468
vt 0.128043 0.914546
vt 0.110218 0.891882
vt 0.107271 0.894599
vt 0.123723 0.919731
vt 0.125730 0.917321
vt 0.102309 0.899174
vt 0.104616 0.897049
vt 0.144285 0.942443
vt 0.171023 0.956900
vt 0.145121 0.941118
vt 0.171681 0.955479
vt 0.199535 0.967717
vt 0.200001 0.966222
vt 0.146220 0.939384
vt 0.172542 0.953615
vt 0.200612 0.964262
vt 0.122073 0.921710
vt 0.120758 0.923287
vt 0.100415 0.900922
vt 0.098908 0.902315
vt 0.119756 0.924491
vt 0.097755 0.903376
vn 0.8188 0.4727 -0.3258
vn 0.8768 0.3540 -0.3255
vn 0.8756 0.3535 -0.3293
vn 0.8176 0.4721 -0.3295
vn 0.8990 0.2938 -0.3247
vn 0.8978 0.2934 -0.3284
vn 0.8728 0.3524 -0.3376
vn 0.8151 0.4706 -0.3379
vn 0.8950 0.2925 -0.3368
vn 0.8635 0.3486 -0.3644
vn 0.8064 0.4656 -0.3647
vn 0.8113 0.4684 -0.3497
vn 0.8688 0.3508 -0.3494
vn 0.8855 0.2894 -0.3635
vn 0.8909 0.2912 -0.3485
vn 0.8425 0.3400 -0.4179
vn 0.7867 0.4542 -0.4182
vn 0.7916 0.4570 -0.4057
vn 0.8477 0.3422 -0.4053
vn 0.8640 0.2824 -0.4168
vn 0.8693 0.2841 -0.4044
vn 0.8566 0.3458 -0.3829
vn 0.7999 0.4618 -0.3832
vn 0.8785 0.2871 -0.3819
vn 0.7449 0.5823 -0.3255
vn 0.7439 0.5815 -0.3293
vn 0.7416 0.5797 -0.3376
vn 0.7040 0.6317 -0.3247
vn 0.7030 0.6308 -0.3284
vn 0.7008 0.6289 -0.3367
vn 0.7337 0.5735 -0.3644
vn 0.7382 0.5771 -0.3494
vn 0.6934 0.6222 -0.3635
vn 0.6976 0.6260 -0.3485
vn 0.7157 0.5597 -0.4179
vn 0.7202 0.5630 -0.4053
vn 0.6765 0.6071 -0.4168
vn 0.6807 0.6108 -0.4044
vn 0.7278 0.5689 -0.3829
vn 0.6879 0.6172 -0.3819
vn 0.0017 0.0007 1.0000
vn 0.0016 0.0009 1.0000
vn -0.0090 -0.0052 0.9999
vn -0.0097 -0.0039 0.9999
vn -0.0208 -0.0120 0.9997
vn -0.0223 -0.0090 0.9997
vn 0.0017 0.0005 1.0000
vn -0.0100 -0.0033 0.9999
vn -0.0230 -0.0075 0.9997
vn -0.0863 -0.0498 0.9950
vn -0.0926 -0.0374 0.9950
vn -0.0431 -0.0174 0.9989
vn -0.0402 -0.0232 0.9989
vn -0.0956 -0.0312 0.9949
vn -0.0444 -0.0145 0.9989
vn 0.0014 0.0011 1.0000
vn -0.0082 -0.0064 0.9999
vn 0.0013 0.0012 1.0000
vn -0.0078 -0.0070 0.9999
vn -0.0190 -0.0148 0.9997
vn -0.0180 -0.0162 0.9997
vn -0.0787 -0.0615 0.9950
vn -0.0366 -0.0286 0.9989
vn -0.0748 -0.0672 0.9949
vn -0.0348 -0.0312 0.9989
vn 0.8194 0.4731 -0.3237
vn 0.8774 0.3542 -0.3235
vn 0.8210 0.4740 -0.3183
vn 0.8791 0.3549 -0.3180
vn 0.8997 0.2940 -0.3226
vn 0.9015 0.2946 -0.3172
vn 0.8247 0.4761 -0.3053
vn 0.8332 0.4810 -0.2728
vn 0.8922 0.3602 -0.2726
vn 0.8831 0.3565 -0.3050
vn 0.9147 0.2989 -0.2719
vn 0.9055 0.2959 -0.3042
vn 0.8624 0.4979 -0.0911
vn 0.9234 0.3729 -0.0911
vn 0.7236 0.4178 0.5495
vn 0.7745 0.3128 0.5499
vn 0.9466 0.3093 -0.0910
vn 0.7931 0.2592 0.5512
vn 0.2052 0.1185 0.9715
vn 0.2194 0.0885 0.9716
vn 0.2236 0.0731 0.9719
vn 0.1863 0.1458 0.9716
vn 0.6581 0.5143 0.5499
vn 0.1751 0.1571 0.9719
vn 0.6210 0.5572 0.5512
vn 0.7580 0.5925 -0.2726
vn 0.7846 0.6133 -0.0911
vn 0.7162 0.6427 -0.2719
vn 0.7412 0.6651 -0.0909
vn 0.7503 0.5865 -0.3050
vn 0.7469 0.5839 -0.3180
vn 0.7090 0.6362 -0.3042
vn 0.7058 0.6334 -0.3172
vn 0.7455 0.5828 -0.3235
vn 0.7045 0.6322 -0.3226
vn -0.3045 -0.1758 0.9362
vn -0.3268 -0.1320 0.9358
vn -0.6389 -0.3689 0.6751
vn -0.6847 -0.2764 0.6744
vn -0.3376 -0.1103 0.9348
vn -0.7037 -0.2300 0.6722
vn -0.7899 -0.4561 0.4099
vn -0.8150 -0.4705 0.3383
vn -0.8727 -0.3523 0.3380
vn -0.8460 -0.3415 0.4095
vn -0.8949 -0.2925 0.3371
vn -0.8677 -0.2836 0.4082
vn -0.7187 -0.5619 0.4095
vn -0.7415 -0.5796 0.3380
vn -0.5817 -0.4547 0.6744
vn -0.6794 -0.6097 0.4082
vn -0.7007 -0.6288 0.3371
vn -0.5510 -0.4944 0.6722
vn -0.2777 -0.2170 0.9359
vn -0.2643 -0.2372 0.9348
vn -0.8181 -0.4724 0.3279
vn -0.8173 -0.4719 0.3307
vn -0.8752 -0.3533 0.3304
vn -0.8761 -0.3537 0.3276
vn -0.8147 -0.4704 0.3391
vn -0.8724 -0.3522 0.3388
vn -0.8974 -0.2933 0.3295
vn -0.8984 -0.2936 0.3268
vn -0.8946 -0.2924 0.3380
vn -0.8106 -0.4680 0.3519
vn -0.8051 -0.4648 0.3684
vn -0.8622 -0.3481 0.3681
vn -0.8681 -0.3505 0.3516
vn -0.8841 -0.2889 0.3672
vn -0.8902 -0.2909 0.3507
vn -0.7979 -0.4607 0.3888
vn -0.8544 -0.3450 0.3885
vn -0.7885 -0.4552 0.4136
vn -0.8444 -0.3409 0.4133
vn -0.8762 -0.2864 0.3876
vn -0.8660 -0.2830 0.4123
vn -0.7829 -0.4520 0.4274
vn -0.8385 -0.3384 0.4270
vn -0.8600 -0.2810 0.4260
vn -0.7174 -0.5608 0.4133
vn -0.7123 -0.5570 0.4271
vn -0.6781 -0.6085 0.4123
vn -0.6734 -0.6042 0.4260
vn -0.7325 -0.5726 0.3681
vn -0.7260 -0.5675 0.3885
vn -0.6923 -0.6212 0.3672
vn -0.6861 -0.6157 0.3876
vn -0.7375 -0.5766 0.3516
vn -0.7412 -0.5794 0.3388
vn -0.6970 -0.6255 0.3507
vn -0.7005 -0.6286 0.3380
vn -0.7444 -0.5819 0.3276
vn -0.7436 -0.5813 0.3304
vn -0.7034 -0.6312 0.3268
vn -0.7027 -0.6306 0.3295
vn -0.8167 -0.4715 0.3327
vn -0.8745 -0.3531 0.3325
vn -0.8175 -0.4720 0.3301
vn -0.8754 -0.3534 0.3298
vn -0.8968 -0.2931 0.3316
vn -0.8976 -0.2933 0.3290
vn -0.8179 -0.4722 0.3287
vn -0.8758 -0.3536 0.3284
vn -0.8981 -0.2935 0.3276
vn -0.7441 -0.5817 0.3284
vn -0.7438 -0.5814 0.3298
vn -0.7032 -0.6310 0.3276
vn -0.7029 -0.6307 0.3290
vn -0.7430 -0.5808 0.3325
vn -0.7022 -0.6301 0.3316
usemtl pan_Mat
s 1
f 1/1/1 2/2/2 3/3/3 4/4/4
f 2/2/2 5/5/5 6/6/6 3/3/3
f 4/4/4 3/3/3 7/7/7 8/8/8
f 3/3/3 6/6/6 9/9/9 7/7/7
f 12/10/10 13/11/11 14/12/12 15/13/13
f 15/13/13 14/12/12 8/8/8 7/7/7
f 10/14/14 12/10/10 15/13/13 11/15/15
f 11/15/15 15/13/13 7/7/7 9/9/9
f 19/16/16 18/17/17 20/18/18 21/19/19
f 16/20/20 19/16/16 21/19/19 17/21/21
f 13/11/11 12/10/10 22/22/22 23/23/23
f 12/10/10 10/14/14 24/24/24 22/22/22
f 23/23/23 22/22/22 21/19/19 20/18/18
f 22/22/22 24/24/24 17/21/21 21/19/19
f 28/25/25 1/1/1 4/4/4 29/26/26
f 29/26/26 4/4/4 8/8/8 30/27/27
f 25/28/28 28/25/25 29/26/26 26/29/29
f 26/29/29 29/26/26 30/27/27 27/30/30
f 13/11/11 31/31/31 32/32/32 14/12/12
f 31/31/31 33/33/33 34/34/34 32/32/32
f 14/12/12 32/32/32 30/27/27 8/8/8
f 32/32/32 34/34/34 27/30/30 30/27/27
f 18/17/17 35/35/35 37/36/36 20/18/18
f 35/35/35 36/37/37 38/38/38 37/36/36
f 31/31/31 13/11/11 23/23/23 40/39/39
f 40/39/39 23/23/23 20/18/18 37/36/36
f 33/33/33 31/31/31 40/39/39 39/40/40
f 39/40/40 40/39/39 37/36/36 38/38/38
f 44/41/41 45/42/42 46/43/43 47/44/44
f 47/44/44 46/43/43 48/45/45 49/46/46
f 41/47/47 44/41/41 47/44/44 42/48/48
f 42/48/48 47/44/44 49/46/46 43/49/49
f 50/50/50 51/51/51 52/52/52 53/53/53
f 51/51/51 54/54/54 55/55/55 52/52/52
f 53/53/53 52/52/52 49/46/46 48/45/45
f 52/52/52 55/55/55 43/49/49 49/46/46
f 45/42/42 56/56/56 57/57/57 46/43/43
f 56/56/56 58/58/58 59/59/59 57/57/57
f 46/43/43 57/57/57 60/60/60 48/45/45
f 57/57/57 59/59/59 61/61/61 60/60/60
f 64/62/62 50/50/50 53/53/53 65/63/63
f 65/63/63 53/53/53 48/45/45 60/60/60
f 62/64/64 64/62/62 65/63/63 63/65/65
f 63/65/65 65/63/63 60/60/60 61/61/61
f 1/1/1 66/66/66 67/67/67 2/2/2
f 66/66/66 68/68/68 69/69/69 67/67/67
f 2/2/2 67/67/67 70/70/70 5/5/5
f 67/67/67 69/69/69 71/71/71 70/70/70
f 72/72/72 73/73/73 74/74/74 75/75/75
f 75/75/75 74/74/74 76/76/76 77/77/77
f 68/68/68 72/72/72 75/75/75 69/69/69
f 69/69/69 75/75/75 77/77/77 71/71/71
f 73/73/73 78/78/78 79/79/79 74/74/74
f 78/78/78 80/80/80 81/81/81 79/79/79
f 74/74/74 79/79/79 82/82/82 76/76/76
f 79/79/79 81/81/81 83/83/83 82/82/82
f 84/84/84 45/42/42 44/41/41 85/85/85
f 85/85/85 44/41/41 41/47/47 86/86/86
f 80/87/80 84/84/84 85/85/85 81/88/81
f 81/88/81 85/85/85 86/86/86 83/89/83
f 45/42/42 84/84/84 87/90/87 56/56/56
f 84/84/84 80/87/80 88/91/88 87/90/87
f 56/56/56 87/90/87 89/92/89 58/58/58
f 87/90/87 88/91/88 90/93/90 89/92/89
f 78/78/78 73/73/73 91/94/91 92/95/92
f 92/95/92 91/94/91 93/96/93 94/97/94
f 80/80/80 78/78/78 92/95/92 88/98/88
f 88/98/88 92/95/92 94/97/94 90/99/90
f 73/73/73 72/72/72 95/100/95 91/94/91
f 72/72/72 68/68/68 96/101/96 95/100/95
f 91/94/91 95/100/95 97/102/97 93/96/93
f 95/100/95 96/101/96 98/103/98 97/102/97
f 66/66/66 1/1/1 28/25/25 99/104/99
f 99/104/99 28/25/25 25/28/28 100/105/100
f 68/68/68 66/66/66 99/104/99 96/101/96
f 96/101/96 99/104/99 100/105/100 98/103/98
f 50/50/50 101/106/101 102/107/102 51/51/51
f 101/108/101 103/109/103 104/110/104 102/111/102
f 51/51/51 102/107/102 105/112/105 54/54/54
f 102/111/102 104/110/104 106/113/106 105/114/105
f 107/115/107 108/116/108 109/117/109 110/118/110
f 110/118/110 109/117/109 111/119/111 112/120/112
f 103/109/103 107/115/107 110/118/110 104/110/104
f 104/110/104 110/118/110 112/120/112 106/113/106
f 108/116/108 107/115/107 113/121/113 114/122/114
f 107/115/107 103/109/103 115/123/115 113/121/113
f 114/122/114 113/121/113 116/124/116 117/125/117
f 113/121/113 115/123/115 118/126/118 116/124/116
f 101/106/101 50/50/50 64/62/62 119/127/119
f 119/127/119 64/62/62 62/64/64 120/128/120
f 103/109/103 101/108/101 119/129/119 115/123/115
f 115/123/115 119/129/119 120/130/120 118/126/118
f 121/131/121 122/132/122 123/133/123 124/134/124
f 122/132/122 125/135/125 126/136/126 123/133/123
f 124/134/124 123/133/123 127/137/127 128/138/128
f 123/133/123 126/136/126 129/139/129 127/137/127
f 130/140/130 131/141/131 132/142/132 133/143/133
f 133/143/133 132/142/132 134/144/134 135/145/135
f 125/135/125 130/140/130 133/143/133 126/136/126
f 126/136/126 133/143/133 135/145/135 129/139/129
f 131/141/131 136/146/136 137/147/137 132/142/132
f 136/146/136 138/148/138 139/149/139 137/147/137
f 132/142/132 137/147/137 140/150/140 134/144/134
f 137/147/137 139/149/139 141/151/141 140/150/140
f 138/148/138 142/152/142 143/153/143 139/149/139
f 139/149/139 143/153/143 144/154/144 141/151/141
f 142/152/142 138/148/138 146/155/145 145/156/146
f 145/156/146 146/155/145 148/157/147 147/158/148
f 136/146/136 131/141/131 149/159/149 150/160/150
f 150/160/150 149/159/149 151/161/151 152/162/152
f 138/148/138 136/146/136 150/160/150 146/155/145
f 146/155/145 150/160/150 152/162/152 148/157/147
f 131/141/131 130/140/130 153/163/153 149/159/149
f 130/140/130 125/135/125 154/164/154 153/163/153
f 149/159/149 153/163/153 155/165/155 151/161/151
f 153/163/153 154/164/154 156/166/156 155/165/155
f 122/132/122 121/131/121 157/167/157 158/168/158
f 158/168/158 157/167/157 159/169/159 160/170/160
f 125/135/125 122/132/122 158/168/158 154/164/154
f 154/164/154 158/168/158 160/170/160 156/166/156
f 108/116/108 161/171/161 162/172/162 109/117/109
f 161/171/161 163/173/163 164/174/164 162/172/162
f 109/117/109 162/172/162 165/175/165 111/119/111
f 162/172/162 164/174/164 166/176/166 165/175/165
f 167/177/167 121/131/121 124/134/124 168/178/168
f 168/178/168 124/134/124 128/138/128 169/179/169
f 163/173/163 167/177/167 168/178/168 164/174/164
f 164/174/164 168/178/168 169/179/169 166/176/166
f 121/131/121 167/177/167 170/180/170 157/167/157
f 167/177/167 163/173/163 171/181/171 170/180/170
f 157/167/157 170/180/170 172/182/172 159/169/159
f 170/180/170 171/181/171 173/183/173 172/182/172
f 161/171/161 108/116/108 114/122/114 174/184/174
f 174/184/174 114/122/114 117/125/117 175/185/175
f 163/173/163 161/171/161 174/184/174 171/181/171
f 171/181/171 174/184/174 175/185/175 173/183/173
